<?xml version="1.0" encoding="utf-8"?>
<!-- Generator: Adobe Illustrator 19.1.1, SVG Export Plug-In . SVG Version: 6.00 Build 0)  -->
<svg version="1.1" id="Слой_1" xmlns="http://www.w3.org/2000/svg" xmlns:xlink="http://www.w3.org/1999/xlink" x="0px" y="0px"
	 viewBox="0 0 180.5 61.4" style="enable-background:new 0 0 180.5 61.4;" xml:space="preserve">
<style type="text/css">
	.st0{fill:#FFE300;}
	.st1{fill:#00011C;}
</style>
<path class="st1" d="M9.8,0H0v11.5h9.8c10.6,0,19.2,8.6,19.2,19.2c0,10.6-8.6,19.2-19.2,19.2H0v11.5h9.8c16.9,0,31.1-12.4,31.1-30.7
	C40.8,12.2,26.7,0,9.8,0 M34.6,49.9v11.5h11.5V49.9H34.6z M149.8,30.7l22.6-22.6V0h-8.5l-26.4,26.4V0H34.7v11.5h21.6v49.9h12.1V11.5
	h21.7c-4,5.1-6.4,11.6-6.4,19.2c0,18.3,14.1,30.7,31.1,30.7h22.6V35l26.4,26.4h16.7L149.8,30.7z M125.3,49.9h-10.5
	c-8.6,0-16-5.7-18.4-13.6h17V25.1h-17c2.4-7.9,9.7-13.6,18.4-13.6h10.5V49.9z"/>
<path class="st0" d="M9.8,11.5H0v38.4h9.8c10.6,0,19.2-8.6,19.2-19.2C28.9,20.1,20.3,11.5,9.8,11.5"/>
</svg>
