<?xml version="1.0" encoding="UTF-8" standalone="no"?>
<svg
   xmlns:osb="http://www.openswatchbook.org/uri/2009/osb"
   xmlns:dc="http://purl.org/dc/elements/1.1/"
   xmlns:cc="http://creativecommons.org/ns#"
   xmlns:rdf="http://www.w3.org/1999/02/22-rdf-syntax-ns#"
   xmlns:svg="http://www.w3.org/2000/svg"
   xmlns="http://www.w3.org/2000/svg"
   xmlns:xlink="http://www.w3.org/1999/xlink"
   xmlns:sodipodi="http://sodipodi.sourceforge.net/DTD/sodipodi-0.dtd"
   xmlns:inkscape="http://www.inkscape.org/namespaces/inkscape"
   xml:space="preserve"
   width="120.61196"
   height="120.61054"
   version="1.1"
   viewBox="0 0 3191.191 3191.1566"
   id="svg163"
   sodipodi:docname="logo-sm.svg"
   inkscape:version="0.92.3 (2405546, 2018-03-11)"
   style="clip-rule:evenodd;fill-rule:evenodd;image-rendering:optimizeQuality;shape-rendering:geometricPrecision;text-rendering:geometricPrecision"><metadata
     id="metadata94"><rdf:RDF><cc:Work
         rdf:about=""><dc:format>image/svg+xml</dc:format><dc:type
           rdf:resource="http://purl.org/dc/dcmitype/StillImage" /><dc:title></dc:title></cc:Work></rdf:RDF></metadata><sodipodi:namedview
     pagecolor="#ffffff"
     bordercolor="#666666"
     borderopacity="1"
     objecttolerance="10"
     gridtolerance="10"
     guidetolerance="10"
     inkscape:pageopacity="0"
     inkscape:pageshadow="2"
     inkscape:window-width="1920"
     inkscape:window-height="1017"
     id="namedview92"
     showgrid="false"
     inkscape:zoom="2.8005222"
     inkscape:cx="26.18617"
     inkscape:cy="57.464998"
     inkscape:window-x="-8"
     inkscape:window-y="-8"
     inkscape:window-maximized="1"
     inkscape:current-layer="svg163" /><defs
     id="defs25"><linearGradient
       id="linearGradient4749"
       osb:paint="solid"><stop
         style="stop-color:#000000;stop-opacity:1;"
         offset="0"
         id="stop4747" /></linearGradient><linearGradient
       id="linearGradient4737"
       osb:paint="solid"><stop
         style="stop-color:#000000;stop-opacity:1;"
         offset="0"
         id="stop4735" /></linearGradient><style
       type="text/css"
       id="style2">.str0{stroke:#fefefe}.str0,.str1,.str2{stroke-width:255;stroke-linecap:round;stroke-linejoin:round;stroke-miterlimit:22.9256}.str2{stroke:#fefefe}.str1{stroke:#61b340}.fil1{fill:none}.fil5,.fil6{fill:none;fill-rule:nonzero}.fil6{fill:#fefefe}</style><linearGradient
       id="id0"
       gradientUnits="userSpaceOnUse"
       x1="6924.1499"
       y1="14070.37"
       x2="8106.73"
       y2="14091.87"><stop
         offset="0"
         id="stop4"
         stop-opacity="1"
         stop-color="#128f3b" /><stop
         offset="1"
         id="stop6"
         stop-opacity="1"
         stop-color="#99c129" /></linearGradient><linearGradient
       id="id1"
       gradientUnits="userSpaceOnUse"
       xlink:href="#id0"
       x1="13488.22"
       y1="7316.7002"
       x2="14612.12"
       y2="7336.29" /><linearGradient
       id="id2"
       gradientUnits="userSpaceOnUse"
       xlink:href="#id0"
       x1="15186.93"
       y1="9944.3496"
       x2="17169.23"
       y2="9972.8799" /><linearGradient
       id="id3"
       gradientUnits="userSpaceOnUse"
       xlink:href="#id0"
       x1="15594.64"
       y1="12877.59"
       x2="17803.07"
       y2="12927.93" /><linearGradient
       id="id4"
       gradientUnits="userSpaceOnUse"
       xlink:href="#id0"
       x1="3380.8601"
       y1="13561.45"
       x2="5704.1499"
       y2="13607.39" /><linearGradient
       id="id5"
       gradientUnits="userSpaceOnUse"
       xlink:href="#id0"
       x1="13203.47"
       y1="10004.68"
       x2="14301.55"
       y2="11121.26" /><linearGradient
       id="id6"
       gradientUnits="userSpaceOnUse"
       xlink:href="#id0"
       x1="14280.28"
       y1="12032.6"
       x2="15378.46"
       y2="13149.22" /><linearGradient
       id="id7"
       gradientUnits="userSpaceOnUse"
       xlink:href="#id0"
       x1="5357.1099"
       y1="8919.4199"
       x2="8396.6904"
       y2="8949.3096" /><linearGradient
       id="id8"
       gradientUnits="userSpaceOnUse"
       xlink:href="#id0"
       x1="2263.3799"
       y1="4075.79"
       x2="18239.301"
       y2="4267.1299"
       gradientTransform="matrix(0.19372,0,0,0.19372,-438.456,-647.09)" /><linearGradient
       id="id9"
       gradientUnits="userSpaceOnUse"
       xlink:href="#id0"
       x1="8686.1504"
       y1="11150.04"
       x2="9784.3896"
       y2="12266.55" /><linearGradient
       id="id10"
       gradientUnits="userSpaceOnUse"
       xlink:href="#id0"
       x1="4065.29"
       y1="10881"
       x2="5713.7998"
       y2="10899.53" /><linearGradient
       id="id11"
       gradientUnits="userSpaceOnUse"
       xlink:href="#id0"
       x1="13176.51"
       y1="13859.79"
       x2="14905.23"
       y2="13875.71" /><linearGradient
       id="id12"
       gradientUnits="userSpaceOnUse"
       xlink:href="#id0"
       x1="10500.06"
       y1="9873.2695"
       x2="11598.29"
       y2="10989.81" /><linearGradient
       id="id13"
       gradientUnits="userSpaceOnUse"
       xlink:href="#id0"
       x1="6059.8701"
       y1="11854.39"
       x2="7157.9399"
       y2="12971.1" /><linearGradient
       id="id14"
       gradientUnits="userSpaceOnUse"
       xlink:href="#id0"
       x1="8846.5098"
       y1="6600.6299"
       x2="10121.21"
       y2="6615.8901" /><linearGradient
       id="id15"
       gradientUnits="userSpaceOnUse"
       xlink:href="#id0"
       x1="3933.27"
       y1="4357.7402"
       x2="12862.52"
       y2="4421.3901" /><linearGradient
       id="id16"
       gradientUnits="userSpaceOnUse"
       xlink:href="#id0"
       x1="2377.9199"
       y1="22202.6"
       x2="18131.74"
       y2="22253.199"
       gradientTransform="matrix(0.19372,0,0,0.19372,-438.456,-647.09)" /><linearGradient
       xlink:href="#id0"
       id="linearGradient4816"
       gradientUnits="userSpaceOnUse"
       x1="6924.1499"
       y1="14070.37"
       x2="8106.73"
       y2="14091.87" /></defs><g
     id="g4818"
     transform="translate(6.3894223e-5,-1.0773494e-4)"><path
       inkscape:connector-curvature="0"
       style="fill:url(#id8);stroke-width:0.19400001"
       d="M 3050.558,941.56 C 2689.353,138.01 1745.136,-220.58 941.585,140.64 555.802,314.057 254.689,633.577 104.442,1028.966 c -150.876,395.48 -137.843,834.806 36.218,1220.639 361.205,803.548 1305.431,1162.118 2108.973,800.92 803.546,-361.208 1162.136,-1305.43 800.925,-2108.965 z m -1243.852,2080 c -70.481,-281.553 -16.561,-637.078 -16.561,-637.078 0,0 20.586,-424.995 753.211,-484.451 0,0 -235.824,-59.755 -340.332,-24.01 0,0 83.695,-74.746 116.563,-222.448 0,0 -323.898,367.623 -555.742,380.763 0,0 43.711,-85.35 146.652,-200.75 102.843,-115.4 264.682,-260.993 501.016,-381.28 0,0 -251.045,35.713 -337.027,113.848 0,0 35.044,-162.013 -30.557,-228.457 0,0 7.438,308.796 -293.36,457.162 0,0 -46.868,-230.414 152.307,-457.162 0,0 -128.95,35.195 -199.175,191.563 0,0 -132.843,-128.94 -304.865,-117.256 0,0 390.74,168.07 109.376,578.209 0,0 -82.821,-65.239 -42.008,-428.534 0,0 -55.656,135.51 -67.368,209.815 0,0 -176.296,-101.75 -371.157,-128.951 0,0 320.35,89.814 351.609,339.93 0,0 -293.855,-26.914 -446.924,-324.438 0,0 8.401,62.523 78.75,218.736 0,0 -207.049,-42.4 -363.25,-30.57 0,0 768.035,170.681 796.14,446.394 16.946,166.35 68.965,447.224 -31.49,733.433 A 1446.11,1446.11 0 0 1 894.751,2857.578 C 826.275,2756.318 801.157,2567.857 776.288,2387.21 744.57,2149.9 714.085,1924.643 577.406,1847.093 453.224,1768.641 293.714,1774.036 175.101,1860.681 a 1440.364,1440.364 0 0 1 39.839,-691.022 c 35.966,122.262 152.575,202.683 279.633,192.88 132.49,-2.249 280.055,-75.694 407.493,-136.824 a 914.485,914.485 0 0 1 177.976,-76.402 646.422,646.422 0 0 1 298.881,28.312 c 120.035,32.296 228.213,61.066 357.556,0.023 172.46,-81.392 219.23,-238.75 271.85,-418.349 45.485,-153.985 96.176,-323.366 249.541,-446.114 289.566,148.933 520.03,391.733 653.663,688.666 a 1438.235,1438.235 0 0 1 126.447,653.954 c -462.453,50.014 -492.944,284.996 -535.202,603.69 -22.375,171.111 -47.798,370.673 -165.31,572.017 a 1455.404,1455.404 0 0 1 -151.21,78.83 1446.216,1446.216 0 0 1 -379.552,111.219 z M 3022.959,1810.068 c -48.571,321.448 -203.96,617.183 -441.134,839.527 a 2140.16,2140.16 0 0 0 71.572,-369.71 c 30.962,-242.193 54.634,-421.822 369.562,-469.817 z M 322.793,910.573 C 472.997,630.47 711.803,408.034 1001.847,278.053 1350.739,119.94 1748.255,107.4 2106.41,243.22 c -145.371,141.546 -196.176,313.79 -242.376,471.361 -42.21,143.637 -80.384,272.385 -190.889,324.484 -80.335,36.177 -162.935,15.49 -255.275,-9.21 a 768.616,768.616 0 0 0 -366.612,-30.489 959.764,959.764 0 0 0 -216.592,89.128 c -112.56,55.822 -243.222,121.195 -342.914,122.679 -92.288,2.352 -161.08,-67.498 -168.96,-300.6 z m -44.751,1277.167 0.391,-0.175 a 1459.195,1459.195 0 0 1 -62.655,-165.029 c 73.503,-82.414 195.283,-100.763 289.803,-43.682 71.505,40.623 96.972,229.862 123.75,429.25 13.722,103.044 27.936,208.2 50.527,303.982 A 1438.303,1438.303 0 0 1 278.042,2187.74 Z"
       id="path28" /><g
       style="stroke:none;stroke-width:0;stroke-miterlimit:4;stroke-dasharray:none"
       transform="matrix(0.15078,0,0,0.15704,-246.46,-114.142)"
       id="g33"><path
         style="fill:none;stroke:none;stroke-width:0;stroke-linecap:round;stroke-linejoin:round;stroke-miterlimit:4;stroke-dasharray:none"
         inkscape:connector-curvature="0"
         class="fil1 str0"
         d="m 3702.26,14633.7 2.02,-0.9 a 7530.565,7530.565 0 0 1 -323.42,-851.9 c 379.42,-425.43 1008.06,-520.15 1495.98,-225.49 369.12,209.7 500.58,1186.57 638.81,2215.83 70.84,531.93 144.21,1074.76 260.83,1569.19 A 7424.779,7424.779 0 0 1 3702.26,14633.7 Z"
         id="path30"
         stroke-miterlimit="22.926" /><path
         inkscape:connector-curvature="0"
         style="fill:url(#id4);stroke:none;stroke-width:0;stroke-miterlimit:4;stroke-dasharray:none"
         id="1"
         d="m 3702.26,14633.7 2.02,-0.9 a 7530.565,7530.565 0 0 1 -323.42,-851.9 c 379.42,-425.43 1008.06,-520.15 1495.98,-225.49 369.12,209.7 500.58,1186.57 638.81,2215.83 70.84,531.93 144.21,1074.76 260.83,1569.19 A 7424.779,7424.779 0 0 1 3702.26,14633.7 Z" /></g><g
       style="stroke:none;stroke-width:0;stroke-miterlimit:4;stroke-dasharray:none"
       transform="matrix(0.17734,0,0,0.17361,-308.299,-509.735)"
       id="g39"><path
         style="fill:none;stroke:none;stroke-width:0;stroke-linecap:round;stroke-linejoin:round;stroke-miterlimit:4;stroke-dasharray:none"
         inkscape:connector-curvature="0"
         class="fil1 str0"
         d="M 3933.27,8040.82 C 4708.64,6594.9 5941.38,5446.66 7438.62,4775.68 c 1801.02,-816.19 3853.04,-880.92 5701.88,-179.81 -750.42,730.68 -1012.68,1619.82 -1251.17,2433.22 -217.89,741.47 -414.95,1406.08 -985.39,1675.02 -414.7,186.75 -841.09,79.96 -1317.75,-47.54 -608.81,-204.89 -1258.21,-258.88 -1892.5,-157.39 a 4954.408,4954.408 0 0 0 -1118.07,460.09 c -581.05,288.16 -1255.54,625.62 -1770.16,633.28 -476.39,12.14 -831.51,-348.43 -872.19,-1551.73 z"
         id="path35"
         stroke-miterlimit="22.926" /><path
         inkscape:connector-curvature="0"
         style="fill:url(#id15);stroke:none;stroke-width:0;stroke-miterlimit:4;stroke-dasharray:none"
         id="path37"
         d="M 3933.27,8040.82 C 4708.64,6594.9 5941.38,5446.66 7438.62,4775.68 c 1801.02,-816.19 3853.04,-880.92 5701.88,-179.81 -750.42,730.68 -1012.68,1619.82 -1251.17,2433.22 -217.89,741.47 -414.95,1406.08 -985.39,1675.02 -414.7,186.75 -841.09,79.96 -1317.75,-47.54 -608.81,-204.89 -1258.21,-258.88 -1892.5,-157.39 a 4954.408,4954.408 0 0 0 -1118.07,460.09 c -581.05,288.16 -1255.54,625.62 -1770.16,633.28 -476.39,12.14 -831.51,-348.43 -872.19,-1551.73 z" /></g><g
       style="stroke:none"
       transform="matrix(0.14027,0,0,0.1519,461.142,-57.671)"
       id="g45"><path
         style="fill:none;stroke:#fefefe;stroke-width:255;stroke-linecap:round;stroke-linejoin:round;stroke-miterlimit:22.92560005"
         inkscape:connector-curvature="0"
         class="fil1 str0"
         d="m 17871.83,12684.11 c -250.74,1659.35 -1052.87,3185.97 -2277.19,4333.73 179.01,-624.07 302.6,-1262.68 369.46,-1908.48 159.83,-1250.23 282.03,-2177.49 1907.73,-2425.25 z"
         id="path41"
         stroke-miterlimit="22.926" /><path
         inkscape:connector-curvature="0"
         style="fill:url(#id3);stroke:none"
         id="path43"
         d="m 17871.83,12684.11 c -250.74,1659.35 -1052.87,3185.97 -2277.19,4333.73 179.01,-624.07 302.6,-1262.68 369.46,-1908.48 159.83,-1250.23 282.03,-2177.49 1907.73,-2425.25 z" /></g><g
       transform="matrix(0.19372,0,0,0.19372,-438.456,-647.09)"
       id="g51"><path
         style="fill:none;fill-rule:nonzero;stroke:#61b340;stroke-width:255;stroke-linecap:round;stroke-linejoin:round;stroke-miterlimit:22.92560005"
         inkscape:connector-curvature="0"
         class="fil5 str1"
         d="m 16696.53,14336.77 c 0,0 -1197.57,931.21 -1789.42,-504 0,0 700.28,-312.23 1093.63,76.22 0,0 -205.36,-486.1 -937.84,-272.39 0,0 762.68,-1007.1 1633.63,700.17 z"
         id="path47"
         stroke-miterlimit="22.926" /><path
         style="fill:#fefefe;fill-rule:nonzero"
         inkscape:connector-curvature="0"
         id="path49"
         class="fil6"
         d="m 16696.53,14336.77 c 0,0 -1197.57,931.21 -1789.42,-504 0,0 700.28,-312.23 1093.63,76.22 0,0 -205.36,-486.1 -937.84,-272.39 0,0 762.68,-1007.1 1633.63,700.17 z" /></g><g
       transform="matrix(0.19372,0,0,0.19372,-438.456,-647.09)"
       id="g57"><path
         style="fill:none;fill-rule:nonzero;stroke:#61b340;stroke-width:255;stroke-linecap:round;stroke-linejoin:round;stroke-miterlimit:22.92560005"
         inkscape:connector-curvature="0"
         class="fil5 str1"
         d="m 4964.05,14600.2 c 0,0 -72.66,-1571.08 1496.41,-1214.14 0,0 -154.11,779.84 -718.18,880.75 0,0 534.56,116.59 791.4,-631.52 0,0 396.92,1248.13 -1569.63,964.91 z"
         id="path53"
         stroke-miterlimit="22.926" /><path
         style="fill:#fefefe;fill-rule:nonzero"
         inkscape:connector-curvature="0"
         id="path55"
         class="fil6"
         d="m 4964.05,14600.2 c 0,0 -72.66,-1571.08 1496.41,-1214.14 0,0 -154.11,779.84 -718.18,880.75 0,0 534.56,116.59 791.4,-631.52 0,0 396.92,1248.13 -1569.63,964.91 z" /></g><g
       transform="matrix(0.19372,0,0,0.19372,-438.456,-647.09)"
       id="g63"><path
         style="fill:none;stroke:#fefefe;stroke-width:255;stroke-linecap:round;stroke-linejoin:round;stroke-miterlimit:22.92560005"
         inkscape:connector-curvature="0"
         class="fil1 str2"
         d="m 7554.29,15838.92 c 0,0 -1297.68,-785.96 -168.54,-1851.2 0,0 541.83,542.37 319.59,1048.51 0,0 380.34,-365.36 -80.7,-973.4 0,0 1213.09,352.88 -70.35,1776.09 z"
         id="path59"
         stroke-miterlimit="22.926" /><path
         inkscape:connector-curvature="0"
         style="fill:url(#linearGradient4816)"
         id="path61"
         d="m 7554.29,15838.92 c 0,0 -1297.68,-785.96 -168.54,-1851.2 0,0 541.83,542.37 319.59,1048.51 0,0 380.34,-365.36 -80.7,-973.4 0,0 1213.09,352.88 -70.35,1776.09 z" /></g><g
       transform="matrix(0.19372,0,0,0.19372,-438.456,-647.09)"
       id="g69"><path
         style="fill:none;stroke:#fefefe;stroke-width:255;stroke-linecap:round;stroke-linejoin:round;stroke-miterlimit:22.92560005"
         inkscape:connector-curvature="0"
         class="fil1 str2"
         d="m 17032.08,9834.68 c 0,0 961.84,2073.12 -1345.15,2456.35 0,0 -221.56,-1133.74 481.75,-1579.84 0,0 -783.09,137.19 -717.03,1285.01 0,0 -1220.63,-1460.71 1580.43,-2161.52 z"
         id="path65"
         stroke-miterlimit="22.926" /><path
         inkscape:connector-curvature="0"
         style="fill:url(#id2)"
         id="path67"
         d="m 17032.08,9834.68 c 0,0 961.84,2073.12 -1345.15,2456.35 0,0 -221.56,-1133.74 481.75,-1579.84 0,0 -783.09,137.19 -717.03,1285.01 0,0 -1220.63,-1460.71 1580.43,-2161.52 z" /></g><g
       transform="matrix(0.19372,0,0,0.19372,-438.456,-647.09)"
       id="g75"><path
         style="fill:none;stroke:#fefefe;stroke-width:255;stroke-linecap:round;stroke-linejoin:round;stroke-miterlimit:22.92560005"
         inkscape:connector-curvature="0"
         class="fil1 str2"
         d="m 5357.11,9076.62 c 0,0 2599.67,-1261.11 3134.21,1646.81 0,0 -1428.31,304.74 -2007.43,-574.54 0,0 190.36,986.79 1640,878.4 0,0 -1819.86,1574.64 -2766.78,-1950.67 z"
         id="path71"
         stroke-miterlimit="22.926" /><path
         inkscape:connector-curvature="0"
         style="fill:url(#id7)"
         id="path73"
         d="m 5357.11,9076.62 c 0,0 2599.67,-1261.11 3134.21,1646.81 0,0 -1428.31,304.74 -2007.43,-574.54 0,0 190.36,986.79 1640,878.4 0,0 -1819.86,1574.64 -2766.78,-1950.67 z" /></g><g
       transform="matrix(0.19372,0,0,0.19372,-438.456,-647.09)"
       id="g81"><path
         style="fill:none;fill-rule:nonzero;stroke:#61b340;stroke-width:255;stroke-linecap:round;stroke-linejoin:round;stroke-miterlimit:22.92560005"
         inkscape:connector-curvature="0"
         class="fil5 str1"
         d="m 15764.13,8417.41 c 0,0 724.42,1560.99 -1012.76,1849.43 0,0 -166.72,-853.64 362.73,-1189.44 0,0 -589.46,103.28 -540.01,967.45 0,0 -918.85,-1099.78 1190.04,-1627.44 z"
         id="path77"
         stroke-miterlimit="22.926" /><path
         style="fill:#fefefe;fill-rule:nonzero"
         inkscape:connector-curvature="0"
         id="path79"
         class="fil6"
         d="m 15764.13,8417.41 c 0,0 724.42,1560.99 -1012.76,1849.43 0,0 -166.72,-853.64 362.73,-1189.44 0,0 -589.46,103.28 -540.01,967.45 0,0 -918.85,-1099.78 1190.04,-1627.44 z" /></g><path
       style="fill:#fefefe;fill-rule:nonzero;stroke-width:0.19400001"
       inkscape:connector-curvature="0"
       class="fil6"
       d="m 941.261,602.01 c 0,0 309.12,124.814 101.683,395.616 0,0 -136.62,-98.599 -106.185,-216.216 0,0 -69.747,92.653 51.721,208.303 0,0 -275.554,-33.821 -47.219,-387.702 z"
       id="path83" /><g
       transform="matrix(0.19372,0,0,0.19372,-438.456,-647.09)"
       id="g89"><path
         style="fill:none;stroke:#fefefe;stroke-width:255;stroke-linecap:round;stroke-linejoin:round;stroke-miterlimit:22.92560005"
         inkscape:connector-curvature="0"
         class="fil1 str2"
         d="m 4065.29,10879.05 c 0,0 1642.83,-512.01 1699.83,1247.9 0,0 -868.15,52.85 -1131.3,-516.39 0,0 24.59,597.97 887.92,662.74 0,0 -1211.54,765.9 -1456.45,-1394.25 z"
         id="path85"
         stroke-miterlimit="22.926" /><path
         inkscape:connector-curvature="0"
         style="fill:url(#id10)"
         id="path87"
         d="m 4065.29,10879.05 c 0,0 1642.83,-512.01 1699.83,1247.9 0,0 -868.15,52.85 -1131.3,-516.39 0,0 24.59,597.97 887.92,662.74 0,0 -1211.54,765.9 -1456.45,-1394.25 z" /></g><g
       transform="matrix(0.19372,0,0,0.19372,-438.456,-647.09)"
       id="g95"><path
         style="fill:none;fill-rule:nonzero;stroke:#61b340;stroke-width:255;stroke-linecap:round;stroke-linejoin:round;stroke-miterlimit:22.92560005"
         inkscape:connector-curvature="0"
         class="fil5 str1"
         d="m 8693.79,8319.22 c 0,0 1637.63,-529.5 1713.02,1229.66 0,0 -867.58,62.15 -1136.67,-504.37 0,0 31.01,597.68 894.85,653.19 0,0 -1203.18,778.8 -1471.2,-1378.48 z"
         id="path91"
         stroke-miterlimit="22.926" /><path
         style="fill:#fefefe;fill-rule:nonzero"
         inkscape:connector-curvature="0"
         id="path93"
         class="fil6"
         d="m 8693.79,8319.22 c 0,0 1637.63,-529.5 1713.02,1229.66 0,0 -867.58,62.15 -1136.67,-504.37 0,0 31.01,597.68 894.85,653.19 0,0 -1203.18,778.8 -1471.2,-1378.48 z" /></g><g
       transform="matrix(0.19372,0,0,0.19372,-438.456,-647.09)"
       id="g101"><path
         style="fill:none;stroke:#fefefe;stroke-width:255;stroke-linecap:round;stroke-linejoin:round;stroke-miterlimit:22.92560005"
         inkscape:connector-curvature="0"
         class="fil1 str2"
         d="m 14275.22,7241.42 c 0,0 985.5,982.29 -252.08,1686.26 0,0 -365.06,-601.22 -57.07,-1003.88 0,0 -418.68,242.99 -139.71,884.86 0,0 -1004.36,-577.93 448.86,-1567.24 z"
         id="path97"
         stroke-miterlimit="22.926" /><path
         inkscape:connector-curvature="0"
         style="fill:url(#id1)"
         id="path99"
         d="m 14275.22,7241.42 c 0,0 985.5,982.29 -252.08,1686.26 0,0 -365.06,-601.22 -57.07,-1003.88 0,0 -418.68,242.99 -139.71,884.86 0,0 -1004.36,-577.93 448.86,-1567.24 z" /></g><g
       transform="matrix(0.19372,0,0,0.19372,-438.456,-647.09)"
       id="g107"><path
         style="fill:none;stroke:#fefefe;stroke-width:255;stroke-linecap:round;stroke-linejoin:round;stroke-miterlimit:22.92560005"
         inkscape:connector-curvature="0"
         class="fil1 str2"
         d="m 8846.51,6576.71 c 0,0 1350.08,-336.68 1313.65,1086.63 0,0 -703.07,2.09 -889,-469.73 0,0 -7.99,483.92 685.88,576.47 0,0 -1013.68,561.77 -1110.53,-1193.37 z"
         id="path103"
         stroke-miterlimit="22.926" /><path
         inkscape:connector-curvature="0"
         style="fill:url(#id14)"
         id="path105"
         d="m 8846.51,6576.71 c 0,0 1350.08,-336.68 1313.65,1086.63 0,0 -703.07,2.09 -889,-469.73 0,0 -7.99,483.92 685.88,576.47 0,0 -1013.68,561.77 -1110.53,-1193.37 z" /></g><g
       transform="matrix(0.19372,0,0,0.19372,-438.456,-647.09)"
       id="g113"><path
         style="fill:none;fill-rule:nonzero;stroke:#61b340;stroke-width:255;stroke-linecap:round;stroke-linejoin:round;stroke-miterlimit:22.92560005"
         inkscape:connector-curvature="0"
         class="fil5 str1"
         d="m 3723.56,9027.69 c 0,0 1350.21,-336.75 1313.86,1086.68 0,0 -703.29,2.12 -889.12,-469.73 0,0 -8.09,484.08 685.75,576.47 0,0 -1013.51,561.75 -1110.49,-1193.42 z"
         id="path109"
         stroke-miterlimit="22.926" /><path
         style="fill:#fefefe;fill-rule:nonzero"
         inkscape:connector-curvature="0"
         id="path111"
         class="fil6"
         d="m 3723.56,9027.69 c 0,0 1350.21,-336.75 1313.86,1086.68 0,0 -703.29,2.12 -889.12,-469.73 0,0 -8.09,484.08 685.75,576.47 0,0 -1013.51,561.75 -1110.49,-1193.42 z" /></g><g
       transform="matrix(0.19372,0,0,0.19372,-438.456,-647.09)"
       id="g119"><path
         style="fill:none;fill-rule:nonzero;stroke:#61b340;stroke-width:255;stroke-linecap:round;stroke-linejoin:round;stroke-miterlimit:22.92560005"
         inkscape:connector-curvature="0"
         class="fil5 str1"
         d="m 11785.51,5744.75 c 0,0 2388.91,1502.62 255.31,3448.79 0,0 -990.83,-1026.12 -561.48,-1960.68 0,0 -719.52,667.92 119.73,1813.09 0,0 -2245.6,-694.23 186.44,-3301.2 z"
         id="path115"
         stroke-miterlimit="22.926" /><path
         style="fill:#fefefe;fill-rule:nonzero"
         inkscape:connector-curvature="0"
         id="path117"
         class="fil6"
         d="m 11785.51,5744.75 c 0,0 2388.91,1502.62 255.31,3448.79 0,0 -990.83,-1026.12 -561.48,-1960.68 0,0 -719.52,667.92 119.73,1813.09 0,0 -2245.6,-694.23 186.44,-3301.2 z" /></g><g
       transform="matrix(0.19372,0,0,0.19372,-438.456,-647.09)"
       id="g125"><path
         style="fill:none;stroke:#fefefe;stroke-width:255;stroke-linecap:round;stroke-linejoin:round;stroke-miterlimit:22.92560005"
         inkscape:connector-curvature="0"
         class="fil1 str2"
         d="m 14067.66,10398.25 c 0,238.61 -193.63,432.18 -432.07,432.18 -238.78,0 -432.12,-193.57 -432.12,-432.18 0,-238.88 193.34,-432.16 432.12,-432.16 238.44,0 432.07,193.28 432.07,432.16 z"
         id="path121"
         stroke-miterlimit="22.926" /><path
         inkscape:connector-curvature="0"
         style="fill:url(#id5)"
         id="path123"
         d="m 14067.66,10398.25 c 0,238.61 -193.63,432.18 -432.07,432.18 -238.78,0 -432.12,-193.57 -432.12,-432.18 0,-238.88 193.34,-432.16 432.12,-432.16 238.44,0 432.07,193.28 432.07,432.16 z" /></g><g
       transform="matrix(0.19372,0,0,0.19372,-438.456,-647.09)"
       id="g131"><path
         style="fill:none;stroke:#fefefe;stroke-width:255;stroke-linecap:round;stroke-linejoin:round;stroke-miterlimit:22.92560005"
         inkscape:connector-curvature="0"
         class="fil1 str2"
         d="m 11364.37,10266.84 c 0,238.87 -193.39,432.14 -432.14,432.14 -238.87,0 -432.17,-193.27 -432.17,-432.14 0,-238.66 193.3,-432.16 432.17,-432.16 238.75,0 432.14,193.5 432.14,432.16 z"
         id="path127"
         stroke-miterlimit="22.926" /><path
         inkscape:connector-curvature="0"
         style="fill:url(#id12)"
         id="path129"
         d="m 11364.37,10266.84 c 0,238.87 -193.39,432.14 -432.14,432.14 -238.87,0 -432.17,-193.27 -432.17,-432.14 0,-238.66 193.3,-432.16 432.17,-432.16 238.75,0 432.14,193.5 432.14,432.16 z" /></g><g
       transform="matrix(0.19372,0,0,0.19372,-438.456,-647.09)"
       id="g137"><path
         style="fill:none;stroke:#fefefe;stroke-width:255;stroke-linecap:round;stroke-linejoin:round;stroke-miterlimit:22.92560005"
         inkscape:connector-curvature="0"
         class="fil1 str2"
         d="m 15144.55,12426.2 c 0,238.56 -193.62,432.18 -432.13,432.18 -239,0 -432.14,-193.62 -432.14,-432.18 0,-238.75 193.14,-432.19 432.14,-432.19 238.51,0 432.13,193.44 432.13,432.19 z"
         id="path133"
         stroke-miterlimit="22.926" /><path
         inkscape:connector-curvature="0"
         style="fill:url(#id6)"
         id="path135"
         d="m 15144.55,12426.2 c 0,238.56 -193.62,432.18 -432.13,432.18 -239,0 -432.14,-193.62 -432.14,-432.18 0,-238.75 193.14,-432.19 432.14,-432.19 238.51,0 432.13,193.44 432.13,432.19 z" /></g><g
       transform="matrix(0.19372,0,0,0.19372,-438.456,-647.09)"
       id="g143"><path
         style="fill:none;stroke:#fefefe;stroke-width:255;stroke-linecap:round;stroke-linejoin:round;stroke-miterlimit:22.92560005"
         inkscape:connector-curvature="0"
         class="fil1 str2"
         d="m 9550.47,11543.59 c 0,238.65 -193.5,432.14 -432.12,432.14 -238.91,0 -432.2,-193.49 -432.2,-432.14 0,-238.61 193.29,-432.14 432.2,-432.14 238.62,0 432.12,193.53 432.12,432.14 z"
         id="path139"
         stroke-miterlimit="22.926" /><path
         inkscape:connector-curvature="0"
         style="fill:url(#id9)"
         id="path141"
         d="m 9550.47,11543.59 c 0,238.65 -193.5,432.14 -432.12,432.14 -238.91,0 -432.2,-193.49 -432.2,-432.14 0,-238.61 193.29,-432.14 432.2,-432.14 238.62,0 432.12,193.53 432.12,432.14 z" /></g><g
       transform="matrix(0.19372,0,0,0.19372,-438.456,-647.09)"
       id="g149"><path
         style="fill:none;stroke:#fefefe;stroke-width:255;stroke-linecap:round;stroke-linejoin:round;stroke-miterlimit:22.92560005"
         inkscape:connector-curvature="0"
         class="fil1 str2"
         d="m 6924.05,12248.02 c 0,238.79 -193.37,432.21 -432.06,432.21 -238.74,0 -432.12,-193.42 -432.12,-432.21 0,-238.59 193.38,-432.22 432.12,-432.22 238.69,0 432.06,193.63 432.06,432.22 z"
         id="path145"
         stroke-miterlimit="22.926" /><path
         inkscape:connector-curvature="0"
         style="fill:url(#id13)"
         id="path147"
         d="m 6924.05,12248.02 c 0,238.79 -193.37,432.21 -432.06,432.21 -238.74,0 -432.12,-193.42 -432.12,-432.21 0,-238.59 193.38,-432.22 432.12,-432.22 238.69,0 432.06,193.63 432.06,432.22 z" /></g><g
       transform="matrix(0.19372,0,0,0.19372,-438.456,-647.09)"
       id="g155"><path
         style="fill:none;stroke:#fefefe;stroke-width:255;stroke-linecap:round;stroke-linejoin:round;stroke-miterlimit:22.92560005"
         inkscape:connector-curvature="0"
         class="fil1 str2"
         d="m 14959.04,14954.41 c 0,0 -1343.92,816.6 -1782.53,-731.7 0,0 758.09,-238.3 1117,208.37 0,0 -153.7,-525.03 -933.74,-391.85 0,0 905.42,-946.63 1599.27,915.18 z"
         id="path151"
         stroke-miterlimit="22.926" /><path
         inkscape:connector-curvature="0"
         style="fill:url(#id11)"
         id="path153"
         d="m 14959.04,14954.41 c 0,0 -1343.92,816.6 -1782.53,-731.7 0,0 758.09,-238.3 1117,208.37 0,0 -153.7,-525.03 -933.74,-391.85 0,0 905.42,-946.63 1599.27,915.18 z" /></g></g></svg>