<?xml version="1.0" encoding="utf-8"?>
<svg id="master-artboard" viewBox="0 0 647.7035522460938 452.02923583984375" version="1.1" xmlns="http://www.w3.org/2000/svg" x="0px" y="0px" style="enable-background:new 0 0 1400 980;" width="647.7035522460938px" height="452.02923583984375px"><rect id="ee-background" x="0" y="0" width="647.7035522460938" height="452.02923583984375" style="fill: white; fill-opacity: 0; pointer-events: none;"/>



<path d="M 37 610.7999877929688 L 37 714.2999877929688 L 687 954.5 Z" class="st0" style="fill: rgb(156, 240, 214);" transform="matrix(1, 0, 0, 1, -38.42041015625, -499.4653015136719)"/><path d="M 37 610.7999877929688 L 344.6000061035156 773.5 L 687 499.5 Z" class="st3" style="fill: rgb(127, 240, 205);" transform="matrix(1, 0, 0, 1, -38.42041015625, -499.4653015136719)"/><path d="M 687 499.5 L 344.6000061035156 773.5 L 600.5999755859375 679.7999877929688 Z" class="st0" style="fill: rgb(156, 240, 214);" transform="matrix(1, 0, 0, 1, -38.42041015625, -499.4653015136719)"/><path d="M 344.6000061035156 773.5 L 600.5999755859375 679.7999877929688 L 529 871 Z" class="st3" style="fill: rgb(127, 240, 205);" transform="matrix(1, 0, 0, 1, -38.42041015625, -499.4653015136719)"/><path d="M 529 871 L 564.7999877929688 775.4000244140625 L 687 954.5 Z" class="st4" style="fill: rgb(97, 227, 187);" transform="matrix(1, 0, 0, 1, -38.42041015625, -499.4653015136719)"/><path d="M 687 954.5 L 564.7999877929688 775.4000244140625 L 687 690.2999877929688 Z" class="st3" style="fill: rgb(127, 240, 205);" transform="matrix(1, 0, 0, 1, -38.42041015625, -499.4653015136719)"/><path d="M 37 954.5 L 37 714.2999877929688 L 187.89999389648438 770.0999755859375 Z" class="st3" style="fill: rgb(127, 240, 205);" transform="matrix(1, 0, 0, 1, -38.42041015625, -499.4653015136719)"/><path d="M 37 954.5 L 187.89999389648438 770.0999755859375 L 260 862.2999877929688 Z" class="st4" style="fill: rgb(97, 227, 187);" transform="matrix(1, 0, 0, 1, -38.42041015625, -499.4653015136719)"/><path d="M 260 862.2999877929688 L 187.89999389648438 770.0999755859375 L 687 954.5 Z" class="st3" style="fill: rgb(127, 240, 205);" transform="matrix(1, 0, 0, 1, -38.42041015625, -499.4653015136719)"/><path d="M 37 954.5 L 260 862.2999877929688 L 407.1000061035156 954.5 Z" class="st3" style="fill: rgb(127, 240, 205);" transform="matrix(1, 0, 0, 1, -38.42041015625, -499.4653015136719)"/><path d="M 407.1000061035156 954.5 L 260 862.2999877929688 L 687 954.5 Z" class="st0" style="fill: rgb(156, 240, 214);" transform="matrix(1, 0, 0, 1, -38.42041015625, -499.4653015136719)"/><path d="M 564.7999877929688 775.4000244140625 L 600.5999755859375 679.7999877929688 L 687 690.2999877929688 Z" class="st0" style="fill: rgb(156, 240, 214);" transform="matrix(1, 0, 0, 1, -38.42041015625, -499.4653015136719)"/><path d="M 600.5999755859375 679.7999877929688 L 687 499.5 L 687 690.2999877929688 Z" class="st3" style="fill: rgb(127, 240, 205);" transform="matrix(1, 0, 0, 1, -38.42041015625, -499.4653015136719)"/><path d="M 37 499.5 L 284.1000061035156 568.5 L 37 610.7999877929688 Z" class="st4" style="fill: rgb(97, 227, 187);" transform="matrix(1, 0, 0, 1, -38.42041015625, -499.4653015136719)"/><path d="M 284.1000061035156 568.5 L 37 499.5 L 394 499.5 Z" class="st0" style="fill: rgb(156, 240, 214);" transform="matrix(1, 0, 0, 1, -38.42041015625, -499.4653015136719)"/><path d="M 394 499.5 L 284.1000061035156 568.5 L 687 499.5 Z" class="st4" style="fill: rgb(97, 227, 187);" transform="matrix(1, 0, 0, 1, -38.42041015625, -499.4653015136719)"/>

</svg>
