<?xml version="1.0" encoding="utf-8"?>
<svg id="master-artboard" viewBox="0 0 1400 980" version="1.1" xmlns="http://www.w3.org/2000/svg" x="0px" y="0px" style="enable-background:new 0 0 1400 980;" width="1400px" height="980px"><defs><linearGradient id="gradient-0" gradientUnits="userSpaceOnUse" x1="1070.1000061035156" y1="0" x2="1070.1000061035156" y2="980" gradientTransform="matrix(0.9999967613998725, 0.002538952188958646, -0.002529346699617347, 0.9962060416047624, 0.003465625917424961, -2.7169320613669665)">
                <stop offset="0" style="stop-color: #f1f2f2"/>
                <stop offset="1" style="stop-color: rgb(188, 193, 193); stop-opacity: 1;"/>
              </linearGradient><linearGradient id="gradient-1" gradientUnits="userSpaceOnUse" x1="1224.46728515625" y1="-1.239372730255127" x2="1224.46728515625" y2="813.4606323242188">
                <stop offset="0" style="stop-color: #5dd2cc"/>
                <stop offset="1" style="stop-color: #2c9d98"/>
              </linearGradient><linearGradient id="gradient-2" gradientUnits="userSpaceOnUse" x1="1179.8500061035156" y1="0" x2="1179.8500061035156" y2="814.7000122070312">
                <stop offset="0" style="stop-color: #84d1cb"/>
                <stop offset="1" style="stop-color: #41aea5"/>
              </linearGradient><linearGradient id="gradient-3" gradientUnits="userSpaceOnUse" x1="1185.361328125" y1="-6.196842670440674" x2="1185.361328125" y2="973.8031616210938" gradientTransform="matrix(0.9999927979437955, -0.0037891602492430686, 0.0037938743540311863, 1.0012646867344184, 0.03203641189348978, 4.499361247968137)">
                <stop offset="0" style="stop-color: #426ca6"/>
                <stop offset="1" style="stop-color: #253c5d"/>
              </linearGradient></defs>

<g>
	<path d="M 55.900001525878906 944.2000122070312 L 48.599998474121094 951.5 L 63.29999923706055 951.5 Z" class="st0" style="fill: rgb(35, 31, 32);"/>
	<path d="M 56.5 937.0999755859375 L 47.400001525878906 928 L 41.400001525878906 934.0999755859375 L 41.400001525878906 922 L 28.5 909.0999755859375 L 28.5 939.5 L 20 939.5 L 20 951.5 L 42.099998474121094 951.5 Z" class="st0" style="fill: rgb(35, 31, 32);"/>
	<path d="M 23.100000381469727 953.9000244140625 L 22.700000762939453 953.9000244140625 L 20.700000762939453 957.0999755859375 L 20.700000762939453 953.9000244140625 L 20.299999237060547 953.9000244140625 L 20.299999237060547 959.9000244140625 L 20.700000762939453 959.9000244140625 L 20.700000762939453 957.7999877929688 L 21.100000381469727 957.0999755859375 L 22.799999237060547 959.9000244140625 L 23.200000762939453 959.9000244140625 L 21.399999618530273 956.7000122070312 Z" class="st0" style="fill: rgb(35, 31, 32);"/>
	<path class="st0" d="M26.8,953.9l-1.3,6.1h0.4l0.3-1.3H28l0.3,1.3h0.4l-1.4-6.1H26.8z M26.2,958.3l0.9-3.9l0.9,3.9H26.2z" style="fill: rgb(35, 31, 32);"/>
	<path d="M 33.400001525878906 959 L 31.600000381469727 953.9000244140625 L 31.100000381469727 953.9000244140625 L 31.100000381469727 959.9000244140625 L 31.399999618530273 959.9000244140625 L 31.399999618530273 954.5 L 33.29999923706055 959.9000244140625 L 33.79999923706055 959.9000244140625 L 33.79999923706055 953.9000244140625 L 33.400001525878906 953.9000244140625 Z" class="st0" style="fill: rgb(35, 31, 32);"/>
	<path class="st0" d="M37.5,953.8c-0.9,0-1.3,0.7-1.3,1.5v3.1c0,0.9,0.4,1.5,1.3,1.5c0.9,0,1.3-0.7,1.3-1.5v-1.6h-1.2v0.4h0.8v1.3&#10;&#9;&#9;c0,0.7-0.3,1.1-0.9,1.1c-0.7,0-0.9-0.5-0.9-1.1v-3.2c0-0.7,0.3-1.1,0.9-1.1c0.7,0,0.9,0.5,0.9,1.1v0.5h0.4v-0.5&#10;&#9;&#9;C38.8,954.5,38.4,953.8,37.5,953.8z" style="fill: rgb(35, 31, 32);"/>
	<path d="M 44 953.9000244140625 L 43.5 953.9000244140625 L 41.599998474121094 957.0999755859375 L 41.599998474121094 953.9000244140625 L 41.20000076293945 953.9000244140625 L 41.20000076293945 959.9000244140625 L 41.599998474121094 959.9000244140625 L 41.599998474121094 957.7999877929688 L 42 957.0999755859375 L 43.70000076293945 959.9000244140625 L 44.099998474121094 959.9000244140625 L 42.20000076293945 956.7000122070312 Z" class="st0" style="fill: rgb(35, 31, 32);"/>
	<path d="M 46.400002 953.900024 H 46.800002 V 960.000024 H 46.400002 V 953.900024 Z" class="st0" style="fill: rgb(35, 31, 32);"/>
	<path d="M 52 953.9000244140625 L 51.599998474121094 953.9000244140625 L 49.599998474121094 957.0999755859375 L 49.599998474121094 953.9000244140625 L 49.20000076293945 953.9000244140625 L 49.20000076293945 959.9000244140625 L 49.599998474121094 959.9000244140625 L 49.599998474121094 957.7999877929688 L 50.099998474121094 957.0999755859375 L 51.70000076293945 959.9000244140625 L 52.099998474121094 959.9000244140625 L 50.29999923706055 956.7000122070312 Z" class="st0" style="fill: rgb(35, 31, 32);"/>
	<path class="st0" d="M56.6,958.5c0,0.7-0.2,1.2-0.9,1.2c-0.7,0-0.9-0.5-0.9-1.2v-4.6h-0.4v4.6c0,0.9,0.4,1.5,1.3,1.5&#10;&#9;&#9;c0.9,0,1.3-0.7,1.3-1.5v-4.6h-0.4V958.5z" style="fill: rgb(35, 31, 32);"/>
	<path class="st0" d="M62,958.3c0-0.7-0.3-1.1-0.9-1.2c0.6-0.1,0.9-0.5,0.9-1.3v-0.5c0-0.9-0.4-1.4-1.3-1.4h-1.3v6.1h0.4v-2.7h0.6&#10;&#9;&#9;c0.7,0,1.1,0.2,1.1,1v1c0,0.3,0,0.5,0.1,0.7h0.4c-0.1-0.2-0.1-0.5-0.1-0.7V958.3z M59.8,956.9v-2.6h0.9c0.7,0,0.9,0.4,0.9,1v0.6&#10;&#9;&#9;c0,0.8-0.4,1-1.1,1H59.8z" style="fill: rgb(35, 31, 32);"/>
</g>
<linearGradient id="SVGID_1_" gradientUnits="userSpaceOnUse" x1="-9.7293" y1="-32.982" x2="42.5732" y2="87.1413">
	<stop offset="0" style="stop-color:#5DD2CD"/>
	<stop offset="1" style="stop-color:#9FC755"/>
</linearGradient>
<path class="st1" d="M43.4,0H0v78.4C14,51.7,28.5,25.6,43.4,0z" style="fill: url('#SVGID_1_'); fill-opacity: 0.91;"/>
<linearGradient id="SVGID_2_" gradientUnits="userSpaceOnUse" x1="-38.2432" y1="310.8751" x2="420.1872" y2="917.6212">
	<stop offset="0" style="stop-color:#5DD2CD"/>
	<stop offset="1" style="stop-color:#9FC755"/>
</linearGradient>
<path class="st2" d="M43.4,0C28.5,25.6,14,51.7,0,78.4V980h406.9C277.6,702.2,202,320.1,194.2,0H43.4z" style="fill: url('#SVGID_2_');"/>
<linearGradient id="SVGID_3_" gradientUnits="userSpaceOnUse" x1="-38.2432" y1="310.8751" x2="420.1872" y2="917.6212">
	<stop offset="0" style="stop-color:#5DD2CD"/>
	<stop offset="1" style="stop-color:#9FC755"/>
</linearGradient>
<path class="st3" d="M43.4,0C28.5,25.6,14,51.7,0,78.4V980h406.9C277.6,702.2,202,320.1,194.2,0H43.4z" style="fill: url('#SVGID_3_'); fill-opacity: 0.54;"/>
<linearGradient id="SVGID_4_" gradientUnits="userSpaceOnUse" x1="793.6667" y1="-72.7119" x2="798.8367" y2="651.0897">
	<stop offset="0.3367" style="stop-color:#5DD2CD"/>
	<stop offset="0.5561" style="stop-color:#5EB1AD"/>
	<stop offset="1" style="stop-color:#9FC755"/>
</linearGradient>
<path class="st4" d="M194.2,0c7.8,320.1,83.4,702.2,212.7,980H1400V814.7c-99.7-313.1-251.2-613-440.3-814.7H194.2z" style="fill: url('#SVGID_4_'); fill-opacity: 0.84;"/>
<linearGradient id="SVGID_5_" gradientUnits="userSpaceOnUse" x1="1288.3887" y1="1074.8992" x2="1175.374" y2="-44.4836">
	<stop offset="0" style="stop-color:#5DD2CD"/>
	<stop offset="1" style="stop-color:#9FC755"/>
</linearGradient>
<path class="st5" d="M1400,0H959.7c189.1,201.7,340.5,501.5,440.3,814.7V0z" style="fill: url('#gradient-2'); fill-opacity: 0.77;"/>
<path class="st6" d="M1400,732.3C825.2,816.4,348.4,680.7,0,508.3V980h1400V732.3z" style="opacity: 0.28; fill: rgb(241, 242, 242); fill-opacity: 0.88;"/>
<path class="st7" d="M85.8,0c-55,302.3-52.4,640.3-13.4,980H327C262.6,604.5,231.2,219.7,216.3,0H85.8z" style="opacity: 0.13; fill: rgb(241, 242, 242); fill-opacity: 0.79;"/>
<path class="st7" d="M1400,980V0h-243c-15,199.2-85.7,662.3-416.8,980H1400z" style="opacity: 0.13; fill: rgb(66, 108, 166); fill-opacity: 0.59;" transform="matrix(0.9999997615814209, 0, 0, 0.9999997615814209, -2.478684744638599, 0.000043342781339106295)"/>
</svg>