<?xml version="1.0" encoding="utf-8"?>
<svg id="master-artboard" viewBox="0 0 1400 980" version="1.1" xmlns="http://www.w3.org/2000/svg" x="0px" y="0px" style="enable-background:new 0 0 1400 980;" width="1400px" height="980px"><defs><linearGradient id="gradient-0" gradientUnits="userSpaceOnUse" x1="343.58341217041016" y1="-37.97870635986328" x2="343.58341217041016" y2="1077.7034225463867" gradientTransform="matrix(0.012735964256029797, 0.9999189178471382, -0.6112619953045056, 0.0077856196842093495, 618.1943502885027, 106.80920220055629)">
                <stop offset="0" style="stop-color: rgb(192, 207, 190);"/>
                <stop offset="1" style="stop-color: #246b03"/>
              </linearGradient><linearGradient id="gradient-1" gradientUnits="userSpaceOnUse" x1="343.58341217041016" y1="-37.97870635986328" x2="343.58341217041016" y2="1077.7034225463867" gradientTransform="matrix(0.28287347256861783, 0.9591572267837813, -0.8908205587804326, 0.26271941645423746, 582.6366454169377, 154.7370924137671)">
                <stop offset="0" style="stop-color: rgb(69, 206, 6); stop-opacity: 0.09;"/>
                <stop offset="1" style="stop-color: #246b03"/>
              </linearGradient><linearGradient id="gradient-2" gradientUnits="userSpaceOnUse" x1="288.2673797607422" y1="-70.29975128173828" x2="288.2673797607422" y2="1130.4270553588867" gradientTransform="matrix(-0.46118699146024333, 0.8873028668723859, -0.6810228336303114, -0.3539705063699091, 618.9767775975429, 421.5087023226411)">
                <stop offset="0" style="stop-color: rgb(45, 207, 37); stop-opacity: 0.19;"/>
                <stop offset="1" style="stop-color: #1a7815"/>
              </linearGradient><linearGradient id="gradient-3" gradientUnits="userSpaceOnUse" x1="253.8797492980957" y1="-115.9561538696289" x2="253.8797492980957" y2="1074.5449447631836" gradientTransform="matrix(0.9999998974630842, 0, 0, 1.0067872117717167, 0.000050041613026479776, -2.445063778315963)">
                <stop offset="0" style="stop-color: rgb(8, 207, 15); stop-opacity: 0.57;"/>
                <stop offset="1" style="stop-color: rgb(4, 109, 8); stop-opacity: 0.45;"/>
              </linearGradient><linearGradient id="gradient-4" gradientUnits="userSpaceOnUse" x1="1328.9227905273438" y1="-46.05896759033203" x2="1328.9227905273438" y2="1095.1513595581055" gradientTransform="matrix(-0.0148839933416956, -0.9998892390784577, 0.26905640279838083, -0.0040050954737819305, 1207.5699273323519, 1856.2307836948403)">
                <stop offset="0" style="stop-color: rgb(69, 206, 6); stop-opacity: 0.35;"/>
                <stop offset="1" style="stop-color: #043805"/>
              </linearGradient></defs>


<linearGradient id="SVGID_1_" gradientUnits="userSpaceOnUse" x1="-9.7293" y1="-32.982" x2="42.5732" y2="87.1413">
	<stop offset="0" style="stop-color:#5DD2CD"/>
	<stop offset="1" style="stop-color:#9FC755"/>
</linearGradient>

<linearGradient id="SVGID_2_" gradientUnits="userSpaceOnUse" x1="-38.2432" y1="310.8751" x2="420.1872" y2="917.6212">
	<stop offset="0" style="stop-color:#5DD2CD"/>
	<stop offset="1" style="stop-color:#9FC755"/>
</linearGradient>

<linearGradient id="SVGID_3_" gradientUnits="userSpaceOnUse" x1="-38.2432" y1="310.8751" x2="420.1872" y2="917.6212">
	<stop offset="0" style="stop-color:#5DD2CD"/>
	<stop offset="1" style="stop-color:#9FC755"/>
</linearGradient>

<linearGradient id="SVGID_4_" gradientUnits="userSpaceOnUse" x1="793.6667" y1="-72.7119" x2="798.8367" y2="651.0897" gradientTransform="matrix(0.4611252283383247, 0.8873819134585926, -1.432718180134029, 0.7576009593952919, 798.7624564932181, -419.52873699390193)">
	<stop offset="0.2907914545653898" style="stop-color:#5DD2CD"/>
	<stop offset="0.5561" style="stop-color:#5EB1AD"/>
	<stop offset="1" style="stop-color:#9FC755"/>
</linearGradient>

<linearGradient id="SVGID_5_" gradientUnits="userSpaceOnUse" x1="1288.3887" y1="1074.8992" x2="1175.374" y2="-44.4836">
	<stop offset="0" style="stop-color:#5DD2CD"/>
	<stop offset="1" style="stop-color:#9FC755"/>
</linearGradient>




<path d="M 612.2036743164062 -37.97870635986328 C 612.2036743164062 -37.97870635986328 494.2318115234375 130.09072875976562 489.3836669921875 307.8564758300781 C 484.5355224609375 485.6222229003906 668.7655029296875 605.2100219726562 718.8630981445312 728.030029296875 C 768.960693359375 850.8500366210938 722.0951538085938 999.52685546875 688.1580810546875 1057.7047119140625 C 654.2210083007812 1115.882568359375 -22.90489959716797 1028.61572265625 -22.90489959716797 1028.61572265625 L -53.60985565185547 -37.97870635986328" style="fill: url('#gradient-1'); fill-opacity: 0.54; stroke: rgb(0, 0, 0); stroke-opacity: 1; stroke-width: 0; paint-order: stroke;"/><path d="M 463.52685546875 -62.21949005126953 C 463.52685546875 -62.21949005126953 660.6852416992188 235.13409423828125 668.7655029296875 427.4443359375 C 676.8457641601562 619.7545776367188 384.3403015136719 813.6807861328125 374.64398193359375 944.5810546875 C 364.9476623535156 1075.4813232421875 413.4292297363281 1130.427001953125 413.4292297363281 1130.427001953125 L -34.217247009277344 1117.4986572265625 L -92.39512634277344 -70.29975128173828 C -92.39512634277344 -70.29975128173828 465.14288330078125 -67.0676498413086 463.52685546875 -62.21949005126953 Z" style="fill: url('#gradient-2'); fill-opacity: 0.53; stroke: rgb(0, 0, 0); stroke-opacity: 1; stroke-width: 0; paint-order: stroke;"/><path d="M 311.617919921875 -75.14791107177734 C 311.617919921875 -75.14791107177734 403.7329406738281 67.06466674804688 382.7242431640625 236.7501678466797 C 361.7155456542969 406.4356689453125 287.3771667480469 425.82830810546875 285.7611083984375 527.6395874023438 C 284.1450500488281 629.4508666992188 400.5008239746094 774.8955688476562 413.4292297363281 852.466064453125 C 426.3576354980469 930.0365600585938 469.9910583496094 933.2686767578125 461.9107971191406 1018.91943359375 C 453.8305358886719 1104.5701904296875 269.6005859375 1065.784912109375 269.6005859375 1065.784912109375 C 269.6005859375 1065.784912109375 326.1623840332031 1041.544189453125 287.37713623046875 917.108154296875 C 248.59188842773438 792.672119140625 98.29902648925781 744.1906127929688 91.83482360839844 587.4335327148438 C 85.37062072753906 430.67645263671875 185.5658416748047 448.4530029296875 216.27084350585938 338.56146240234375 C 246.97584533691406 228.669921875 86.98666381835938 123.62651824951172 65.97798919677734 20.199172973632812 C 44.96931457519531 -83.2281723022461 51.43351745605469 -101.0047378540039 44.96931076049805 -113.93315887451172 C 38.505104064941406 -126.86157989501953 316.4660949707031 -73.53185272216797 311.617919921875 -75.14791107177734 Z" style="fill: url('#gradient-3'); fill-opacity: 0.49; stroke: rgb(0, 0, 0); stroke-opacity: 1; stroke-width: 0; paint-order: fill;"/><path d="M 232.43136596679688 -68.68370056152344 C 232.43136596679688 -68.68370056152344 109.52841186523438 142.3563232421875 109.52841186523438 291.0331115722656 C 109.52841186523438 439.70989990234375 383.0529479980469 501.99407958984375 410.08119201660156 666.968017578125 C 437.1094055175781 831.9419555664062 214.65480041503906 918.7242431640625 133.85218811035156 1026.999755859375 C 53.04957580566406 1135.2752685546875 -39.06540298461914 1075.4813232421875 -39.06540298461914 1075.4813232421875 L -61.69013595581055 -78.38001251220703 L 232.43136596679688 -68.68370056152344 Z" style="fill: rgb(12, 150, 14); fill-opacity: 0.36; stroke: rgb(0, 0, 0); stroke-opacity: 1; stroke-width: 0; paint-order: stroke;" transform="matrix(0.9112178151539984, 0, 0, 0.9112178151539984, -5.4769850536037445, 44.99351983621563)"/><path d="M 1281.249267578125 -46.05896759033203 C 1281.249267578125 -46.05896759033203 1195.5985107421875 96.15362548828125 1189.13427734375 259.3749084472656 C 1182.6700439453125 422.59619140625 1307.106201171875 527.6396484375 1310.3382568359375 652.0756225585938 C 1313.5703125 776.5115966796875 1171.357666015625 933.268798828125 1171.357666015625 1038.3121337890625 C 1171.357666015625 1143.35546875 1486.4879150390625 1070.6331787109375 1486.4879150390625 1070.6331787109375 C 1486.4879150390625 1070.6331787109375 1486.4879150390625 -13.737924575805664 1486.4879150390625 -15.353976249694824 C 1486.4879150390625 -16.970027923583984 1286.097412109375 -46.05896759033203 1281.249267578125 -46.05896759033203 Z" style="fill: url('#gradient-4'); fill-opacity: 0.36; stroke: rgb(0, 0, 0); stroke-opacity: 1; stroke-width: 0; paint-order: fill;"/><path d="M 1111.5638427734375 -71.91580200195312 C 1111.5638427734375 -71.91580200195312 1139.0367431640625 50.90416717529297 1184.2861328125 110.6980972290039 C 1229.5355224609375 170.49202728271484 1278.0172119140625 230.2859649658203 1481.6397705078125 241.59832763671875 C 1685.2623291015625 252.9106903076172 1473.5594482421875 -88.07632446289062 1473.5594482421875 -88.07632446289062 L 1111.5638427734375 -71.91580200195312 Z" style="fill: rgb(69, 206, 6); fill-opacity: 0.54; stroke: rgb(0, 0, 0); stroke-opacity: 1; stroke-width: 0; paint-order: stroke;" transform="matrix(1, 0, 0, 1, 1.6160522385508784, 0)"/><path d="M 1473.5594482421875 824.9931640625 C 1473.5594482421875 824.9931640625 1260.24072265625 800.7523803710938 1160.04541015625 912.260009765625 C 1059.85009765625 1023.7676391601562 1058.2340087890625 1104.5701904296875 1058.2340087890625 1104.5701904296875 L 1502.6484375 1086.793701171875 L 1473.5594482421875 824.9931640625 Z" style="fill: rgb(12, 150, 14); fill-opacity: 0.52; stroke: rgb(0, 0, 0); stroke-opacity: 1; stroke-width: 0; paint-order: stroke;"/><path d="M -98.85933685302734 606.8261108398438 C -98.85933685302734 606.8261108398438 -102.09143829345703 590.6656494140625 -50.377769470214844 603.5940551757812 C 1.3358993530273438 616.5224609375 64.36194610595703 656.9237670898438 69.21009826660156 734.4942626953125 C 74.0582504272461 812.0647583007812 2.9519500732421875 931.6526489257812 -71.3864517211914 931.6526489257812 C -145.724853515625 931.6526489257812 -103.7074966430664 606.8261108398438 -98.85933685302734 606.8261108398438 Z" style="fill: rgb(12, 150, 14); fill-opacity: 0.52; stroke: rgb(0, 0, 0); stroke-opacity: 1; stroke-width: 0; paint-order: fill;"/><path d="M 1543.0496826171875 340.1775207519531 C 1543.0496826171875 340.1775207519531 1344.275390625 348.25775146484375 1342.6593017578125 475.9259033203125 C 1341.043212890625 603.5940551757812 1560.8262939453125 663.387939453125 1560.8262939453125 663.387939453125 L 1543.0496826171875 340.1775207519531 Z" style="fill: rgb(12, 150, 14); fill-opacity: 0.31; stroke: rgb(0, 0, 0); stroke-opacity: 1; stroke-width: 0; paint-order: fill;"/></svg>