<?xml version="1.0" encoding="utf-8"?>
<svg id="master-artboard" viewBox="0 0 1400 980" version="1.1" xmlns="http://www.w3.org/2000/svg" x="0px" y="0px" style="enable-background:new 0 0 1400 980;" width="1400px" height="980px"><defs><linearGradient id="gradient-0" gradientUnits="userSpaceOnUse" x1="343.58341217041016" y1="-37.97870635986328" x2="343.58341217041016" y2="1077.7034225463867" gradientTransform="matrix(0.012735964256029797, 0.9999189178471382, -0.6112619953045056, 0.0077856196842093495, 618.1943502885027, 106.80920220055629)">
                <stop offset="0" style="stop-color: rgb(192, 207, 190);"/>
                <stop offset="1" style="stop-color: #246b03"/>
              </linearGradient><linearGradient id="gradient-1" gradientUnits="userSpaceOnUse" x1="343.58341217041016" y1="-37.97870635986328" x2="343.58341217041016" y2="1077.7034225463867" gradientTransform="matrix(0.28287347256861783, 0.9591572267837813, -0.8908205587804326, 0.26271941645423746, 582.6366454169377, 154.7370924137671)">
                <stop offset="0" style="stop-color: rgb(69, 206, 6); stop-opacity: 0.09;"/>
                <stop offset="1" style="stop-color: #246b03"/>
              </linearGradient><linearGradient id="gradient-2" gradientUnits="userSpaceOnUse" x1="288.2673797607422" y1="-70.29975128173828" x2="288.2673797607422" y2="1130.4270553588867" gradientTransform="matrix(-0.46118699146024333, 0.8873028668723859, -0.6810228336303114, -0.3539705063699091, 618.9767775975429, 421.5087023226411)">
                <stop offset="0" style="stop-color: rgb(45, 207, 37); stop-opacity: 0.19;"/>
                <stop offset="1" style="stop-color: #1a7815"/>
              </linearGradient><linearGradient id="gradient-3" gradientUnits="userSpaceOnUse" x1="253.8797492980957" y1="-115.9561538696289" x2="253.8797492980957" y2="1074.5449447631836" gradientTransform="matrix(0.9999998974630842, 0, 0, 1.0067872117717167, 0.000050041613026479776, -2.445063778315963)">
                <stop offset="0" style="stop-color: rgb(8, 207, 15); stop-opacity: 0.57;"/>
                <stop offset="1" style="stop-color: rgb(4, 109, 8); stop-opacity: 0.45;"/>
              </linearGradient><linearGradient id="gradient-4" gradientUnits="userSpaceOnUse" x1="1328.9227905273438" y1="-46.05896759033203" x2="1328.9227905273438" y2="1095.1513595581055" gradientTransform="matrix(-0.0148839933416956, -0.9998892390784577, 0.26905640279838083, -0.0040050954737819305, 1207.5699273323519, 1856.2307836948403)">
                <stop offset="0" style="stop-color: rgb(69, 206, 6); stop-opacity: 0.35;"/>
                <stop offset="1" style="stop-color: #043805"/>
              </linearGradient><linearGradient id="gradient-5" gradientUnits="userSpaceOnUse" x1="735.5843048095703" y1="147.52674865722656" x2="735.5843048095703" y2="1103.5614166259766" gradientTransform="matrix(0.20515093606001888, 0.9787305076053083, -0.5355770202352467, 0.11226190118624532, 380.3200215573315, -297.1861831739507)">
                <stop offset="0" style="stop-color: #45ce06"/>
                <stop offset="1" style="stop-color: rgb(36, 107, 3); stop-opacity: 0.32;"/>
              </linearGradient><linearGradient id="gradient-6" gradientUnits="userSpaceOnUse" x1="684.6074829101562" y1="516.7153930664062" x2="684.6074829101562" y2="978.5377807617188" gradientTransform="matrix(-0.005769654266261461, 0.9999831737344818, -3.048978333244457, -0.017591667539787307, 2984.713280793219, 42.8654701941035)">
                <stop offset="0" style="stop-color: #45ce06"/>
                <stop offset="1" style="stop-color: rgb(63, 187, 5); stop-opacity: 0.43;"/>
              </linearGradient></defs>


<linearGradient id="SVGID_1_" gradientUnits="userSpaceOnUse" x1="-9.7293" y1="-32.982" x2="42.5732" y2="87.1413">
	<stop offset="0" style="stop-color:#5DD2CD"/>
	<stop offset="1" style="stop-color:#9FC755"/>
</linearGradient>

<linearGradient id="SVGID_2_" gradientUnits="userSpaceOnUse" x1="-38.2432" y1="310.8751" x2="420.1872" y2="917.6212">
	<stop offset="0" style="stop-color:#5DD2CD"/>
	<stop offset="1" style="stop-color:#9FC755"/>
</linearGradient>

<linearGradient id="SVGID_3_" gradientUnits="userSpaceOnUse" x1="-38.2432" y1="310.8751" x2="420.1872" y2="917.6212">
	<stop offset="0" style="stop-color:#5DD2CD"/>
	<stop offset="1" style="stop-color:#9FC755"/>
</linearGradient>

<linearGradient id="SVGID_4_" gradientUnits="userSpaceOnUse" x1="793.6667" y1="-72.7119" x2="798.8367" y2="651.0897" gradientTransform="matrix(0.4611252283383247, 0.8873819134585926, -1.432718180134029, 0.7576009593952919, 798.7624564932181, -419.52873699390193)">
	<stop offset="0.2907914545653898" style="stop-color:#5DD2CD"/>
	<stop offset="0.5561" style="stop-color:#5EB1AD"/>
	<stop offset="1" style="stop-color:#9FC755"/>
</linearGradient>

<linearGradient id="SVGID_5_" gradientUnits="userSpaceOnUse" x1="1288.3887" y1="1074.8992" x2="1175.374" y2="-44.4836">
	<stop offset="0" style="stop-color:#5DD2CD"/>
	<stop offset="1" style="stop-color:#9FC755"/>
</linearGradient>




<path d="M 237.10601806640625 497.07574462890625" style="fill: rgb(69, 206, 6); fill-opacity: 0.12; stroke: rgb(69, 206, 6); stroke-opacity: 1; stroke-width: 2; paint-order: stroke;"/><path d="M -219.33836364746094 180.03721618652344 C -219.33836364746094 180.03721618652344 -228.1060333251953 144.96656799316406 -156.21121215820312 151.98069763183594 C -84.31639099121094 158.9948272705078 129.61456298828125 230.8896484375 375.10906982421875 425.53173828125 C 620.6035766601562 620.173828125 874.8657836914062 604.3920288085938 985.3382568359375 560.5537109375 C 1095.8107299804688 516.7153930664062 1236.093505859375 360.6510009765625 1467.5596923828125 378.18634033203125 C 1699.02587890625 395.7216796875 1767.4136962890625 409.74993896484375 1767.4136962890625 409.74993896484375 L 1728.8359375 711.3574829101562 L 1679.737060546875 1135.7122802734375 C 1679.737060546875 1135.7122802734375 1441.256591796875 1104.148681640625 1202.7762451171875 932.3025512695312 C 964.2958984375 760.4564208984375 867.8515930175781 672.7797241210938 685.4842529296875 655.2444458007812 C 503.1169128417969 637.7091674804688 369.84844970703125 667.5191650390625 252.36180114746094 748.181640625 C 134.87515258789062 828.8441162109375 -3.6539154052734375 951.5913696289062 -96.59111785888672 937.5631103515625 C -189.5283203125 923.5348510742188 -217.5848388671875 181.79074096679688 -219.33836364746094 180.03721618652344 Z" style="fill: rgb(69, 206, 6); fill-opacity: 0.07; stroke: rgb(69, 206, 6); stroke-opacity: 0.8; stroke-width: 2; paint-order: stroke;"/><path d="M -300.0008544921875 576.3355102539062 C -300.0008544921875 576.3355102539062 -417.4875030517578 451.834716796875 -340.3320770263672 465.86297607421875 C -263.17665100097656 479.8912353515625 -254.40903282165527 555.2930297851562 -128.15470185875893 606.1455078125 C -1.9003849029541016 656.9979858398438 161.17813110351562 558.8001708984375 297.9536437988281 551.7860107421875 C 434.7291564941406 544.7718505859375 510.1309814453125 564.060791015625 662.6882934570312 607.8991088867188 C 815.24560546875 651.7374267578125 988.8453369140625 700.8363647460938 1165.9521484375 678.0404052734375 C 1343.0589599609375 655.2444458007812 1420.21435546875 586.856689453125 1497.3697509765625 543.0183715820312 C 1574.525146484375 499.1800537109375 1669.2158203125 516.7153930664062 1669.2158203125 516.7153930664062 L 1651.6805419921875 865.6683349609375 C 1651.6805419921875 865.6683349609375 1648.17333984375 776.2382202148438 1465.8060302734375 792.0199584960938 C 1283.438720703125 807.8016967773438 1106.33203125 767.4705810546875 959.0352783203125 718.3716430664062 C 811.738525390625 669.272705078125 715.2943115234375 609.6526489257812 508.37750244140625 642.9697265625 C 301.460693359375 676.2868041992188 62.980313301086426 958.6055908203125 -49.24574375152588 977.8944091796875 C -161.47180461883545 997.1832275390625 -296.4937744140625 576.3355102539062 -300.0008544921875 576.3355102539062 Z" style="fill: url('#gradient-6'); fill-opacity: 0.13; stroke: rgb(69, 206, 6); stroke-opacity: 0.8; stroke-width: 2; paint-order: fill;"/><path d="M -463.079345703125 209.84725952148438 C -463.079345703125 209.84725952148438 -470.0935363769531 78.33233642578125 -357.867431640625 183.54425048828125 C -245.64132690429688 288.75616455078125 -96.59112548828125 285.2491455078125 87.52976989746094 337.8551330566406 C 271.6506652832031 390.46112060546875 317.24249267578125 457.09527587890625 445.2503356933594 509.7012634277344 C 573.2581787109375 562.3072509765625 615.3429565429688 595.6243896484375 804.7244262695312 607.8991088867188 C 994.1058959960938 620.173828125 1160.6915283203125 581.5960693359375 1299.220703125 527.2366027832031 C 1437.7498779296875 472.8770751953125 1564.892578125 367.7514953613281 1769.1671142578125 416.7640380859375 C 1973.441650390625 465.7765808105469 1753.385498046875 951.5914306640625 1753.385498046875 951.5914306640625 C 1753.385498046875 951.5914306640625 1606.0887451171875 1002.44384765625 1548.22216796875 988.4155883789062 C 1490.3555908203125 974.3873291015625 1421.9678955078125 990.169189453125 1267.656982421875 895.4783935546875 C 1113.3460693359375 800.78759765625 787.1890869140625 642.9697875976562 688.9913330078125 623.680908203125 C 590.7935791015625 604.3920288085938 594.3005981445312 604.3920288085938 443.4967956542969 614.9132080078125 C 292.6929931640625 625.4343872070312 78.76211547851562 700.8362426757812 -50.99927520751953 832.3511962890625 C -180.7606658935547 963.8661499023438 -324.55029296875 913.013671875 -324.55029296875 913.013671875 L -463.079345703125 209.84725952148438 Z" style="fill: rgb(69, 206, 6); fill-opacity: 0; stroke: rgb(69, 206, 6); stroke-opacity: 0.8; stroke-width: 2; paint-order: stroke;"/><path d="M -326.3038330078125 190.55841064453125 C -326.3038330078125 190.55841064453125 -239.6853790283203 126.46983337402344 -49.19737243652344 182.87107849121094 C 141.29063415527344 239.27232360839844 220.365966796875 431.14068603515625 333.2312927246094 522.3726806640625 C 446.09661865234375 613.6046752929688 582.4994506835938 651.7820434570312 687.7113647460938 655.2891235351562" style="fill: rgb(69, 206, 6); fill-opacity: 0; stroke: rgb(69, 206, 6); stroke-opacity: 0.8; stroke-width: 2; paint-order: fill;"/><path d="M -222.53001403808594 318.9461669921875 C -222.53001403808594 318.9461669921875 -355.87300872802734 280.84815979003906 -197.61978149414062 263.26446533203125 C -39.366554260253906 245.68077087402344 -33.50537109375 399.5380859375 143.79689025878906 518.22802734375 C 321.0991516113281 636.91796875 435.39312744140625 657.4322509765625 625.8831176757812 653.0363159179688 C 816.3731079101562 648.640380859375 851.5404052734375 631.0567016601562 996.60595703125 557.7913208007812 C 1141.6715087890625 484.52593994140625 1371.7247314453125 373.1624755859375 1515.3248291015625 446.4278869628906 C 1658.9249267578125 519.6932983398438 1909.49267578125 453.75445556640625 1909.49267578125 453.75445556640625" style="fill: rgb(69, 206, 6); fill-opacity: 0; stroke: rgb(69, 206, 6); stroke-opacity: 1; stroke-width: 2; paint-order: stroke;"/><path d="M -250.370849609375 206.1174774169922 C -250.370849609375 206.1174774169922 -358.8036003112793 200.25624084472656 -196.1544647216797 192.92970275878906 C -33.50532913208008 185.60316467285156 63.204986572265625 340.92578125 162.8459014892578 443.497314453125 C 262.48681640625 546.06884765625 433.92779541015625 651.5709838867188 659.585205078125 653.0363159179688 C 885.2426147460938 654.5016479492188 1046.4263916015625 573.90966796875 1170.9775390625 553.3953857421875 C 1295.5286865234375 532.881103515625 1386.3778076171875 537.2769775390625 1519.7208251953125 559.256591796875" style="fill: rgb(69, 206, 6); fill-opacity: 0; stroke: rgb(69, 206, 6); stroke-opacity: 1; stroke-width: 2; paint-order: fill;"/><path d="M -240.1136932373047 125.52555084228516 C -240.1136932373047 125.52555084228516 -266.4892272949219 91.82347869873047 -184.4320068359375 94.75408935546875 C -102.37478637695312 97.68470001220703 55.878448486328125 113.8031005859375 239.04190063476562 254.47262573242188 C 422.2053527832031 395.14215087890625 549.6871948242188 570.97900390625 712.3363037109375 581.2362060546875 C 874.9854125976562 591.493408203125 955.577392578125 503.5749206542969 1012.724365234375 456.6850891113281 C 1069.871337890625 409.7952575683594 1250.10400390625 245.68081665039062 1403.96142578125 248.61141967773438 C 1557.81884765625 251.54202270507812 1491.8797607421875 156.29698944091797 1503.602294921875 91.8234634399414 C 1515.3248291015625 27.349937438964844 1575.4024658203125 102.08062744140625 1576.8677978515625 100.61531829833984 C 1578.3331298828125 99.15000915527344 1544.6309814453125 946.0978393554688 1544.6309814453125 946.0978393554688 C 1544.6309814453125 946.0978393554688 1655.994384765625 971.008056640625 1480.157470703125 909.4651489257812 C 1304.320556640625 847.9222412109375 1263.2918701171875 771.7262573242188 1071.336669921875 718.9751586914062 C 879.3814697265625 666.2240600585938 781.2057495117188 658.8975219726562 666.9117431640625 653.0363159179688 C 552.6177368164062 647.1751098632812 469.0952453613281 560.7218627929688 381.1767578125 516.7626342773438 C 293.2582702636719 472.80340576171875 200.94390869140625 469.8729248046875 80.7886734008789 499.1790771484375 C -39.36656188964844 528.4852294921875 -140.47276306152344 657.4323120117188 -213.73814392089844 692.5996704101562 C -287.00352478027344 727.7670288085938 -240.1136932373047 122.59493255615234 -240.1136932373047 125.52555084228516 Z" style="fill: rgb(69, 206, 6); fill-opacity: 0.08; stroke: rgb(69, 206, 6); stroke-opacity: 0.5; stroke-width: 2; paint-order: stroke;"/><path d="M 1717.2515869140625 326.75579833984375 C 1717.2515869140625 326.75579833984375 1615.229248046875 324.1058654785156 1527.7813720703125 313.5061340332031 C 1440.33349609375 302.9064025878906 1336.6214599609375 294.25152587890625 1230.2188720703125 340.69012451171875 C 1123.8162841796875 387.12872314453125 1040.0623779296875 492.6108093261719 931.2639770507812 551.784423828125 C 822.465576171875 610.9580383300781 722.4559936523438 591.0631713867188 639.4063110351562 564.2540893554688" style="fill: rgb(69, 206, 6); fill-opacity: 0; stroke: rgb(69, 206, 6); stroke-opacity: 0.8; stroke-width: 2; paint-order: fill;"/></svg>