<?xml version="1.0" encoding="utf-8"?>
<svg id="master-artboard" viewBox="0 0 1400 980" version="1.1" xmlns="http://www.w3.org/2000/svg" x="0px" y="0px" style="enable-background:new 0 0 1400 980;" width="1400px" height="980px">


<linearGradient id="SVGID_1_" gradientUnits="userSpaceOnUse" x1="-9.7293" y1="-32.982" x2="42.5732" y2="87.1413">
	<stop offset="0" style="stop-color:#5DD2CD"/>
	<stop offset="1" style="stop-color:#9FC755"/>
</linearGradient>

<linearGradient id="SVGID_2_" gradientUnits="userSpaceOnUse" x1="-38.2432" y1="310.8751" x2="420.1872" y2="917.6212">
	<stop offset="0" style="stop-color:#5DD2CD"/>
	<stop offset="1" style="stop-color:#9FC755"/>
</linearGradient>

<linearGradient id="SVGID_3_" gradientUnits="userSpaceOnUse" x1="-38.2432" y1="310.8751" x2="420.1872" y2="917.6212">
	<stop offset="0" style="stop-color:#5DD2CD"/>
	<stop offset="1" style="stop-color:#9FC755"/>
</linearGradient>

<linearGradient id="SVGID_4_" gradientUnits="userSpaceOnUse" x1="793.6667" y1="-72.7119" x2="798.8367" y2="651.0897">
	<stop offset="0.3367" style="stop-color:#5DD2CD"/>
	<stop offset="0.5561" style="stop-color:#5EB1AD"/>
	<stop offset="1" style="stop-color:#9FC755"/>
</linearGradient>

<linearGradient id="SVGID_5_" gradientUnits="userSpaceOnUse" x1="1288.3887" y1="1074.8992" x2="1175.374" y2="-44.4836">
	<stop offset="0" style="stop-color:#5DD2CD"/>
	<stop offset="1" style="stop-color:#9FC755"/>
</linearGradient>




<path d="M 486.7467041015625 -157.00399780273438 C 486.7467041015625 -157.00399780273438 497.712890625 -125.93318939208984 492.22979736328125 -76.5854263305664 C 486.7467041015625 -27.23766326904297 369.7742004394531 133.5994873046875 362.46343994140625 327.33514404296875 C 355.1526794433594 521.07080078125 515.9898681640625 678.2525634765625 545.2329711914062 853.7113037109375 C 574.47607421875 1029.1700439453125 563.5098266601562 1089.48388671875 552.543701171875 1142.487060546875 C 541.5775756835938 1195.490234375 -78.01102447509766 1186.351806640625 -78.01102447509766 1186.351806640625 C -78.01102447509766 1186.351806640625 -78.01102447509766 36.73166275024414 -78.01102447509766 33.076271057128906 C -78.01102447509766 29.420879364013672 -67.04485321044922 -113.13932800292969 -67.04485321044922 -113.13932800292969 C -67.04485321044922 -113.13932800292969 484.91900634765625 -162.48709106445312 486.7467041015625 -157.00399780273438 Z" style="fill: rgb(66, 204, 0); fill-opacity: 0.08; stroke: rgb(0, 0, 0); stroke-opacity: 1; stroke-width: 0; paint-order: stroke;"/><path d="M 1237.9293212890625 -193.5579071044922 C 1237.9293212890625 -193.5579071044922 996.673583984375 71.45782470703125 991.1904907226562 349.2674865722656 C 985.7073974609375 627.0771484375 1236.1015625 844.5728759765625 1230.6185302734375 1016.3761596679688 C 1225.135498046875 1188.179443359375 1579.708251953125 1171.730224609375 1579.708251953125 1171.730224609375 C 1579.708251953125 1171.730224609375 1519.394287109375 -109.48393249511719 1517.566650390625 -109.48393249511719 C 1515.739013671875 -109.48393249511719 1243.412353515625 -186.2471160888672 1237.9293212890625 -193.5579071044922 Z" style="fill: rgb(66, 204, 0); fill-opacity: 0.09; stroke: rgb(0, 0, 0); stroke-opacity: 1; stroke-width: 0; paint-order: fill;" transform="matrix(1, 0, 0, 1, -31.070813777592775, 20.104644249271047)"/><path d="M -469.1377410888672 170.15339279174805 C -469.1377410888672 170.15339279174805 -359.4760437011719 -32.72078323364258 -255.29742431640625 12.971607208251953 C -151.11880493164062 58.663997650146484 192.4878387451172 204.87960815429688 194.31552124023438 449.7907409667969 C 196.14320373535156 694.7018737792969 7.890634536743164 967.0283203125 13.373720169067383 1076.6900634765625 C 18.8568058013916 1186.351806640625 -269.9190368652344 1199.145751953125 -271.7467041015625 1197.3179931640625 C -273.5743713378906 1195.490234375 -467.31005096435547 164.67031478881836 -469.1377410888672 170.15339279174805 Z" style="fill: rgb(66, 204, 0); fill-opacity: 0.19; stroke: rgb(0, 0, 0); stroke-opacity: 1; stroke-width: 0; paint-order: fill;"/><path d="M -167.56808471679688 263.3658447265625 C -167.56808471679688 263.3658447265625 -180.3619384765625 224.9842529296875 -103.5987548828125 276.1596984863281 C -26.8355712890625 327.33514404296875 203.45401000976562 418.7198486328125 298.494140625 594.1785888671875 C 393.5342712402344 769.6373291015625 408.15582275390625 882.9544677734375 422.7773742675781 1078.517822265625 C 437.39892578125 1274.0811767578125 386.2234802246094 1169.9024658203125 386.2234802246094 1169.9024658203125 C 386.2234802246094 1169.9024658203125 399.017333984375 1253.9765014648438 380.7403869628906 1034.653076171875 C 362.46343994140625 815.3296508789062 316.77101135253906 689.21875 278.389404296875 605.1447143554688 C 240.00779724121094 521.0706787109375 91.96459197998047 385.8214111328125 -105.42645263671875 332.8182373046875 C -302.81749725341797 279.8150634765625 -167.56808471679688 261.53814697265625 -167.56808471679688 263.3658447265625 Z" style="fill: rgb(66, 204, 0); fill-opacity: 0.32; stroke: rgb(0, 0, 0); stroke-opacity: 1; stroke-width: 0; paint-order: stroke;" transform="matrix(1, 0, 0, 1, -31.070813777592775, 20.104644249271047)"/><path d="M 1682.0592041015625 65.97477722167969 C 1682.0592041015625 65.97477722167969 1658.2991943359375 56.8363037109375 1574.2252197265625 67.80247497558594 C 1490.1512451171875 78.76864624023438 1280.0025634765625 85.78988647460938 1278.138671875 237.77810668945312 C 1276.2747802734375 389.7663269042969 1363.6755903115027 401.7738688189484 1400.5941162109375 594.1785888671875 C 1437.5126953125 786.5833129882812 1680.2314453125 760.4988403320312 1680.2314453125 760.4988403320312 L 1682.0592041015625 65.97477722167969 Z" style="fill: rgb(66, 204, 0); fill-opacity: 0.32; stroke: rgb(0, 0, 0); stroke-opacity: 1; stroke-width: 0; paint-order: stroke;"/></svg>