<?xml version="1.0" encoding="UTF-8" standalone="no"?>
<svg
   xmlns:dc="http://purl.org/dc/elements/1.1/"
   xmlns:cc="http://creativecommons.org/ns#"
   xmlns:rdf="http://www.w3.org/1999/02/22-rdf-syntax-ns#"
   xmlns:svg="http://www.w3.org/2000/svg"
   xmlns="http://www.w3.org/2000/svg"
   viewBox="0 0 3733.3333 3733.3333"
   xml:space="preserve"
   id="svg2"
   version="1.1"><metadata
     id="metadata8"><rdf:RDF><cc:Work
         rdf:about=""><dc:format>image/svg+xml</dc:format><dc:type
           rdf:resource="http://purl.org/dc/dcmitype/StillImage" /></cc:Work></rdf:RDF></metadata><defs
     id="defs6"><clipPath
       id="clipPath20"
       clipPathUnits="userSpaceOnUse"><path
         id="path18"
         d="M 0,0 H 2800 V 2800 H 0 Z" /></clipPath><clipPath
       id="clipPath48"
       clipPathUnits="userSpaceOnUse"><path
         id="path46"
         d="M 0,2800 H 2800 V 0 H 0 Z" /></clipPath></defs><g
     transform="matrix(1.3333333,0,0,-1.3333333,0,3733.3333)"
     id="g10"><path
       id="path12"
       style="fill:#d4f1da;fill-opacity:1;fill-rule:nonzero;stroke:none"
       d="M 0,0 H 2800 V 2800 H 0 Z" /><g
       id="g14"><g
         clip-path="url(#clipPath20)"
         id="g16"><g
           transform="translate(737.2706,2028.8807)"
           id="g22"><path
             id="path24"
             style="fill:#d5e4a7;fill-opacity:1;fill-rule:nonzero;stroke:none"
             d="m 0,0 c 164.35,-77.434 291.96,-239.001 472.112,-262.501 184.787,-24.105 349.572,105.176 522.7,174.126 101.5,40.424 211.878,60.764 320.724,51.33 170.903,-14.813 326.093,-100.292 483.83,-167.721 157.737,-67.429 336.963,-118.072 498.78,-61.125 -1.111,-267.187 20.739,-534.466 65.231,-797.926 -118.89,-33.532 -228.851,-92.148 -339.803,-146.45 -496.954,-243.222 -1035.918,-407.252 -1587.632,-448.852 -104.239,-7.86 -211.911,-10.918 -310.191,24.699 -105.224,38.134 -189.649,116.753 -280.875,181.589 -166.271,118.171 -364.463,196.514 -500.102,348.87 -173.856,195.283 -220.713,486.55 -217.827,740.065 2.628,230.797 180.102,323.372 384.552,383.837 C -329.747,66.892 -152.375,71.792 0,0" /></g><g
           transform="translate(428.901,1639.0812)"
           id="g26"><path
             id="path28"
             style="fill:#9cdcb7;fill-opacity:1;fill-rule:nonzero;stroke:none"
             d="m 0,0 c 183.033,-70.523 367.318,-160.306 563.353,-153.622 217.882,7.429 422.585,134.423 640.063,119.222 236.839,-16.554 447.228,-199.923 683.642,-178.127 76.264,7.032 148.647,35.363 222.095,57.063 144.459,42.681 296.33,60.146 446.705,51.372 -26.452,-244.168 -41.49,-489.573 -45.047,-735.145 -420.58,-72.95 -801.589,-297.795 -1219.478,-384.846 -109.93,-22.899 -223.591,-36.077 -334.478,-18.389 -98.371,15.692 -191.109,55.043 -283.861,91.377 -391.225,153.253 -801.456,257.917 -1218.282,310.827 -28.744,3.649 -61.788,9.793 -75.795,35.157 -9.032,16.355 -7.29,36.303 -5.122,54.859 15.372,131.559 39.444,261.933 54.706,393.504 12.809,110.429 -3.358,229.516 15.785,337.738 C -518.874,189.256 -119.294,45.964 0,0" /></g><g
           transform="translate(1472.7162,1004.4711)"
           id="g30"><path
             id="path32"
             style="fill:#9fdecd;fill-opacity:1;fill-rule:nonzero;stroke:none"
             d="m 0,0 c 70.935,-31.462 143,-63.406 219.884,-73.921 166.238,-22.735 327.193,56.443 479.666,126.471 239.041,109.787 495.586,203.712 758.121,187.301 -4.751,-218.842 7.75,-438.056 37.351,-654.939 -369.514,-212.832 -786.28,-331.754 -1205.965,-407.274 -152.835,-27.502 -307.525,-49.572 -462.778,-46.143 -213.41,4.714 -422.501,57.38 -629.441,109.742 l -830.939,210.254 c -21.961,5.557 19.822,510.302 22.775,559.753 5.566,93.209 12.015,186.365 19.345,279.452 3.958,50.265 -9.695,193.88 30.149,231.084 41.214,38.483 175.629,-16.953 225.129,-28.883 88.567,-21.347 176.422,-45.596 263.566,-72.149 170.271,-51.884 337.723,-112.644 503.165,-178.223 C -378.002,166.431 -188.744,83.714 0,0" /></g><g
           transform="translate(3048.1658,952.4738)"
           id="g34"><path
             id="path36"
             style="fill:#89cca6;fill-opacity:1;fill-rule:nonzero;stroke:none"
             d="m 0,0 c 58.94,-368.851 116.636,-755.012 -2.629,-1108.99 -1058.312,-212.465 -2151.775,-81.368 -3223.131,50.397 18.047,301.752 42.382,603.128 72.985,903.866 55.542,22.05 121.684,15.857 176.61,-7.685 54.925,-23.543 103.309,-59.677 153.519,-92.081 238.207,-153.735 536.884,-225.512 811.957,-156.869 271.524,67.756 505.845,264.381 784.759,287.253 222.439,18.241 445.524,-77.83 665.788,-41.832 69.518,11.362 136.181,35.605 202.365,59.721 C -234.212,-61.196 -123.565,-45.024 0,0" /></g></g></g>

           </g></svg>
