<?xml version="1.0" encoding="UTF-8" standalone="no"?>
<svg
   xmlns:dc="http://purl.org/dc/elements/1.1/"
   xmlns:cc="http://creativecommons.org/ns#"
   xmlns:rdf="http://www.w3.org/1999/02/22-rdf-syntax-ns#"
   xmlns:svg="http://www.w3.org/2000/svg"
   xmlns="http://www.w3.org/2000/svg"
   viewBox="0 0 2560 2560"
   height="2560"
   width="2560"
   xml:space="preserve"
   id="svg2"
   version="1.1"><metadata
     id="metadata8"><rdf:RDF><cc:Work
         rdf:about=""><dc:format>image/svg+xml</dc:format><dc:type
           rdf:resource="http://purl.org/dc/dcmitype/StillImage" /></cc:Work></rdf:RDF></metadata><defs
     id="defs6"><radialGradient
       id="radialGradient30"
       spreadMethod="pad"
       gradientTransform="matrix(959.99731,0,0,-959.99731,1273.2173,448.19519)"
       gradientUnits="userSpaceOnUse"
       r="1"
       cy="0"
       cx="0"
       fy="0"
       fx="0"><stop
         id="stop24"
         offset="0"
         style="stop-opacity:1;stop-color:#ffffff" /><stop
         id="stop26"
         offset="0.352185"
         style="stop-opacity:1;stop-color:#fffced" /><stop
         id="stop28"
         offset="1"
         style="stop-opacity:1;stop-color:#fff6cc" /></radialGradient><clipPath
       id="clipPath162"
       clipPathUnits="userSpaceOnUse"><path
         id="path160"
         d="M 0,0 H 1920 V 1920 H 0 Z" /></clipPath><clipPath
       id="clipPath170"
       clipPathUnits="userSpaceOnUse"><path
         id="path168"
         d="M 207.51,1920 H 1920 V 1458.98 H 207.51 Z" /></clipPath><clipPath
       id="clipPath190"
       clipPathUnits="userSpaceOnUse"><path
         id="path188"
         d="M -2243.75,4104.17 H 1860.42 V 0 h -4104.17 z" /></clipPath><clipPath
       id="clipPath194"
       clipPathUnits="userSpaceOnUse"><path
         id="path192"
         d="M 1860.421,2052.086 C 1860.421,918.75 941.671,0 -191.665,0 c -1133.337,0 -2052.087,918.75 -2052.087,2052.086 0,1133.337 918.75,2052.087 2052.087,2052.087 1133.336,0 2052.086,-918.75 2052.086,-2052.087" /></clipPath><radialGradient
       id="radialGradient208"
       spreadMethod="pad"
       gradientTransform="matrix(1871.946,0,0,-1871.946,-105.76927,2017.7305)"
       gradientUnits="userSpaceOnUse"
       r="1"
       cy="0"
       cx="0"
       fy="0"
       fx="0"><stop
         id="stop200"
         offset="0"
         style="stop-opacity:0.90000763;stop-color:#ffffff" /><stop
         id="stop202"
         offset="0.04762789"
         style="stop-opacity:0.90000763;stop-color:#ffffff" /><stop
         id="stop204"
         offset="0.862337"
         style="stop-opacity:0;stop-color:#ffffff" /><stop
         id="stop206"
         offset="1"
         style="stop-opacity:0;stop-color:#ffffff" /></radialGradient><mask
       id="mask210"
       height="1"
       width="1"
       y="0"
       x="0"
       maskUnits="userSpaceOnUse"><g
         id="g220"><g
           id="g218"><g
             id="g216"><g
               id="g214"><path
                 id="path212"
                 style="fill:url(#radialGradient208);stroke:none"
                 d="M -32768,32767 H 32767 V -32768 H -32768 Z" /></g></g></g></g></mask><radialGradient
       id="radialGradient230"
       spreadMethod="pad"
       gradientTransform="matrix(1871.946,0,0,-1871.946,-105.76927,2017.7305)"
       gradientUnits="userSpaceOnUse"
       r="1"
       cy="0"
       cx="0"
       fy="0"
       fx="0"><stop
         id="stop222"
         offset="0"
         style="stop-opacity:1;stop-color:#ffffff" /><stop
         id="stop224"
         offset="0.04762789"
         style="stop-opacity:1;stop-color:#ffffff" /><stop
         id="stop226"
         offset="0.862337"
         style="stop-opacity:1;stop-color:#ffffff" /><stop
         id="stop228"
         offset="1"
         style="stop-opacity:1;stop-color:#ffffff" /></radialGradient></defs><g
     transform="matrix(1.3333333,0,0,-1.3333333,0,2560)"
     id="g10"><g
       id="g12"><g
         id="g14"><g
           id="g20"><g
             id="g22"><path
               id="path32"
               style="fill:url(#radialGradient30);stroke:none"
               d="M 0,0 H 1920 V 1920 H 0 Z" /></g></g><g
           transform="translate(1728.3885,1357.9934)"
           id="g34"><path
             id="path36"
             style="fill:#ffffb7;fill-opacity:1;fill-rule:nonzero;stroke:none"
             d="m 0,0 c 9.677,-5.175 19.183,-10.466 28.511,-15.872 49.207,27.161 93.671,62.751 133.692,103.574 -9.593,4.455 -19.385,8.866 -29.37,13.216 C 93.854,60.834 49.731,25.918 0,0" /></g><g
           transform="translate(1919.9999,1431.6223)"
           id="g38"><path
             id="path40"
             style="fill:#ffffff;fill-opacity:1;fill-rule:nonzero;stroke:none"
             d="M 0,0 V 45.87 C -9.524,34.973 -19.325,24.358 -29.408,14.073 -19.388,9.42 -9.586,4.721 0,0" /></g><g
           transform="translate(1861.2211,1458.9114)"
           id="g42"><path
             id="path44"
             style="fill:#ffffe4;fill-opacity:1;fill-rule:nonzero;stroke:none"
             d="m 0,0 c 9.985,-4.35 19.778,-8.761 29.371,-13.216 10.083,10.284 19.884,20.9 29.408,31.797 V 68.932 C 40.64,44.848 21.072,21.669 0,0" /></g><g
           transform="translate(1037.1742,518.2561)"
           id="g46"><path
             id="path48"
             style="fill:#0082d1;fill-opacity:1;fill-rule:nonzero;stroke:none"
             d="m 0,0 h 13.41 v -71.439 c 0,-11.977 -1.166,-21.803 -3.496,-29.478 -2.332,-7.675 -6.572,-13.734 -12.723,-18.176 -6.152,-4.442 -13.972,-6.663 -23.464,-6.663 -13.37,0 -23.381,3.991 -30.037,11.977 -6.657,7.983 -9.985,22.097 -9.985,42.34 V 0 h 13.412 v -71.354 c 0,-11.191 0.871,-19.288 2.614,-24.292 1.742,-5.004 4.597,-8.813 8.56,-11.428 3.965,-2.614 8.785,-3.922 14.465,-3.922 9.559,0 16.49,2.699 20.791,8.097 C -2.15,-97.501 0,-86.987 0,-71.354 Z" /></g><g
           transform="translate(1072.684,394.6087)"
           id="g50"><path
             id="path52"
             style="fill:#0082d1;fill-opacity:1;fill-rule:nonzero;stroke:none"
             d="M 0,0 V 123.647 H 13.41 V 62.329 l 50.375,61.318 H 81.981 L 39.42,73.494 83.836,0 H 66.125 L 30.107,62.526 13.41,42.847 V 0 Z" /></g><g
           transform="translate(1180.9789,463.6858)"
           id="g54"><path
             id="path56"
             style="fill:#0082d1;fill-opacity:1;fill-rule:nonzero;stroke:none"
             d="m 0,0 h 28.846 c 6.297,0 11.076,0.759 14.338,2.277 3.261,1.518 5.847,3.908 7.759,7.169 1.911,3.261 2.868,7.056 2.868,11.387 0,6.241 -1.828,11.147 -5.483,14.718 -3.654,3.569 -9.08,5.355 -16.277,5.355 L 0,40.906 Z M -13.41,-69.077 V 54.57 h 44.955 c 9.389,0 16.32,-1.153 20.791,-3.457 4.469,-2.303 8.139,-6.138 11.006,-11.505 2.867,-5.366 4.301,-11.59 4.301,-18.669 0,-9.329 -2.432,-16.886 -7.295,-22.674 -4.864,-5.788 -11.934,-9.469 -21.213,-11.043 3.767,-2.264 6.635,-4.555 8.603,-6.874 3.992,-4.723 7.506,-9.982 10.543,-15.772 L 75.994,-69.077 H 59.125 l -13.521,25.71 c -5.241,10.058 -9.194,16.833 -11.862,20.325 -2.666,3.493 -5.252,5.844 -7.75,7.055 -2.5,1.211 -5.996,1.817 -10.49,1.817 H 0 v -54.907 z" /></g><g
           transform="translate(1287.8344,445.3831)"
           id="g58"><path
             id="path60"
             style="fill:#0082d1;fill-opacity:1;fill-rule:nonzero;stroke:none"
             d="M 0,0 H 34.537 L 24,34.243 C 20.74,44.758 18.352,53.305 16.834,59.884 15.523,51.955 13.672,44.083 11.279,36.268 Z M -29.092,-50.774 10.012,72.873 H 24.356 L 65.879,-50.774 H 50.527 L 38.734,-13.326 H -3.922 l -11.021,-37.448 z" /></g><path
           id="path62"
           style="fill:#0082d1;fill-opacity:1;fill-rule:nonzero;stroke:none"
           d="m 1366.871,518.256 h 13.41 V 394.609 h -13.41 z" /><g
           transform="translate(1403.3071,394.6087)"
           id="g64"><path
             id="path66"
             style="fill:#0082d1;fill-opacity:1;fill-rule:nonzero;stroke:none"
             d="M 0,0 V 123.647 H 13.748 L 67.053,26.376 v 97.271 h 12.82 L 79.873,0 H 66.125 L 12.904,97.29 V 0 Z" /></g><g
           transform="translate(1506.2054,394.6087)"
           id="g68"><path
             id="path70"
             style="fill:#0082d1;fill-opacity:1;fill-rule:nonzero;stroke:none"
             d="M 0,0 V 123.647 H 73.295 V 109.056 H 13.41 V 71.27 H 69.5 V 56.679 H 13.41 V 14.592 H 75.656 V 0 Z" /></g><g
           transform="translate(972.6918,309.8909)"
           id="g72"><path
             id="path74"
             style="fill:#ffd100;fill-opacity:1;fill-rule:nonzero;stroke:none"
             d="M 0,0 H 15.158 L 10.533,15.028 C 9.102,19.642 8.055,23.393 7.389,26.28 6.812,22.801 6,19.346 4.951,15.916 Z M -12.766,-22.282 4.395,31.98 H 10.69 L 28.912,-22.282 H 22.174 L 17,-5.848 H -1.721 l -4.836,-16.434 z" /></g><g
           transform="translate(1011.9301,294.012)"
           id="g76"><path
             id="path78"
             style="fill:#ffd100;fill-opacity:1;fill-rule:nonzero;stroke:none"
             d="m 0,0 h 11.088 c 2.445,0 4.25,0.223 5.412,0.666 1.682,0.642 2.959,1.696 3.838,3.165 0.877,1.468 1.316,3.312 1.316,5.533 0,2.048 -0.42,3.782 -1.261,5.201 -0.84,1.418 -1.971,2.456 -3.393,3.109 -1.422,0.654 -3.652,0.981 -6.691,0.981 H 0 Z m 0,25.059 h 9.643 c 2.521,0 4.314,0.171 5.376,0.518 1.534,0.518 2.713,1.388 3.541,2.609 0.829,1.221 1.243,2.881 1.243,4.979 0,1.948 -0.377,3.571 -1.131,4.867 -0.754,1.295 -1.756,2.19 -3.004,2.684 -1.248,0.493 -3.492,0.74 -6.73,0.74 L 0,41.456 Z M -5.885,-6.403 v 54.262 h 16.713 c 3.385,0 6.065,-0.524 8.041,-1.572 1.977,-1.048 3.596,-2.682 4.856,-4.9 1.259,-2.22 1.89,-4.674 1.89,-7.362 0,-2.49 -0.543,-4.734 -1.631,-6.731 -1.086,-1.997 -2.615,-3.6 -4.587,-4.808 2.578,-0.938 4.611,-2.538 6.097,-4.797 1.487,-2.258 2.231,-5.042 2.231,-8.351 0,-3.284 -0.674,-6.167 -2.018,-8.649 -1.346,-2.481 -3.141,-4.284 -5.385,-5.407 -2.246,-1.124 -5.33,-1.685 -9.254,-1.685 z" /></g><g
           transform="translate(1045.725,305.0794)"
           id="g80"><path
             id="path82"
             style="fill:#ffd100;fill-opacity:1;fill-rule:nonzero;stroke:none"
             d="M 0,0 5.553,0.592 C 5.848,-2.394 6.52,-4.72 7.57,-6.385 c 1.047,-1.666 2.547,-3.005 4.496,-4.016 1.95,-1.012 4.147,-1.518 6.588,-1.518 3.504,0 6.225,0.855 8.162,2.567 1.938,1.711 2.907,3.934 2.907,6.667 0,1.6 -0.352,2.997 -1.055,4.192 C 27.965,2.701 26.902,3.681 25.484,4.444 24.065,5.207 21,6.286 16.287,7.682 12.092,8.927 9.105,10.179 7.328,11.438 5.553,12.695 4.17,14.293 3.184,16.23 c -0.989,1.937 -1.481,4.127 -1.481,6.571 0,4.391 1.418,7.982 4.256,10.77 2.838,2.788 6.662,4.183 11.475,4.183 3.306,0 6.199,-0.654 8.679,-1.962 2.481,-1.308 4.405,-3.183 5.774,-5.626 1.371,-2.442 2.103,-5.317 2.203,-8.624 l -5.662,-0.519 c -0.297,3.53 -1.352,6.145 -3.166,7.848 -1.813,1.702 -4.362,2.554 -7.643,2.554 -3.332,0 -5.873,-0.747 -7.625,-2.24 -1.752,-1.493 -2.629,-3.423 -2.629,-5.792 0,-2.196 0.643,-3.898 1.926,-5.107 1.283,-1.209 4.17,-2.434 8.658,-3.672 4.391,-1.215 7.473,-2.269 9.25,-3.161 2.713,-1.388 4.762,-3.21 6.147,-5.465 1.384,-2.256 2.076,-4.948 2.076,-8.079 0,-3.105 -0.729,-5.934 -2.184,-8.485 -1.455,-2.551 -3.435,-4.492 -5.939,-5.823 -2.506,-1.331 -5.522,-1.998 -9.051,-1.998 -5.504,0 -9.889,1.654 -13.158,4.961 C 1.82,-10.13 0.123,-5.651 0,0" /></g><g
           transform="translate(1100.5804,287.6087)"
           id="g84"><path
             id="path86"
             style="fill:#ffd100;fill-opacity:1;fill-rule:nonzero;stroke:none"
             d="m 0,0 v 47.859 h -14.658 v 6.404 H 20.617 V 47.859 H 5.885 L 5.885,0 Z" /></g><g
           transform="translate(1133.0043,317.9231)"
           id="g88"><path
             id="path90"
             style="fill:#ffd100;fill-opacity:1;fill-rule:nonzero;stroke:none"
             d="m 0,0 h 12.658 c 2.764,0 4.862,0.333 6.293,0.999 1.432,0.667 2.567,1.715 3.406,3.147 0.838,1.43 1.258,3.096 1.258,4.997 0,2.739 -0.803,4.891 -2.406,6.459 -1.604,1.566 -3.984,2.35 -7.143,2.35 H 0 Z m -5.885,-30.314 v 54.262 h 19.729 c 4.121,0 7.162,-0.506 9.123,-1.517 1.963,-1.011 3.572,-2.694 4.83,-5.049 1.26,-2.355 1.889,-5.086 1.889,-8.193 0,-4.094 -1.069,-7.411 -3.202,-9.951 -2.134,-2.54 -5.238,-4.155 -9.308,-4.845 1.652,-0.995 2.91,-1.999 3.775,-3.017 1.75,-2.073 3.293,-4.381 4.625,-6.922 l 7.774,-14.768 h -7.403 l -5.933,11.283 c -2.301,4.414 -4.035,7.386 -5.205,8.92 -1.172,1.532 -2.305,2.563 -3.403,3.095 -1.095,0.532 -2.631,0.797 -4.603,0.797 H 0 v -24.095 z" /></g><g
           transform="translate(1179.8989,309.8909)"
           id="g92"><path
             id="path94"
             style="fill:#ffd100;fill-opacity:1;fill-rule:nonzero;stroke:none"
             d="M 0,0 H 15.156 L 10.531,15.028 C 9.101,19.642 8.053,23.393 7.387,26.28 6.812,22.801 6,19.346 4.949,15.916 Z M -12.768,-22.282 4.395,31.98 h 6.293 L 28.91,-22.282 H 22.174 L 16.998,-5.848 H -1.723 l -4.836,-16.434 z" /></g><g
           transform="translate(1245.0472,306.6341)"
           id="g96"><path
             id="path98"
             style="fill:#ffd100;fill-opacity:1;fill-rule:nonzero;stroke:none"
             d="m 0,0 5.922,-1.814 c -1.309,-6.095 -3.598,-10.641 -6.867,-13.639 -3.27,-2.999 -7.248,-4.498 -11.936,-4.498 -4.121,0 -7.644,1.006 -10.568,3.018 -2.924,2.013 -5.319,5.242 -7.18,9.686 -1.863,4.444 -2.795,9.692 -2.795,15.741 0,5.976 0.932,11.031 2.797,15.168 1.865,4.136 4.391,7.26 7.576,9.37 3.186,2.111 6.744,3.167 10.67,3.167 4.299,0 7.992,-1.336 11.078,-4.007 3.088,-2.671 5.248,-6.59 6.485,-11.76 l -5.774,-1.666 c -1.978,7.526 -5.943,11.289 -11.898,11.289 -2.967,0 -5.535,-0.76 -7.711,-2.279 -2.174,-1.518 -3.91,-3.883 -5.207,-7.093 -1.297,-3.211 -1.945,-7.274 -1.945,-12.188 0,-7.434 1.306,-13.01 3.923,-16.727 2.616,-3.716 6.094,-5.575 10.438,-5.575 3.207,0 5.976,1.142 8.308,3.424 C -2.352,-8.101 -0.791,-4.64 0,0" /></g><g
           transform="translate(1269.7347,287.6087)"
           id="g100"><path
             id="path102"
             style="fill:#ffd100;fill-opacity:1;fill-rule:nonzero;stroke:none"
             d="m 0,0 v 47.859 h -14.656 v 6.404 H 20.617 V 47.859 H 5.887 L 5.887,0 Z" /></g><g
           transform="translate(489.4357,613.7347)"
           id="g104"><path
             id="path106"
             style="fill:#ffed99;fill-opacity:1;fill-rule:nonzero;stroke:none"
             d="m 0,0 c 316.743,77.722 400.694,290.162 453.719,381.089 77.027,132.083 199.815,304.708 582.3,291.424 86.703,-3.012 163.583,18.416 231.445,55.874 -9.329,5.405 -18.834,10.697 -28.511,15.872 C 1173.189,709.985 1097.62,691.446 1011.168,697.513 660.98,722.089 505.895,538.172 428.868,406.089 375.843,315.162 291.059,106.041 -24.851,25 c -373.574,-95.834 -460.4,-431.726 -464.585,-448.79 v -189.944 h 8.73 C -452.274,-473.49 -343.379,-84.258 0,0" /></g><g
           transform="translate(1462.3383,1408.6848)"
           id="g108"><path
             id="path110"
             style="fill:#ffd100;fill-opacity:1;fill-rule:nonzero;stroke:none"
             d="m 0,0 c -344.176,69.127 -521.493,-93.463 -614.768,-214.62 -64.211,-83.404 -175.023,-279.976 -498.7,-319.981 -155.409,-19.208 -268.695,-83.609 -348.87,-154.43 v -529.709 c 4.184,17.064 91.01,352.955 464.585,448.79 315.91,81.041 400.693,290.162 453.719,381.089 77.027,132.083 232.112,316 582.3,291.423 86.451,-6.066 162.02,12.473 227.784,46.747 -31.293,16.734 -64.433,32.213 -99.537,46.126 C 117.34,-12.989 62.073,-12.468 0,0" /></g><g
           transform="translate(1031.2577,1468.7968)"
           id="g112"><path
             id="path114"
             style="fill:#0082d1;fill-opacity:1;fill-rule:nonzero;stroke:none"
             d="m 0,0 c -96.6,-40.1 -197.7,-96.56 -302.75,-173.45 -267.988,-196.162 -519.125,-192.753 -728.508,-111.657 v -464.036 c 80.176,70.821 193.461,135.222 348.871,154.43 323.676,40.005 434.489,236.577 498.7,319.981 C -90.413,-153.575 86.904,9.015 431.081,-60.112 493.154,-72.58 548.42,-73.101 597.594,-64.677 441.067,-2.638 245.465,28.23 0,0" /></g><g
           transform="translate(1890.5917,1445.6956)"
           id="g116"><path
             id="path118"
             style="fill:#ffffe4;fill-opacity:1;fill-rule:nonzero;stroke:none"
             d="m 0,0 c -40.021,-40.823 -84.485,-76.413 -133.692,-103.574 61.545,-35.665 115.567,-76.14 163.1,-118.756 V -14.073 C 19.822,-9.353 10.021,-4.653 0,0" /></g><g
           transform="translate(1861.2211,1458.9114)"
           id="g120"><path
             id="path122"
             style="fill:#ffd100;fill-opacity:1;fill-rule:nonzero;stroke:none"
             d="m 0,0 c -19.4,8.452 -39.531,16.668 -60.379,24.492 -46.763,-38.418 -103.456,-67.543 -171.991,-79.284 35.104,-13.913 68.244,-29.391 99.537,-46.126 C -83.102,-75 -38.979,-40.084 0,0" /></g><g
           transform="translate(1861.2211,1458.9114)"
           id="g124"><path
             id="path126"
             style="fill:#ffeb00;fill-opacity:1;fill-rule:nonzero;stroke:none"
             d="m 0,0 c -19.4,8.452 -39.531,16.668 -60.379,24.492 -46.763,-38.418 -103.456,-67.543 -171.991,-79.284 35.104,-13.913 68.244,-29.391 99.537,-46.126 C -83.102,-75 -38.979,-40.084 0,0" /></g><g
           transform="translate(1031.2577,1468.7968)"
           id="g128"><path
             id="path130"
             style="fill:#0082d1;fill-opacity:1;fill-rule:nonzero;stroke:none"
             d="m 0,0 c 245.465,28.23 441.067,-2.638 597.594,-64.677 68.535,11.741 125.228,40.865 171.99,79.284 C 571.353,89.004 308.667,128.091 0,0" /></g><g
           transform="translate(1031.2577,1468.7968)"
           id="g132"><path
             id="path134"
             style="fill:#0092e9;fill-opacity:1;fill-rule:nonzero;stroke:none"
             d="m 0,0 c 245.465,28.23 441.067,-2.638 597.594,-64.677 68.535,11.741 125.228,40.865 171.99,79.284 C 571.353,89.004 308.667,128.091 0,0" /></g><g
           transform="translate(728.5077,1295.347)"
           id="g136"><path
             id="path138"
             style="fill:#0082d1;fill-opacity:1;fill-rule:nonzero;stroke:none"
             d="m 0,0 c 105.05,76.89 206.15,133.35 302.75,173.45 -5.68,-0.66 -11.39,-1.34 -17.13,-2.06 -443.225,-55.421 -680.559,195.535 -806.618,453.263 h -207.51 v -736.31 C -519.125,-192.754 -267.988,-196.163 0,0" /></g><g
           transform="translate(728.5077,1295.347)"
           id="g140"><path
             id="path142"
             style="fill:#0092e9;fill-opacity:1;fill-rule:nonzero;stroke:none"
             d="m 0,0 c 105.05,76.89 206.15,133.35 302.75,173.45 -5.68,-0.66 -11.39,-1.34 -17.13,-2.06 -443.225,-55.421 -680.559,195.535 -806.618,453.263 h -207.51 v -736.31 C -519.125,-192.754 -267.988,-196.163 0,0" /></g><g
           transform="translate(1800.8422,1483.4036)"
           id="g144"><path
             id="path146"
             style="fill:#ffd100;fill-opacity:1;fill-rule:nonzero;stroke:none"
             d="m 0,0 c 20.848,-7.824 40.979,-16.04 60.379,-24.492 21.072,21.669 40.64,44.848 58.779,68.931 V 146.756 C 89.41,93.797 50.493,41.483 0,0" /></g><g
           transform="translate(1800.8422,1483.4036)"
           id="g148"><path
             id="path150"
             style="fill:#ffff00;fill-opacity:1;fill-rule:nonzero;stroke:none"
             d="m 0,0 c 20.848,-7.824 40.979,-16.04 60.379,-24.492 21.072,21.669 40.64,44.848 58.779,68.931 V 146.756 C 89.41,93.797 50.493,41.483 0,0" /></g><g
           transform="translate(1919.9999,1630.1599)"
           id="g152"><path
             id="path154"
             style="fill:#0082d1;fill-opacity:1;fill-rule:nonzero;stroke:none"
             d="m 0,0 v 289.84 h -1712.49 c 126.059,-257.728 363.393,-508.684 806.618,-453.263 5.74,0.72 11.45,1.4 17.13,2.06 308.666,128.091 571.353,89.004 769.584,14.607 C -68.664,-105.273 -29.747,-52.959 0,0" /></g></g></g><g
       id="g156"><g
         clip-path="url(#clipPath162)"
         id="g158"><g
           id="g164"><g
             id="g166" /><g
             id="g178"><g
               id="g176"
               clip-path="url(#clipPath170)"><g
                 id="g174"
                 transform="translate(1919.9999,1630.1599)"><path
                   id="path172"
                   style="fill:#1d1d1b;fill-opacity:1;fill-rule:nonzero;stroke:none"
                   d="m 0,0 v 289.84 h -1712.49 c 126.059,-257.728 363.393,-508.684 806.618,-453.263 5.74,0.72 11.45,1.4 17.13,2.06 308.666,128.091 571.353,89.004 769.584,14.607 C -68.664,-105.273 -29.747,-52.959 0,0" /></g></g></g></g><g
           transform="translate(1919.9999,1630.1599)"
           id="g180"><path
             id="path182"
             style="fill:#00a4ff;fill-opacity:1;fill-rule:nonzero;stroke:none"
             d="m 0,0 v 289.84 h -1712.49 c 126.059,-257.728 363.393,-508.684 806.618,-453.263 5.74,0.72 11.45,1.4 17.13,2.06 308.666,128.091 571.353,89.004 769.584,14.607 C -68.664,-105.273 -29.747,-52.959 0,0" /></g><g
           id="g184"><g
             id="g186" /><g
             id="g248"><g
               id="g246"
               clip-path="url(#clipPath190)"><g
                 id="g244"><g
                   id="g242"
                   clip-path="url(#clipPath194)"><g
                     id="g240"><g
                       id="g232" /><g
                       id="g238"
                       mask="url(#mask210)"><g
                         id="g236"><path
                           id="path234"
                           style="fill:url(#radialGradient230);stroke:none"
                           d="M 1860.421,2052.086 C 1860.421,918.75 941.671,0 -191.665,0 c -1133.337,0 -2052.087,918.75 -2052.087,2052.086 0,1133.337 918.75,2052.087 2052.087,2052.087 1133.336,0 2052.086,-918.75 2052.086,-2052.087" /></g></g></g></g></g></g></g></g></g></g></g></svg>