<svg xmlns="http://www.w3.org/2000/svg" width="647.704" height="452.029"><path fill="#fff" fill-opacity="0" pointer-events="none" d="M0 0h647.704v452.029H0z"/><path d="M-1.42 111.335v103.5l650 240.2z" class="st0" fill="#9cf0d6"/><path d="M-1.42 111.335l307.6 162.7 342.4-274z" class="st3" fill="#7ff0cd"/><path d="M648.58.035l-342.4 274 256-93.7z" class="st0" fill="#9cf0d6"/><path d="M306.18 274.035l256-93.7-71.6 191.2z" class="st3" fill="#7ff0cd"/><path d="M490.58 371.535l35.8-95.6 122.2 179.1z" class="st4" fill="#61e3bb"/><path d="M648.58 455.035l-122.2-179.1 122.2-85.1zm-650 0v-240.2l150.9 55.8z" class="st3" fill="#7ff0cd"/><path d="M-1.42 455.035l150.9-184.4 72.1 92.2z" class="st4" fill="#61e3bb"/><path d="M221.58 362.835l-72.1-92.2 499.1 184.4zm-223 92.2l223-92.2 147.1 92.2z" class="st3" fill="#7ff0cd"/><path d="M368.68 455.035l-147.1-92.2 427 92.2zm157.7-179.1l35.8-95.6 86.4 10.5z" class="st0" fill="#9cf0d6"/><path d="M562.18 180.335l86.4-180.3v190.8z" class="st3" fill="#7ff0cd"/><path d="M-1.42.035l247.1 69-247.1 42.3z" class="st4" fill="#61e3bb"/><path d="M245.68 69.035l-247.1-69h357z" class="st0" fill="#9cf0d6"/><path d="M355.58.035l-109.9 69 402.9-69z" class="st4" fill="#61e3bb"/></svg>