<svg xmlns="http://www.w3.org/2000/svg" width="1400" height="980"><defs><linearGradient id="e" gradientUnits="userSpaceOnUse" x1="1179.85" y1="0" x2="1179.85" y2="814.7"><stop offset="0" stop-color="#84d1cb"/><stop offset="1" stop-color="#41aea5"/></linearGradient></defs><path d="M55.9 944.2l-7.3 7.3h14.7zm.6-7.1l-9.1-9.1-6 6.1V922l-12.9-12.9v30.4H20v12h22.1zm-33.4 16.8h-.4l-2 3.2v-3.2h-.4v6h.4v-2.1l.4-.7 1.7 2.8h.4l-1.8-3.2zm3.7 0l-1.3 6.1h.4l.3-1.3H28l.3 1.3h.4l-1.4-6.1h-.5zm-.6 4.4l.9-3.9.9 3.9h-1.8zm7.2.7l-1.8-5.1h-.5v6h.3v-5.4l1.9 5.4h.5v-6h-.4zm4.1-5.2c-.9 0-1.3.7-1.3 1.5v3.1c0 .9.4 1.5 1.3 1.5s1.3-.7 1.3-1.5v-1.6h-1.2v.4h.8v1.3c0 .7-.3 1.1-.9 1.1-.7 0-.9-.5-.9-1.1v-3.2c0-.7.3-1.1.9-1.1.7 0 .9.5.9 1.1v.5h.4v-.5c0-.8-.4-1.5-1.3-1.5zm6.5.1h-.5l-1.9 3.2v-3.2h-.4v6h.4v-2.1l.4-.7 1.7 2.8h.4l-1.9-3.2zm2.4 0h.4v6.1h-.4v-6.1zm5.6 0h-.4l-2 3.2v-3.2h-.4v6h.4v-2.1l.5-.7 1.6 2.8h.4l-1.8-3.2zm4.6 4.6c0 .7-.2 1.2-.9 1.2s-.9-.5-.9-1.2v-4.6h-.4v4.6c0 .9.4 1.5 1.3 1.5s1.3-.7 1.3-1.5v-4.6h-.4v4.6zm5.4-.2c0-.7-.3-1.1-.9-1.2.6-.1.9-.5.9-1.3v-.5c0-.9-.4-1.4-1.3-1.4h-1.3v6.1h.4v-2.7h.6c.7 0 1.1.2 1.1 1v1c0 .3 0 .5.1.7h.4c-.1-.2-.1-.5-.1-.7v-1zm-2.2-1.4v-2.6h.9c.7 0 .9.4.9 1v.6c0 .8-.4 1-1.1 1h-.7z" class="st0" fill="#231f20"/><linearGradient id="a" gradientUnits="userSpaceOnUse" x1="-9.729" y1="-32.982" x2="42.573" y2="87.141"><stop offset="0" stop-color="#5dd2cd"/><stop offset="1" stop-color="#9fc755"/></linearGradient><path class="st1" d="M43.4 0H0v78.4C14 51.7 28.5 25.6 43.4 0z" fill="url(#a)" fill-opacity=".91"/><linearGradient id="b" gradientUnits="userSpaceOnUse" x1="-38.243" y1="310.875" x2="420.187" y2="917.621"><stop offset="0" stop-color="#5dd2cd"/><stop offset="1" stop-color="#9fc755"/></linearGradient><path class="st2" d="M43.4 0C28.5 25.6 14 51.7 0 78.4V980h406.9C277.6 702.2 202 320.1 194.2 0H43.4z" fill="url(#b)"/><linearGradient id="c" gradientUnits="userSpaceOnUse" x1="-38.243" y1="310.875" x2="420.187" y2="917.621"><stop offset="0" stop-color="#5dd2cd"/><stop offset="1" stop-color="#9fc755"/></linearGradient><path class="st3" d="M43.4 0C28.5 25.6 14 51.7 0 78.4V980h406.9C277.6 702.2 202 320.1 194.2 0H43.4z" fill="url(#c)" fill-opacity=".54"/><linearGradient id="d" gradientUnits="userSpaceOnUse" x1="793.667" y1="-72.712" x2="798.837" y2="651.09"><stop offset=".337" stop-color="#5dd2cd"/><stop offset=".556" stop-color="#5eb1ad"/><stop offset="1" stop-color="#9fc755"/></linearGradient><path class="st4" d="M194.2 0c7.8 320.1 83.4 702.2 212.7 980H1400V814.7c-99.7-313.1-251.2-613-440.3-814.7H194.2z" fill="url(#d)" fill-opacity=".84"/><path class="st5" d="M1400 0H959.7c189.1 201.7 340.5 501.5 440.3 814.7V0z" fill="url(#e)" fill-opacity=".77"/><path class="st6" d="M1400 732.3C825.2 816.4 348.4 680.7 0 508.3V980h1400V732.3z" opacity=".28" fill="#f1f2f2" fill-opacity=".88"/><path class="st7" d="M85.8 0c-55 302.3-52.4 640.3-13.4 980H327C262.6 604.5 231.2 219.7 216.3 0H85.8z" opacity=".13" fill="#f1f2f2" fill-opacity=".79"/><path class="st7" d="M1397.521 980V0h-243c-15 199.2-85.7 662.3-416.8 980h659.8z" opacity=".13" fill="#426ca6" fill-opacity=".59"/></svg>