<svg xmlns="http://www.w3.org/2000/svg" width="1400" height="980"><defs><linearGradient id="a" gradientUnits="userSpaceOnUse" x1="343.583" y1="-37.979" x2="343.583" y2="1077.703" gradientTransform="matrix(.28287 .95916 -.89082 .26272 582.637 154.737)"><stop offset="0" stop-color="#45ce06" stop-opacity=".09"/><stop offset="1" stop-color="#246b03"/></linearGradient><linearGradient id="b" gradientUnits="userSpaceOnUse" x1="288.267" y1="-70.3" x2="288.267" y2="1130.427" gradientTransform="matrix(-.46119 .8873 -.68102 -.35397 618.977 421.509)"><stop offset="0" stop-color="#2dcf25" stop-opacity=".19"/><stop offset="1" stop-color="#1a7815"/></linearGradient><linearGradient id="c" gradientUnits="userSpaceOnUse" x1="253.88" y1="-115.956" x2="253.88" y2="1074.545" gradientTransform="matrix(1 0 0 1.00679 0 -2.445)"><stop offset="0" stop-color="#08cf0f" stop-opacity=".57"/><stop offset="1" stop-color="#046d08" stop-opacity=".45"/></linearGradient><linearGradient id="d" gradientUnits="userSpaceOnUse" x1="1328.923" y1="-46.059" x2="1328.923" y2="1095.151" gradientTransform="matrix(-.01488 -.99989 .26906 -.004 1207.57 1856.23)"><stop offset="0" stop-color="#45ce06" stop-opacity=".35"/><stop offset="1" stop-color="#043805"/></linearGradient></defs><path d="M612.204-37.979s-117.972 168.07-122.82 345.835c-4.848 177.766 179.382 297.354 229.48 420.174 50.097 122.82 3.231 271.497-30.706 329.675s-711.063-29.09-711.063-29.09L-53.61-37.978" fill="url(#a)" fill-opacity=".54" stroke="#000" stroke-width="0" paint-order="stroke"/><path d="M463.527-62.22s197.158 297.354 205.239 489.664c8.08 192.31-284.426 386.237-294.122 517.137-9.696 130.9 38.785 185.846 38.785 185.846l-447.646-12.928L-92.395-70.3s557.538 3.232 555.922 8.08z" fill="url(#b)" fill-opacity=".53" stroke="#000" stroke-width="0" paint-order="stroke"/><path d="M311.618-75.148s92.115 142.213 71.106 311.898c-21.008 169.686-95.347 189.078-96.963 290.89-1.616 101.81 114.74 247.256 127.668 324.826 12.929 77.57 56.562 80.803 48.482 166.453-8.08 85.651-192.31 46.866-192.31 46.866s56.561-24.24 17.776-148.677C248.592 792.672 98.3 744.191 91.835 587.434 85.37 430.676 185.565 448.453 216.27 338.56 246.976 228.67 86.987 123.627 65.978 20.2 44.969-83.228 51.434-101.005 44.969-113.933c-6.464-12.929 271.497 40.401 266.649 38.785z" fill="url(#c)" fill-opacity=".49" stroke="#000" stroke-width="0" paint-order="fill"/><path d="M206.319-17.592S94.327 174.71 94.327 310.188c0 135.477 249.24 192.231 273.87 342.559C392.824 803.074 190.12 882.15 116.491 980.814c-73.63 98.663-157.566 44.177-157.566 44.177L-61.69-26.428l268.009 8.836z" fill="#0c960e" fill-opacity=".36" stroke="#000" stroke-width="0" paint-order="stroke"/><path d="M1281.25-46.059s-85.651 142.213-92.116 305.434c-6.464 163.221 117.972 268.265 121.204 392.7 3.232 124.437-138.98 281.194-138.98 386.237s315.13 32.321 315.13 32.321V-15.354c0-1.616-200.39-30.705-205.239-30.705z" fill="url(#d)" fill-opacity=".36" stroke="#000" stroke-width="0" paint-order="fill"/><path d="M1113.18-71.916s27.473 122.82 72.722 182.614c45.25 59.794 93.731 119.588 297.354 130.9 203.622 11.313-8.08-329.674-8.08-329.674l-361.996 16.16z" fill="#45ce06" fill-opacity=".54" stroke="#000" stroke-width="0" paint-order="stroke"/><path d="M1473.56 824.993s-213.32-24.24-313.515 87.267c-100.195 111.508-101.811 192.31-101.811 192.31l444.414-17.776-29.089-261.8z" fill="#0c960e" fill-opacity=".52" stroke="#000" stroke-width="0" paint-order="stroke"/><path d="M-98.86 606.826s-3.231-16.16 48.482-3.232c51.714 12.928 114.74 53.33 119.588 130.9 4.848 77.57-66.258 197.159-140.596 197.159-74.339 0-32.321-324.827-27.473-324.827z" fill="#0c960e" fill-opacity=".52" stroke="#000" stroke-width="0" paint-order="fill"/><path d="M1543.05 340.178s-198.775 8.08-200.39 135.748c-1.617 127.668 218.166 187.462 218.166 187.462l-17.776-323.21z" fill="#0c960e" fill-opacity=".31" stroke="#000" stroke-width="0" paint-order="fill"/></svg>