<svg xmlns="http://www.w3.org/2000/svg" width="1400" height="980"><defs><linearGradient id="a" gradientUnits="userSpaceOnUse" x1="684.607" y1="516.715" x2="684.607" y2="978.538" gradientTransform="matrix(-.00577 .99998 -3.04898 -.0176 2984.713 42.865)"><stop offset="0" stop-color="#45ce06"/><stop offset="1" stop-color="#3fbb05" stop-opacity=".43"/></linearGradient></defs><path d="M-219.338 180.037s-8.768-35.07 63.127-28.056c71.895 7.014 285.826 78.909 531.32 273.55 245.495 194.643 499.757 178.861 610.23 135.023 110.472-43.839 250.755-199.903 482.22-182.368 231.467 17.536 299.855 31.564 299.855 31.564l-38.578 301.607-49.099 424.355s-238.48-31.563-476.96-203.41C964.295 760.457 867.851 672.78 685.483 655.245c-182.367-17.535-315.636 12.275-433.122 92.938C134.875 828.844-3.654 951.592-96.591 937.563c-92.937-14.028-120.994-755.772-122.747-757.526z" fill="#45ce06" fill-opacity=".07" stroke="#45ce06" stroke-opacity=".8" stroke-width="2" paint-order="stroke"/><path d="M-300 576.336s-117.488-124.501-40.332-110.473c77.155 14.028 85.923 89.43 212.177 140.283C-1.9 656.998 161.178 558.8 297.954 551.786c136.775-7.014 212.177 12.275 364.734 56.113 152.558 43.838 326.157 92.937 503.264 70.141 177.107-22.796 254.262-91.183 331.418-135.022 77.155-43.838 171.846-26.303 171.846-26.303l-17.535 348.953s-3.508-89.43-185.875-73.648c-182.367 15.782-359.474-24.55-506.77-73.648-147.297-49.1-243.742-108.72-450.658-75.402C301.46 676.287 62.98 958.606-49.246 977.894-161.472 997.184-296.494 576.336-300 576.336z" fill="url(#a)" fill-opacity=".13" stroke="#45ce06" stroke-opacity=".8" stroke-width="2" paint-order="fill"/><path d="M-463.08 209.847s-7.014-131.515 105.213-26.303C-245.641 288.756-96.591 285.25 87.53 337.855c184.12 52.606 229.712 119.24 357.72 171.846 128.008 52.606 170.093 85.923 359.474 98.198 189.382 12.275 355.968-26.303 494.497-80.662 138.529-54.36 265.672-159.486 469.946-110.473 204.275 49.013-15.782 534.827-15.782 534.827s-147.296 50.853-205.163 36.825c-57.866-14.029-126.254 1.753-280.565-92.938-154.31-94.69-480.468-252.508-578.666-271.797-98.197-19.289-94.69-19.289-245.494-8.768S78.762 700.836-51 832.351s-273.551 80.663-273.551 80.663l-138.53-703.167z" fill="#45ce06" fill-opacity="0" stroke="#45ce06" stroke-opacity=".8" stroke-width="2" paint-order="stroke"/><path d="M-326.304 190.558s86.619-64.088 277.107-7.687c190.488 56.401 269.563 248.27 382.428 339.502 112.866 91.232 249.268 129.409 354.48 132.916" fill="#45ce06" fill-opacity="0" stroke="#45ce06" stroke-opacity=".8" stroke-width="2" paint-order="fill"/><path d="M-222.53 318.946s-133.343-38.098 24.91-55.682c158.253-17.583 164.115 136.274 341.417 254.964 177.302 118.69 291.596 139.204 482.086 134.808 190.49-4.396 225.657-21.98 370.723-95.245s375.119-184.629 518.719-111.363c143.6 73.265 394.168 7.326 394.168 7.326" fill="#45ce06" fill-opacity="0" stroke="#45ce06" stroke-width="2" paint-order="stroke"/><path d="M-250.37 206.117s-108.434-5.86 54.216-13.187c162.649-7.327 259.359 147.996 359 250.567 99.64 102.572 271.082 208.074 496.74 209.54 225.657 1.465 386.84-79.127 511.392-99.642 124.55-20.514 215.4-16.118 348.743 5.862" fill="#45ce06" fill-opacity="0" stroke="#45ce06" stroke-width="2" paint-order="fill"/><path d="M-240.114 125.526s-26.375-33.703 55.682-30.772c82.057 2.93 240.31 19.05 423.474 159.719 183.163 140.67 310.645 316.506 473.294 326.763 162.65 10.257 243.241-77.661 300.388-124.55 57.147-46.89 237.38-211.005 391.237-208.075 153.858 2.931 87.919-92.314 99.641-156.788 11.723-64.473 71.8 10.258 73.266 8.792 1.465-1.465-32.237 845.483-32.237 845.483s111.363 24.91-64.474-36.633c-175.836-61.543-216.865-137.739-408.82-190.49-191.956-52.75-290.131-60.077-404.425-65.939-114.294-5.86-197.817-92.314-285.735-136.273-87.919-43.96-180.233-46.89-300.388-17.584-120.156 29.306-221.262 158.253-294.527 193.42-73.266 35.168-26.376-570.004-26.376-567.073z" fill="#45ce06" fill-opacity=".08" stroke="#45ce06" stroke-opacity=".5" stroke-width="2" paint-order="stroke"/><path d="M1717.252 326.756s-102.023-2.65-189.47-13.25c-87.449-10.6-191.16-19.254-297.563 27.184-106.403 46.439-190.157 151.92-298.955 211.094-108.798 59.174-208.808 39.28-291.858 12.47" fill="#45ce06" fill-opacity="0" stroke="#45ce06" stroke-opacity=".8" stroke-width="2" paint-order="fill"/></svg>