<svg xmlns="http://www.w3.org/2000/svg" width="1400" height="980"><path d="M486.747-157.004s10.966 31.07 5.483 80.419c-5.483 49.347-122.456 210.184-129.767 403.92-7.31 193.736 153.527 350.918 182.77 526.376 29.243 175.459 18.277 235.773 7.31 288.776-10.965 53.003-630.554 43.865-630.554 43.865V33.076c0-3.655 10.966-146.215 10.966-146.215s551.964-49.348 553.792-43.865z" fill="#42cc00" fill-opacity=".08" stroke="#000" stroke-width="0" paint-order="stroke"/><path d="M1206.859-173.453S965.603 91.562 960.119 369.372c-5.482 277.81 244.912 495.306 239.429 667.109-5.483 171.803 349.09 155.354 349.09 155.354S1488.322-89.38 1486.495-89.38c-1.828 0-274.154-76.763-279.637-84.074z" fill="#42cc00" fill-opacity=".09" stroke="#000" stroke-width="0" paint-order="fill"/><path d="M-469.138 170.153S-359.476-32.72-255.298 12.972c104.18 45.692 447.786 191.908 449.614 436.819C196.143 694.7 7.89 967.028 13.374 1076.69c5.483 109.66-283.293 122.455-285.12 120.627-1.828-1.828-195.564-1032.648-197.392-1027.165z" fill="#42cc00" fill-opacity=".19" stroke="#000" stroke-width="0" paint-order="fill"/><path d="M-198.639 283.47s-12.794-38.381 63.97 12.794c76.763 51.176 307.052 142.56 402.092 318.02 95.04 175.458 109.662 288.775 124.284 484.338 14.621 195.564-36.554 91.385-36.554 91.385s12.794 84.074-5.483-135.25C331.393 835.435 285.7 709.324 247.319 625.25c-38.382-84.074-186.425-219.323-383.816-272.326-197.391-53.003-62.142-71.28-62.142-69.453zM1682.06 65.975s-23.76-9.139-107.835 1.827c-84.074 10.967-294.222 17.988-296.086 169.976-1.864 151.988 85.537 163.996 122.455 356.4 36.919 192.405 279.637 166.32 279.637 166.32l1.828-694.523z" fill="#42cc00" fill-opacity=".32" stroke="#000" stroke-width="0" paint-order="stroke"/></svg>