<svg xmlns="http://www.w3.org/2000/svg" viewBox="0 0 3733.333 3733.333"><defs><clipPath id="a" clipPathUnits="userSpaceOnUse"><path d="M0 0h2800v2800H0z"/></clipPath></defs><path d="M0 3733.333h3733.333V0H0z" fill="#d4f1da"/><g clip-path="url(#a)" transform="matrix(1.33333 0 0 -1.33333 0 3733.333)"><path d="M737.27 2028.88c164.35-77.433 291.96-239 472.113-262.5 184.787-24.105 349.572 105.176 522.7 174.126 101.5 40.424 211.878 60.764 320.724 51.33 170.903-14.813 326.093-100.292 483.83-167.721 157.737-67.43 336.963-118.072 498.78-61.125a4677.944 4677.944 0 0 1 65.23-797.926c-118.89-33.532-228.85-92.148-339.802-146.45-496.954-243.222-1035.918-407.252-1587.632-448.852-104.24-7.86-211.911-10.918-310.191 24.699-105.224 38.134-189.65 116.753-280.875 181.589C415.876 694.22 217.684 772.564 82.045 924.92c-173.856 195.283-220.713 486.55-217.827 740.065 2.628 230.797 180.102 323.372 384.552 383.837 158.754 46.95 336.126 51.85 488.5-19.941" fill="#d5e4a7"/><path d="M428.901 1639.081c183.033-70.523 367.318-160.306 563.353-153.622 217.882 7.43 422.585 134.423 640.063 119.222 236.839-16.554 447.228-199.923 683.642-178.127 76.264 7.032 148.647 35.363 222.095 57.063 144.459 42.681 296.33 60.146 446.705 51.372a7887.394 7887.394 0 0 1-45.047-735.145c-420.58-72.95-801.589-297.795-1219.478-384.846-109.93-22.899-223.591-36.077-334.478-18.389-98.371 15.692-191.109 55.043-283.861 91.377C710.67 641.24 300.439 745.903-116.387 798.813c-28.744 3.65-61.788 9.793-75.795 35.157-9.032 16.355-7.29 36.303-5.122 54.86 15.372 131.558 39.444 261.932 54.706 393.503 12.809 110.43-3.358 229.516 15.785 337.738 36.84 208.266 436.42 64.974 555.714 19.01" fill="#9cdcb7"/><path d="M1472.716 1004.471c70.935-31.462 143-63.406 219.884-73.92 166.238-22.736 327.193 56.442 479.666 126.47 239.041 109.787 495.586 203.712 758.121 187.301a4175.468 4175.468 0 0 1 37.351-654.939c-369.514-212.832-786.28-331.754-1205.965-407.274-152.835-27.502-307.525-49.572-462.778-46.143-213.41 4.714-422.5 57.38-629.44 109.742l-830.94 210.254c-21.96 5.557 19.822 510.302 22.775 559.753a14792.594 14792.594 0 0 0 19.345 279.452c3.958 50.265-9.695 193.88 30.15 231.084 41.213 38.483 175.628-16.953 225.128-28.883 88.567-21.347 176.422-45.596 263.566-72.149 170.271-51.884 337.723-112.644 503.165-178.223 191.97-76.094 381.228-158.81 569.972-242.525" fill="#9fdecd"/><path d="M3048.166 952.474c58.94-368.851 116.636-755.012-2.63-1108.99-1058.311-212.465-2151.774-81.368-3223.13 50.397a21761.737 21761.737 0 0 0 72.985 903.866c55.542 22.05 121.684 15.857 176.61-7.685 54.925-23.543 103.309-59.677 153.519-92.081 238.207-153.735 536.884-225.512 811.957-156.87 271.524 67.757 505.845 264.382 784.759 287.254 222.439 18.24 445.524-77.83 665.788-41.832 69.518 11.362 136.18 35.605 202.365 59.72 123.565 45.025 234.212 61.197 357.777 106.22" fill="#89cca6"/></g></svg>