<svg xmlns="http://www.w3.org/2000/svg" viewBox="0 0 512 512"><path d="M162.137 286.219a8.08 8.08 0 0 0 11.045-2.95l25.59-44.24a8.082 8.082 0 0 0-2.95-11.045 8.083 8.083 0 0 0-11.045 2.95l-25.59 44.24a8.082 8.082 0 0 0 2.95 11.045zm153.549-58.226a8.084 8.084 0 0 0-2.924 11.053l25.728 44.24a8.078 8.078 0 0 0 11.053 2.925 8.084 8.084 0 0 0 2.924-11.053l-25.728-44.24a8.084 8.084 0 0 0-11.053-2.925zm-35.545 151.262h-51.384a8.082 8.082 0 0 0-8.084 8.084 8.082 8.082 0 0 0 8.084 8.084h51.384a8.084 8.084 0 0 0 0-16.168zm36.441-169.009l24.594-24.594a8.085 8.085 0 0 0 0-11.433l-9.377-9.377a85.454 85.454 0 0 0 6.097-14.705h13.255a8.082 8.082 0 0 0 8.084-8.084v-34.782a8.082 8.082 0 0 0-8.084-8.084h-13.255a85.31 85.31 0 0 0-6.098-14.704l9.377-9.375a8.084 8.084 0 0 0 .001-11.433l-24.594-24.596a8.084 8.084 0 0 0-11.434-.001l-9.377 9.378a85.51 85.51 0 0 0-14.704-6.097V29.103a8.082 8.082 0 0 0-8.084-8.084H238.2a8.082 8.082 0 0 0-8.084 8.084v13.256a85.431 85.431 0 0 0-14.704 6.097l-9.377-9.378a8.087 8.087 0 0 0-11.434.001l-24.593 24.595a8.082 8.082 0 0 0 0 11.431l9.377 9.377a85.459 85.459 0 0 0-6.098 14.705h-13.255a8.082 8.082 0 0 0-8.084 8.084v34.783a8.083 8.083 0 0 0 8.084 8.084h13.255a85.277 85.277 0 0 0 6.097 14.705l-9.375 9.378a8.082 8.082 0 0 0 0 11.431l24.593 24.594a8.083 8.083 0 0 0 11.432.001l9.378-9.377a85.604 85.604 0 0 0 14.704 6.097v13.254a8.082 8.082 0 0 0 8.084 8.084h34.784a8.087 8.087 0 0 0 8.086-8.085v-13.254a85.445 85.445 0 0 0 14.704-6.097l9.378 9.377c3.153 3.156 8.272 3.156 11.43 0zm-23.786-26.321a69.417 69.417 0 0 1-21.609 8.961 8.085 8.085 0 0 0-6.29 7.883v11.367h-18.615v-11.365a8.084 8.084 0 0 0-6.289-7.883 69.45 69.45 0 0 1-21.609-8.961 8.084 8.084 0 0 0-10.021 1.125l-8.047 8.045-13.161-13.162 8.044-8.047a8.083 8.083 0 0 0 1.125-10.022 69.392 69.392 0 0 1-8.961-21.609 8.085 8.085 0 0 0-7.883-6.29h-11.369v-18.614h11.369a8.084 8.084 0 0 0 7.883-6.29 69.418 69.418 0 0 1 8.961-21.61 8.083 8.083 0 0 0-1.125-10.021l-8.044-8.045 13.161-13.163 8.045 8.046a8.083 8.083 0 0 0 10.022 1.125 69.306 69.306 0 0 1 21.606-8.958 8.084 8.084 0 0 0 6.292-7.883v-11.37h18.615v11.367a8.086 8.086 0 0 0 6.292 7.883 69.368 69.368 0 0 1 21.606 8.958 8.086 8.086 0 0 0 10.022-1.125l8.045-8.046 13.162 13.164-8.044 8.043a8.085 8.085 0 0 0-1.128 10.022 69.316 69.316 0 0 1 8.959 21.607 8.083 8.083 0 0 0 7.883 6.292h11.37v18.614h-11.37a8.084 8.084 0 0 0-7.883 6.292 69.404 69.404 0 0 1-8.958 21.609 8.085 8.085 0 0 0 1.125 10.022l8.045 8.044-13.162 13.162-8.046-8.045a8.083 8.083 0 0 0-10.018-1.122z"/><path d="M255.594 74.027a50.56 50.56 0 0 0-46.652 30.924 50.325 50.325 0 0 0-3.983 19.713 50.836 50.836 0 0 0 2.371 15.303 8.08 8.08 0 0 0 10.145 5.27 8.082 8.082 0 0 0 5.27-10.145 33.758 33.758 0 0 1-.71-2.598 34.583 34.583 0 0 1-.905-7.83c0-4.656.911-9.169 2.706-13.413A34.428 34.428 0 0 1 255.6 90.196a34.426 34.426 0 0 1 31.762 21.055 34.245 34.245 0 0 1 2.706 13.413c0 2.967-.38 5.92-1.13 8.774a34.458 34.458 0 0 1-15.315 20.609l-.399.239a36.16 36.16 0 0 1-.957.549l-.402.223c-.399.213-.801.421-1.284.659l-.084.04c-.438.21-.884.409-1.284.581l-.462.192c-.341.14-.68.276-1.001.396l-.465.174a32.792 32.792 0 0 1-1.456.491 33.62 33.62 0 0 1-1.397.398l-.501.124c-.356.088-.714.171-1.103.253l-.455.097c-.492.098-.985.19-1.482.266l-.068.011c-.5.077-1.005.137-1.518.192l-.475.044c-.383.036-.769.066-1.156.088l-.471.027a35.658 35.658 0 0 1-3.187.001l-.496-.028a41.648 41.648 0 0 1-1.172-.089l-.465-.044a33.745 33.745 0 0 1-1.504-.19l-.077-.012c-.496-.077-.99-.167-1.508-.272l-.318-.068a28.105 28.105 0 0 1-1.241-.283l-.429-.107c-.464-.122-.925-.25-1.411-.4l-.088-.027a33.737 33.737 0 0 1-1.398-.473l-.441-.165a32.953 32.953 0 0 1-1.068-.423l-.37-.153a37.043 37.043 0 0 1-1.342-.607l-.066-.031a30.94 30.94 0 0 1-1.276-.653l-.446-.247a35.074 35.074 0 0 1-.983-.566l-.334-.201c-.413-.254-.82-.513-1.222-.783-3.701-2.495-8.727-1.511-11.22 2.192a8.084 8.084 0 0 0 2.192 11.22c.583.393 1.176.77 1.788 1.147l.591.355c.456.271.916.536 1.355.778l.61.337a51.234 51.234 0 0 0 2.018 1.029c.639.306 1.288.597 1.99.899l.604.25c.494.204.992.4 1.517.598l.622.231c.651.235 1.307.46 2.016.682l.141.045c.694.215 1.398.412 2.15.61l.628.157c.536.133 1.077.259 1.691.389.206.044.411.088.591.123a49.958 49.958 0 0 0 2.278.406c.739.113 1.489.206 2.234.286l.7.068c.564.053 1.131.095 1.699.128l.7.04c.773.036 1.549.058 2.344.058.782 0 1.556-.024 2.361-.058l.675-.039a46.602 46.602 0 0 0 1.683-.127l.71-.068c.751-.082 1.5-.175 2.24-.287.025-.003.049-.008.073-.012a47.046 47.046 0 0 0 2.863-.531c.545-.115 1.084-.24 1.657-.383l.64-.159a49.149 49.149 0 0 0 2.194-.628 50.804 50.804 0 0 0 2.07-.698l.646-.239c.501-.19.999-.387 1.537-.608l.608-.253a52.95 52.95 0 0 0 1.94-.878l.051-.024.071-.034c.639-.31 1.271-.636 1.913-.98l.566-.314c.466-.257.926-.522 1.441-.828l.543-.327c.599-.37 1.192-.747 1.779-1.143 10.238-6.896 17.594-17.246 20.715-29.141a50.722 50.722 0 0 0 1.659-12.878c0-6.833-1.34-13.464-3.983-19.713a50.575 50.575 0 0 0-46.658-30.921zm248.322 287.836H490.66a85.226 85.226 0 0 0-6.097-14.704l9.377-9.376a8.082 8.082 0 0 0 .001-11.432l-24.594-24.596a8.084 8.084 0 0 0-11.434-.001l-9.377 9.378a85.51 85.51 0 0 0-14.704-6.097V291.78a8.082 8.082 0 0 0-8.084-8.084h-34.784a8.082 8.082 0 0 0-8.084 8.084v13.255a85.352 85.352 0 0 0-14.704 6.097l-9.377-9.378a8.089 8.089 0 0 0-11.434.001l-24.593 24.595a8.082 8.082 0 0 0 0 11.431l9.377 9.377a85.459 85.459 0 0 0-6.098 14.705h-13.255a8.082 8.082 0 0 0-8.084 8.084v34.783a8.082 8.082 0 0 0 8.084 8.084h13.255a85.277 85.277 0 0 0 6.097 14.705l-9.376 9.378a8.082 8.082 0 0 0 0 11.431l24.593 24.594a8.085 8.085 0 0 0 11.433.001l9.378-9.377a85.57 85.57 0 0 0 14.704 6.097v13.254a8.082 8.082 0 0 0 8.084 8.084h34.784a8.084 8.084 0 0 0 8.085-8.084v-13.253a85.445 85.445 0 0 0 14.704-6.097l9.378 9.377a8.085 8.085 0 0 0 11.432 0l24.594-24.594a8.089 8.089 0 0 0 0-11.434l-9.378-9.377a85.329 85.329 0 0 0 6.097-14.705h13.256A8.083 8.083 0 0 0 512 404.73v-34.783a8.083 8.083 0 0 0-8.084-8.084zm-8.084 34.781h-11.369a8.084 8.084 0 0 0-7.884 6.293 69.377 69.377 0 0 1-8.957 21.607 8.085 8.085 0 0 0 1.125 10.022l8.045 8.044-13.162 13.162-8.046-8.045a8.081 8.081 0 0 0-10.021-1.125 69.437 69.437 0 0 1-21.609 8.961 8.084 8.084 0 0 0-6.289 7.883v11.367h-18.617v-11.368a8.084 8.084 0 0 0-6.289-7.883 69.441 69.441 0 0 1-21.609-8.961 8.084 8.084 0 0 0-10.021 1.125l-8.046 8.045-13.161-13.162 8.044-8.047a8.083 8.083 0 0 0 1.125-10.022 69.382 69.382 0 0 1-8.961-21.609 8.084 8.084 0 0 0-7.883-6.289h-11.369v-18.614h11.369a8.084 8.084 0 0 0 7.883-6.289 69.432 69.432 0 0 1 8.961-21.61 8.083 8.083 0 0 0-1.125-10.021l-8.044-8.045 13.161-13.163 8.045 8.046a8.083 8.083 0 0 0 10.022 1.125 69.292 69.292 0 0 1 21.606-8.958 8.087 8.087 0 0 0 6.292-7.884v-11.37h18.615v11.37a8.086 8.086 0 0 0 6.292 7.884 69.378 69.378 0 0 1 21.606 8.958 8.086 8.086 0 0 0 10.022-1.125l8.045-8.046 13.162 13.164-8.044 8.043a8.083 8.083 0 0 0-1.127 10.022 69.294 69.294 0 0 1 8.958 21.606 8.086 8.086 0 0 0 7.884 6.293h11.371v18.616z"/><path d="M408.355 336.704a50.56 50.56 0 0 0-46.652 30.925 50.325 50.325 0 0 0-3.983 19.713 50.779 50.779 0 0 0 2.371 15.303c1.346 4.258 5.89 6.62 10.145 5.27a8.082 8.082 0 0 0 5.27-10.145 33.758 33.758 0 0 1-.71-2.598 34.64 34.64 0 0 1-.905-7.83c0-4.656.911-9.169 2.706-13.413a34.428 34.428 0 0 1 31.764-21.055 34.426 34.426 0 0 1 31.762 21.055 34.245 34.245 0 0 1 2.706 13.413c0 2.967-.38 5.92-1.13 8.774a34.458 34.458 0 0 1-15.336 20.621l-.379.226a37.84 37.84 0 0 1-.957.549l-.402.223c-.398.213-.8.421-1.283.659l-.084.04c-.438.21-.884.409-1.284.581l-.462.192c-.341.14-.68.276-1.001.396l-.465.174c-.462.166-.927.327-1.347.458l-.109.033c-.475.147-.958.281-1.397.398l-.501.124c-.355.088-.712.171-1.073.247l-.112.024-.373.079c-.492.098-.985.19-1.482.266l-.069.011c-.5.075-1.005.137-1.518.192l-.474.044a31.36 31.36 0 0 1-1.155.088l-.47.027a35.658 35.658 0 0 1-3.187.001l-.496-.028a41.365 41.365 0 0 1-1.172-.089l-.465-.044a33.745 33.745 0 0 1-1.504-.19l-.077-.012c-.495-.077-.99-.167-1.507-.272l-.318-.068a27.693 27.693 0 0 1-1.241-.283l-.429-.107a34.69 34.69 0 0 1-1.499-.427 33.737 33.737 0 0 1-1.398-.473l-.441-.165a35.296 35.296 0 0 1-1.068-.422l-.37-.153a37.043 37.043 0 0 1-1.342-.607l-.066-.031c-.435-.21-.863-.431-1.292-.663l-.429-.237a35.074 35.074 0 0 1-.983-.566l-.334-.201c-.413-.254-.82-.513-1.222-.783-3.701-2.495-8.726-1.512-11.22 2.192a8.084 8.084 0 0 0 2.192 11.22c.583.395 1.176.771 1.788 1.148l.591.355c.456.271.916.537 1.447.829l.515.284c.625.335 1.258.662 1.902.973l.12.059c.639.306 1.288.597 1.99.899l.604.25c.494.204.992.4 1.517.598l.622.231c.651.235 1.307.46 2.016.682l.141.045c.694.214 1.398.412 2.15.61l.628.157c.536.133 1.077.259 1.691.389.206.044.411.088.591.123a50.046 50.046 0 0 0 2.278.404c.739.113 1.489.206 2.234.286l.7.068c.564.053 1.131.095 1.699.128l.7.04c.773.036 1.549.058 2.344.058.781 0 1.558-.023 2.355-.059l.675-.039a46.602 46.602 0 0 0 1.683-.127l.71-.068c.751-.082 1.5-.174 2.24-.287.025-.003.05-.008.073-.012a47.046 47.046 0 0 0 2.863-.531c.545-.115 1.084-.24 1.657-.383l.64-.16c.707-.187 1.41-.384 2.194-.627a52.39 52.39 0 0 0 2.07-.698l.646-.239c.501-.19.999-.387 1.537-.608l.609-.253c.653-.28 1.301-.571 1.94-.877l.051-.024.071-.034c.639-.31 1.271-.636 1.913-.98l.566-.314a48.35 48.35 0 0 0 1.472-.846l.512-.307a52.498 52.498 0 0 0 1.779-1.141c10.238-6.896 17.594-17.246 20.715-29.141a50.722 50.722 0 0 0 1.659-12.878c0-6.833-1.34-13.464-3.983-19.713a50.572 50.572 0 0 0-46.658-30.926zm-209.151 25.16h-13.255a85.352 85.352 0 0 0-6.097-14.704l9.377-9.376a8.084 8.084 0 0 0 .001-11.433l-24.595-24.596a8.085 8.085 0 0 0-11.434-.001l-9.377 9.378a85.51 85.51 0 0 0-14.704-6.097V291.78a8.082 8.082 0 0 0-8.084-8.084H86.252a8.082 8.082 0 0 0-8.084 8.084v13.255a85.352 85.352 0 0 0-14.704 6.097l-9.377-9.378a8.087 8.087 0 0 0-11.434.001L18.06 326.351a8.082 8.082 0 0 0 0 11.431l9.377 9.377a85.459 85.459 0 0 0-6.098 14.705H8.084A8.082 8.082 0 0 0 0 369.948v34.783a8.083 8.083 0 0 0 8.084 8.084h13.255a85.277 85.277 0 0 0 6.097 14.705l-9.376 9.378a8.082 8.082 0 0 0 0 11.431l24.593 24.594a8.083 8.083 0 0 0 11.432.001l9.378-9.377a85.604 85.604 0 0 0 14.704 6.097v13.254a8.082 8.082 0 0 0 8.084 8.084h34.784a8.084 8.084 0 0 0 8.085-8.084v-13.252a85.445 85.445 0 0 0 14.704-6.097l9.378 9.377a8.084 8.084 0 0 0 11.431 0l24.595-24.594a8.085 8.085 0 0 0 0-11.434l-9.377-9.377a85.422 85.422 0 0 0 6.097-14.705h13.256a8.082 8.082 0 0 0 8.084-8.084v-34.783a8.084 8.084 0 0 0-8.084-8.085zm-8.084 34.78h-11.37a8.085 8.085 0 0 0-7.884 6.292 69.362 69.362 0 0 1-8.958 21.607 8.083 8.083 0 0 0 1.126 10.023l8.044 8.044-13.162 13.162-8.046-8.045a8.081 8.081 0 0 0-10.021-1.125 69.417 69.417 0 0 1-21.609 8.961 8.084 8.084 0 0 0-6.289 7.883v11.367H94.337v-11.368a8.084 8.084 0 0 0-6.289-7.883 69.45 69.45 0 0 1-21.609-8.961 8.084 8.084 0 0 0-10.021 1.125l-8.046 8.045L35.21 442.61l8.044-8.046a8.085 8.085 0 0 0 1.125-10.022 69.382 69.382 0 0 1-8.961-21.609 8.084 8.084 0 0 0-7.883-6.289H16.168V378.03h11.367a8.084 8.084 0 0 0 7.883-6.289 69.409 69.409 0 0 1 8.961-21.61 8.083 8.083 0 0 0-1.125-10.021l-8.044-8.045 13.161-13.163 8.045 8.047a8.083 8.083 0 0 0 10.022 1.125 69.292 69.292 0 0 1 21.606-8.958 8.087 8.087 0 0 0 6.292-7.884v-11.37h18.615v11.37a8.086 8.086 0 0 0 6.292 7.884 69.368 69.368 0 0 1 21.606 8.958 8.086 8.086 0 0 0 10.022-1.125l8.045-8.047 13.163 13.163-8.045 8.044a8.08 8.08 0 0 0-1.126 10.022 69.307 69.307 0 0 1 8.958 21.607 8.085 8.085 0 0 0 7.884 6.292h11.37v18.614z"/><path d="M103.64 336.703a50.56 50.56 0 0 0-46.652 30.925 50.325 50.325 0 0 0-3.983 19.713 50.836 50.836 0 0 0 2.371 15.303c1.346 4.258 5.892 6.62 10.145 5.27a8.082 8.082 0 0 0 5.27-10.145 34.219 34.219 0 0 1-.71-2.598 34.64 34.64 0 0 1-.905-7.83c0-4.656.911-9.169 2.706-13.413a34.428 34.428 0 0 1 31.764-21.055 34.426 34.426 0 0 1 31.762 21.055 34.245 34.245 0 0 1 2.706 13.413c0 2.967-.38 5.92-1.13 8.774a34.458 34.458 0 0 1-15.315 20.609l-.399.239a36.16 36.16 0 0 1-.957.549l-.395.22c-.401.215-.805.424-1.29.662l-.084.04c-.438.21-.884.409-1.284.581l-.462.192c-.341.14-.68.276-1.001.396l-.465.174c-.462.166-.927.327-1.347.458-.052.015-.058.016-.109.033-.476.147-.958.281-1.397.398l-.501.124a31.14 31.14 0 0 1-1.102.253l-.455.097c-.492.098-.985.19-1.482.266l-.068.011c-.5.075-1.005.137-1.518.192l-.474.044a31.36 31.36 0 0 1-1.155.088l-.471.027a35.658 35.658 0 0 1-3.187.001l-.496-.028a41.648 41.648 0 0 1-1.172-.089l-.465-.044a33.745 33.745 0 0 1-1.504-.19l-.077-.012c-.496-.077-.99-.167-1.507-.272l-.46-.098a28.105 28.105 0 0 1-1.099-.253l-.429-.107c-.464-.122-.925-.25-1.411-.4l-.088-.027a33.737 33.737 0 0 1-1.398-.473l-.441-.165a33.887 33.887 0 0 1-1.068-.423l-.37-.153a37.043 37.043 0 0 1-1.342-.607l-.066-.031a30.94 30.94 0 0 1-1.276-.653l-.446-.247a35.084 35.084 0 0 1-.925-.531l-.391-.235c-.413-.254-.82-.513-1.222-.783-3.702-2.495-8.727-1.512-11.22 2.192a8.083 8.083 0 0 0 2.192 11.22 50.15 50.15 0 0 0 1.808 1.159l.571.343c.456.271.916.536 1.355.778l.61.337c.624.334 1.256.66 1.898.97l.12.059c.639.306 1.288.597 1.99.899l.604.25c.494.204.992.4 1.517.598l.622.231c.651.235 1.307.46 2.016.682l.141.045c.694.214 1.398.412 2.15.61l.628.157c.536.133 1.077.259 1.603.371l.121.025a50.046 50.046 0 0 0 2.836.52c.739.113 1.489.206 2.234.286l.701.068c.564.053 1.131.095 1.699.128l.7.04c.773.036 1.549.058 2.344.058.781 0 1.556-.023 2.352-.059l.675-.039a46.487 46.487 0 0 0 1.684-.127l.71-.068a53.098 53.098 0 0 0 2.24-.287c.025-.003.05-.008.073-.012a47.046 47.046 0 0 0 2.863-.531c.545-.115 1.084-.24 1.657-.383l.64-.16a50.7 50.7 0 0 0 2.194-.628 52.39 52.39 0 0 0 2.07-.698l.646-.239c.501-.19.999-.387 1.537-.608l.608-.253c.653-.28 1.301-.571 1.94-.877l.051-.024.071-.034a51.764 51.764 0 0 0 1.934-.991l.547-.303a52.34 52.34 0 0 0 1.441-.828l.543-.327a52.498 52.498 0 0 0 1.779-1.141c10.238-6.896 17.594-17.246 20.715-29.141a50.722 50.722 0 0 0 1.659-12.878c0-6.833-1.34-13.464-3.983-19.713a50.578 50.578 0 0 0-46.659-30.922z"/></svg>