<svg height="32" width="32" xmlns="http://www.w3.org/2000/svg"><g fill="#515151"><path d="M4.274 8.663l10.034 7.948c.455.36 1.082.52 1.691.49.609.029 1.236-.13 1.691-.49l10.034-7.948c.802-.634.62-1.152-.4-1.152H4.675c-1.021 0-1.202.518-.401 1.152z"/><path d="M28.448 10.76l-10.965 8.324c-.41.309-.947.459-1.483.453-.536.006-1.073-.145-1.483-.453L3.552 10.76c-.814-.617-1.48-.286-1.48.735v13.659c0 1.021.836 1.856 1.857 1.856h24.142a1.863 1.863 0 0 0 1.857-1.856V11.495c.001-1.021-.665-1.352-1.48-.735z"/></g></svg>