<svg xmlns="http://www.w3.org/2000/svg" height="1122.52" width="1587.4"><defs><clipPath id="a" clipPathUnits="userSpaceOnUse"><path d="M0 841.89h1190.55V0H0z"/></clipPath></defs><g clip-path="url(#a)" transform="matrix(1.33333 0 0 -1.33333 0 1122.52)" opacity=".2"><path d="M992.41 483.703s-174.285-381.78 68.096-482.684" fill="none" stroke="#00b0f0" stroke-miterlimit="10"/><path d="M993.135 484.404S818.85 102.624 1061.232 1.72" fill="none" stroke="#00b2dc" stroke-miterlimit="10"/><path d="M993.861 485.105s-174.286-381.78 68.096-482.684" fill="none" stroke="#00b4cb" stroke-miterlimit="10"/><path d="M994.587 485.806S820.3 104.026 1062.683 3.122" fill="none" stroke="#00b6ba" stroke-miterlimit="10"/><path d="M995.313 486.507S821.028 104.727 1063.41 3.824" fill="none" stroke="#00b9a9" stroke-miterlimit="10"/><path d="M996.038 487.207S821.752 105.428 1064.135 4.524" fill="none" stroke="#40bb97" stroke-miterlimit="10"/><path d="M996.765 487.908S822.48 106.13 1064.86 5.225" fill="none" stroke="#5abe86" stroke-miterlimit="10"/><path d="M997.49 488.61S823.203 106.83 1065.584 5.924" fill="none" stroke="#6fc172" stroke-miterlimit="10"/><path d="M998.215 489.311S823.93 107.532 1066.312 6.628" fill="none" stroke="#81c45d" stroke-miterlimit="10"/><path d="M998.94 490.012s-174.286-381.78 68.097-482.683M675.77 3.908s254.027 1.574 64.918 482.916" fill="none" stroke="#90c84b" stroke-miterlimit="10"/><path d="M675.084 4.571s254.028 1.573 64.919 482.913" fill="none" stroke="#84c55a" stroke-miterlimit="10"/><path d="M674.4 5.232s254.028 1.574 64.92 482.916" fill="none" stroke="#76c26a" stroke-miterlimit="10"/><path d="M673.715 5.894s254.026 1.574 64.917 482.915" fill="none" stroke="#66c07c" stroke-miterlimit="10"/><path d="M673.031 6.556S927.058 8.13 737.95 489.472" fill="none" stroke="#54bd8b" stroke-miterlimit="10"/><path d="M672.345 7.218S926.37 8.79 737.263 490.132" fill="none" stroke="#3dbb99" stroke-miterlimit="10"/><path d="M671.66 7.88s254.027 1.574 64.92 482.915" fill="none" stroke="#0db9a7" stroke-miterlimit="10"/><path d="M670.975 8.541s254.027 1.574 64.918 482.914" fill="none" stroke="#00b7b5" stroke-miterlimit="10"/><path d="M670.291 9.204s254.027 1.573 64.918 482.915" fill="none" stroke="#00b5c3" stroke-miterlimit="10"/><path d="M669.605 9.865S923.63 11.44 734.524 492.78" fill="none" stroke="#00b3d1" stroke-miterlimit="10"/><path d="M668.92 10.526s254.028 1.574 64.918 482.916" fill="none" stroke="#00b1df" stroke-miterlimit="10"/><path d="M668.234 11.19s254.028 1.573 64.918 482.913" fill="none" stroke="#00b0f0" stroke-miterlimit="10"/><path d="M1024.505 309.294c21.113-51.72-91.355-99.218-91.355-99.218" fill="none" stroke="#90c84b" stroke-miterlimit="10"/><path d="M932.92 210.661s108.813 56.471 91.22 99.57" fill="none" stroke="#78c268" stroke-miterlimit="10"/><path d="M932.69 211.247s105.158 65.442 91.083 99.92" fill="none" stroke="#5abe86" stroke-miterlimit="10"/><path d="M932.46 211.832s101.504 74.413 90.949 100.272" fill="none" stroke="#2cba9f" stroke-miterlimit="10"/><path d="M932.231 212.418s97.848 83.384 90.811 100.625" fill="none" stroke="#00b6ba" stroke-miterlimit="10"/><path d="M932.002 213.004s94.193 92.354 90.675 100.975" fill="none" stroke="#00b3d3" stroke-miterlimit="10"/><path d="M931.773 213.589l90.538 101.326m-84.343-96.062s21.77 103.98 82.556 94.735" fill="none" stroke="#00b0f0" stroke-miterlimit="10"/><path d="M938.308 218.001s32.503 103.115 83.157 95.413" fill="none" stroke="#00b3d3" stroke-miterlimit="10"/><path d="M938.65 217.148s43.231 102.254 83.756 96.092" fill="none" stroke="#00b6ba" stroke-miterlimit="10"/><path d="M938.99 216.296s53.964 101.392 84.357 96.77" fill="none" stroke="#2cba9f" stroke-miterlimit="10"/><path d="M939.33 215.442s64.697 100.53 84.96 97.45" fill="none" stroke="#5abe86" stroke-miterlimit="10"/><path d="M939.672 214.59s75.43 99.668 85.56 98.127" fill="none" stroke="#78c268" stroke-miterlimit="10"/><path d="M940.013 213.736l86.16 98.806M830.235 442c22.365-32.859-48.397-81.478-48.397-81.478" fill="none" stroke="#90c84b" stroke-miterlimit="10"/><path d="M781.592 360.896s66.888 54.319 48.25 81.702" fill="none" stroke="#78c268" stroke-miterlimit="10"/><path d="M781.345 361.269s63.013 60.02 48.103 81.927" fill="none" stroke="#5abe86" stroke-miterlimit="10"/><path d="M781.099 361.642s59.138 65.722 47.955 82.15" fill="none" stroke="#2cba9f" stroke-miterlimit="10"/><path d="M780.852 362.016s55.263 71.422 47.808 82.375" fill="none" stroke="#00b6ba" stroke-miterlimit="10"/><path d="M780.606 362.389s51.388 77.124 47.66 82.6" fill="none" stroke="#00b3d3" stroke-miterlimit="10"/><path d="M780.36 362.762l47.512 82.825m-44.012-78.313s-.502 75.043 42.974 77.144" fill="none" stroke="#00b0f0" stroke-miterlimit="10"/><path d="M784.225 366.731s7.058 75.947 43.287 77.697" fill="none" stroke="#00b3d3" stroke-miterlimit="10"/><path d="M784.588 366.188s14.619 76.851 43.603 78.251" fill="none" stroke="#00b6ba" stroke-miterlimit="10"/><path d="M784.952 365.646s22.18 77.754 43.916 78.805" fill="none" stroke="#2cba9f" stroke-miterlimit="10"/><path d="M785.316 365.102s29.738 78.66 44.23 79.36" fill="none" stroke="#5abe86" stroke-miterlimit="10"/><path d="M785.68 364.559s37.3 79.563 44.545 79.914" fill="none" stroke="#78c268" stroke-miterlimit="10"/><path d="M786.044 364.016l44.859 80.467m-9.774-98.927c48.223 30.33 118.884-66.643 118.884-66.643" fill="none" stroke="#90c84b" stroke-miterlimit="10"/><path d="M939.464 278.58s-79.027 91.717-119.212 66.442" fill="none" stroke="#78c268" stroke-miterlimit="10"/><path d="M938.918 278.244s-87.396 86.464-119.545 66.246" fill="none" stroke="#5abe86" stroke-miterlimit="10"/><path d="M938.37 277.912s-95.762 81.207-119.874 66.042" fill="none" stroke="#2cba9f" stroke-miterlimit="10"/><path d="M937.82 277.577s-104.127 75.954-120.2 65.845" fill="none" stroke="#00b6ba" stroke-miterlimit="10"/><path d="M937.273 277.243s-112.494 70.7-120.53 65.644" fill="none" stroke="#00b3d3" stroke-miterlimit="10"/><path d="M936.725 276.91l-120.86 65.443m114.281-60.633s-109.795-.187-112.578 59.208" fill="none" stroke="#00b0f0" stroke-miterlimit="10"/><path d="M930.943 282.212s-111.066 10.146-113.387 59.642" fill="none" stroke="#00b3d3" stroke-miterlimit="10"/><path d="M931.74 282.707s-112.34 20.477-114.195 60.072" fill="none" stroke="#00b6ba" stroke-miterlimit="10"/><path d="M932.536 283.2s-113.61 30.81-115.002 60.506" fill="none" stroke="#2cba9f" stroke-miterlimit="10"/><path d="M933.334 283.692s-114.885 41.143-115.813 60.94" fill="none" stroke="#5abe86" stroke-miterlimit="10"/><path d="M934.132 284.187s-116.158 51.47-116.621 61.37" fill="none" stroke="#78c268" stroke-miterlimit="10"/><path d="M934.927 284.68l-117.43 61.804m-97.244-24.152c56.435 10.842 84.737-104.561 84.737-104.561" fill="none" stroke="#90c84b" stroke-miterlimit="10"/><path d="M804.354 217.658s-38.092 113.528-85.12 104.493" fill="none" stroke="#78c268" stroke-miterlimit="10"/><path d="M803.716 217.545s-47.88 111.654-85.503 104.426" fill="none" stroke="#5abe86" stroke-miterlimit="10"/><path d="M803.08 217.433s-57.67 109.779-85.887 104.358" fill="none" stroke="#2cba9f" stroke-miterlimit="10"/><path d="M802.441 217.32s-67.457 107.903-86.269 104.29" fill="none" stroke="#00b6ba" stroke-miterlimit="10"/><path d="M801.805 217.206s-77.246 106.03-86.651 104.224" fill="none" stroke="#00b3d3" stroke-miterlimit="10"/><path d="M801.167 217.093l-87.034 104.156m82.777-97.329s-102.003 39.253-81.743 95.393" fill="none" stroke="#00b0f0" stroke-miterlimit="10"/><path d="M797.84 224.093s-99.211 49.3-82.328 96.084" fill="none" stroke="#00b3d3" stroke-miterlimit="10"/><path d="M798.769 224.265s-96.418 59.35-82.911 96.776" fill="none" stroke="#00b6ba" stroke-miterlimit="10"/><path d="M799.698 224.436s-93.626 69.398-83.496 97.468" fill="none" stroke="#2cba9f" stroke-miterlimit="10"/><path d="M800.628 224.61s-90.833 79.445-84.08 98.158" fill="none" stroke="#5abe86" stroke-miterlimit="10"/><path d="M801.557 224.781s-88.04 89.495-84.664 98.852" fill="none" stroke="#78c268" stroke-miterlimit="10"/><path d="M802.486 224.953l-85.248 99.544" fill="none" stroke="#90c84b" stroke-miterlimit="10"/><path d="M1001.085 653.488s-68.226-125.484.081-153.961" fill="none" stroke="#00b0f0" stroke-miterlimit="10"/><path d="M1001.085 653.488s-55.811-125.478.081-153.961" fill="none" stroke="#00b1df" stroke-miterlimit="10"/><path d="M1001.085 653.488s-43.393-125.471.081-153.961" fill="none" stroke="#00b3d1" stroke-miterlimit="10"/><path d="M1001.085 653.488s-30.976-125.465.081-153.961" fill="none" stroke="#00b5c3" stroke-miterlimit="10"/><path d="M1001.085 653.488s-18.561-125.46.081-153.961" fill="none" stroke="#00b7b5" stroke-miterlimit="10"/><path d="M1001.085 653.488s-6.143-125.453.081-153.961" fill="none" stroke="#0db9a7" stroke-miterlimit="10"/><path d="M1001.085 653.488s6.273-125.446.081-153.961" fill="none" stroke="#3dbb99" stroke-miterlimit="10"/><path d="M1001.085 653.488s18.69-125.44.081-153.961" fill="none" stroke="#54bd8b" stroke-miterlimit="10"/><path d="M1001.085 653.488s31.107-125.435.081-153.961" fill="none" stroke="#66c07c" stroke-miterlimit="10"/><path d="M1001.085 653.488s43.522-125.43.081-153.961" fill="none" stroke="#76c26a" stroke-miterlimit="10"/><path d="M1001.085 653.488s55.939-125.422.081-153.961" fill="none" stroke="#84c55a" stroke-miterlimit="10"/><path d="M1001.085 653.488s68.355-125.416.081-153.961" fill="none" stroke="#90c84b" stroke-miterlimit="10"/><path d="M999.488 345.565s68.226 125.484-.084 153.961" fill="none" stroke="#00b0f0" stroke-miterlimit="10"/><path d="M999.488 345.565s55.81 125.478-.084 153.961" fill="none" stroke="#00b1df" stroke-miterlimit="10"/><path d="M999.488 345.565s43.393 125.472-.084 153.961" fill="none" stroke="#00b3d1" stroke-miterlimit="10"/><path d="M999.488 345.565s30.976 125.465-.084 153.961" fill="none" stroke="#00b5c3" stroke-miterlimit="10"/><path d="M999.488 345.565s18.56 125.46-.084 153.961" fill="none" stroke="#00b7b5" stroke-miterlimit="10"/><path d="M999.488 345.565s6.144 125.453-.084 153.961" fill="none" stroke="#0db9a7" stroke-miterlimit="10"/><path d="M999.488 345.565s-6.275 125.447-.084 153.961" fill="none" stroke="#3dbb99" stroke-miterlimit="10"/><path d="M999.488 345.565s-18.689 125.44-.084 153.961" fill="none" stroke="#54bd8b" stroke-miterlimit="10"/><path d="M999.488 345.565S968.381 471 999.404 499.526" fill="none" stroke="#66c07c" stroke-miterlimit="10"/><path d="M999.488 345.565s-43.523 125.428-.084 153.961" fill="none" stroke="#76c26a" stroke-miterlimit="10"/><path d="M999.488 345.565s-55.94 125.421-.084 153.961" fill="none" stroke="#84c55a" stroke-miterlimit="10"/><path d="M999.488 345.565s-68.357 125.416-.084 153.961" fill="none" stroke="#90c84b" stroke-miterlimit="10"/><path d="M1087.073 629.197s-127.515-70.084-85.907-129.67" fill="none" stroke="#00b0f0" stroke-miterlimit="10"/><path d="M1087.073 629.197s-117.057-76.552-85.907-129.67" fill="none" stroke="#00b1df" stroke-miterlimit="10"/><path d="M1087.073 629.197s-106.6-83.02-85.907-129.67" fill="none" stroke="#00b3d1" stroke-miterlimit="10"/><path d="M1087.073 629.197s-96.142-89.488-85.907-129.67" fill="none" stroke="#00b5c3" stroke-miterlimit="10"/><path d="M1087.073 629.197s-85.685-95.956-85.907-129.67" fill="none" stroke="#00b7b5" stroke-miterlimit="10"/><path d="M1087.073 629.197s-75.227-102.424-85.907-129.67" fill="none" stroke="#0db9a7" stroke-miterlimit="10"/><path d="M1087.073 629.197s-64.77-108.892-85.907-129.67" fill="none" stroke="#3dbb99" stroke-miterlimit="10"/><path d="M1087.073 629.197s-54.313-115.359-85.907-129.67" fill="none" stroke="#54bd8b" stroke-miterlimit="10"/><path d="M1087.073 629.197s-43.854-121.827-85.907-129.67" fill="none" stroke="#66c07c" stroke-miterlimit="10"/><path d="M1087.073 629.197s-33.397-128.295-85.907-129.67" fill="none" stroke="#76c26a" stroke-miterlimit="10"/><path d="M1087.073 629.197s-22.938-134.763-85.907-129.67" fill="none" stroke="#84c55a" stroke-miterlimit="10"/><path d="M1087.073 629.197s-12.482-141.23-85.907-129.67" fill="none" stroke="#90c84b" stroke-miterlimit="10"/><path d="M1145.28 564.224s-146.56 6.261-144.169-65.582" fill="none" stroke="#00b0f0" stroke-miterlimit="10"/><path d="M1145.28 564.224s-141.27-4.593-144.169-65.582" fill="none" stroke="#00b1df" stroke-miterlimit="10"/><path d="M1145.28 564.224s-135.983-15.447-144.169-65.582" fill="none" stroke="#00b3d1" stroke-miterlimit="10"/><path d="M1145.28 564.224s-130.693-26.3-144.169-65.582" fill="none" stroke="#00b5c3" stroke-miterlimit="10"/><path d="M1145.28 564.224s-125.404-37.155-144.169-65.582" fill="none" stroke="#00b7b5" stroke-miterlimit="10"/><path d="M1145.28 564.224s-120.114-48.009-144.169-65.582" fill="none" stroke="#0db9a7" stroke-miterlimit="10"/><path d="M1145.28 564.224s-114.826-58.863-144.169-65.582" fill="none" stroke="#3dbb99" stroke-miterlimit="10"/><path d="M1145.28 564.224s-109.537-69.717-144.169-65.582" fill="none" stroke="#54bd8b" stroke-miterlimit="10"/><path d="M1145.28 564.224s-104.247-80.57-144.169-65.582" fill="none" stroke="#66c07c" stroke-miterlimit="10"/><path d="M1145.28 564.224s-98.958-91.425-144.169-65.582" fill="none" stroke="#76c26a" stroke-miterlimit="10"/><path d="M1145.28 564.224s-93.67-102.279-144.169-65.582" fill="none" stroke="#84c55a" stroke-miterlimit="10"/><path d="M1145.28 564.224s-88.38-113.133-144.169-65.582" fill="none" stroke="#90c84b" stroke-miterlimit="10"/><path d="M1146.916 436.534s-91.256 110.983-145.805 62.108" fill="none" stroke="#00b0f0" stroke-miterlimit="10"/><path d="M1146.916 436.534s-96.264 100.006-145.805 62.108" fill="none" stroke="#00b1df" stroke-miterlimit="10"/><path d="M1146.916 436.534s-101.273 89.028-145.805 62.108" fill="none" stroke="#00b3d1" stroke-miterlimit="10"/><path d="M1146.916 436.534s-106.282 78.051-145.805 62.108" fill="none" stroke="#00b5c3" stroke-miterlimit="10"/><path d="M1146.916 436.534s-111.29 67.073-145.805 62.108" fill="none" stroke="#00b7b5" stroke-miterlimit="10"/><path d="M1146.916 436.534s-116.301 56.096-145.805 62.108" fill="none" stroke="#0db9a7" stroke-miterlimit="10"/><path d="M1146.916 436.534s-121.308 45.118-145.805 62.108" fill="none" stroke="#3dbb99" stroke-miterlimit="10"/><path d="M1146.916 436.534s-126.317 34.141-145.805 62.108" fill="none" stroke="#54bd8b" stroke-miterlimit="10"/><path d="M1146.916 436.534s-131.326 23.164-145.805 62.108" fill="none" stroke="#66c07c" stroke-miterlimit="10"/><path d="M1146.916 436.534s-136.334 12.187-145.805 62.108" fill="none" stroke="#76c26a" stroke-miterlimit="10"/><path d="M1146.916 436.534s-141.344 1.208-145.805 62.108" fill="none" stroke="#84c55a" stroke-miterlimit="10"/><path d="M1146.916 436.534s-146.354-9.769-145.805 62.108" fill="none" stroke="#90c84b" stroke-miterlimit="10"/><path d="M855.267 564.155s146.56 6.262 144.169-65.581" fill="none" stroke="#00b0f0" stroke-miterlimit="10"/><path d="M855.267 564.155s141.27-4.592 144.169-65.581" fill="none" stroke="#00b1df" stroke-miterlimit="10"/><path d="M855.267 564.155s135.98-15.447 144.169-65.581" fill="none" stroke="#00b3d1" stroke-miterlimit="10"/><path d="M855.267 564.155s130.692-26.301 144.169-65.581" fill="none" stroke="#00b5c3" stroke-miterlimit="10"/><path d="M855.267 564.155S980.67 527 999.436 498.574" fill="none" stroke="#00b7b5" stroke-miterlimit="10"/><path d="M855.267 564.155s120.114-48.01 144.169-65.581" fill="none" stroke="#0db9a7" stroke-miterlimit="10"/><path d="M855.267 564.155s114.827-58.863 144.169-65.581" fill="none" stroke="#3dbb99" stroke-miterlimit="10"/><path d="M855.267 564.155s109.537-69.718 144.169-65.581" fill="none" stroke="#54bd8b" stroke-miterlimit="10"/><path d="M855.267 564.155s104.249-80.572 144.169-65.581" fill="none" stroke="#66c07c" stroke-miterlimit="10"/><path d="M855.267 564.155s98.96-91.426 144.169-65.581" fill="none" stroke="#76c26a" stroke-miterlimit="10"/><path d="M855.267 564.155s93.67-102.281 144.169-65.581" fill="none" stroke="#84c55a" stroke-miterlimit="10"/><path d="M855.267 564.155s88.382-113.135 144.169-65.581" fill="none" stroke="#90c84b" stroke-miterlimit="10"/><path d="M866.127 414.228s71.209 123.927 133.309 84.345" fill="none" stroke="#00b0f0" stroke-miterlimit="10"/><path d="M866.127 414.228s78.013 113.891 133.309 84.345" fill="none" stroke="#00b1df" stroke-miterlimit="10"/><path d="M866.127 414.228s84.813 103.854 133.309 84.345" fill="none" stroke="#00b3d1" stroke-miterlimit="10"/><path d="M866.127 414.228s91.616 93.817 133.309 84.345" fill="none" stroke="#00b5c3" stroke-miterlimit="10"/><path d="M866.127 414.228s98.419 83.781 133.309 84.345" fill="none" stroke="#00b7b5" stroke-miterlimit="10"/><path d="M866.127 414.228s105.221 73.745 133.309 84.345" fill="none" stroke="#0db9a7" stroke-miterlimit="10"/><path d="M866.127 414.228s112.023 63.708 133.309 84.345" fill="none" stroke="#3dbb99" stroke-miterlimit="10"/><path d="M866.127 414.228s118.824 53.671 133.309 84.345" fill="none" stroke="#54bd8b" stroke-miterlimit="10"/><path d="M866.127 414.228s125.628 43.635 133.309 84.345" fill="none" stroke="#66c07c" stroke-miterlimit="10"/><path d="M866.127 414.228s132.43 33.598 133.309 84.345" fill="none" stroke="#76c26a" stroke-miterlimit="10"/><path d="M866.127 414.228s139.23 23.561 133.309 84.345" fill="none" stroke="#84c55a" stroke-miterlimit="10"/><path d="M866.127 414.228s146.034 13.525 133.309 84.345" fill="none" stroke="#90c84b" stroke-miterlimit="10"/><path d="M915.26 629.197s127.515-70.084 85.906-129.67" fill="none" stroke="#00b0f0" stroke-miterlimit="10"/><path d="M915.26 629.197s117.057-76.552 85.906-129.67" fill="none" stroke="#00b1df" stroke-miterlimit="10"/><path d="M915.26 629.197s106.6-83.02 85.906-129.67" fill="none" stroke="#00b3d1" stroke-miterlimit="10"/><path d="M915.26 629.197s96.143-89.488 85.906-129.67" fill="none" stroke="#00b5c3" stroke-miterlimit="10"/><path d="M915.26 629.197s85.685-95.956 85.906-129.67" fill="none" stroke="#00b7b5" stroke-miterlimit="10"/><path d="M915.26 629.197s75.228-102.424 85.906-129.67" fill="none" stroke="#0db9a7" stroke-miterlimit="10"/><path d="M915.26 629.197s64.77-108.892 85.906-129.67" fill="none" stroke="#3dbb99" stroke-miterlimit="10"/><path d="M915.26 629.197s54.313-115.359 85.906-129.67" fill="none" stroke="#54bd8b" stroke-miterlimit="10"/><path d="M915.26 629.197s43.855-121.827 85.906-129.67" fill="none" stroke="#66c07c" stroke-miterlimit="10"/><path d="M915.26 629.197s33.397-128.295 85.906-129.67" fill="none" stroke="#76c26a" stroke-miterlimit="10"/><path d="M915.26 629.197s22.939-134.763 85.906-129.67" fill="none" stroke="#84c55a" stroke-miterlimit="10"/><path d="M915.26 629.197s12.48-141.23 85.906-129.67" fill="none" stroke="#90c84b" stroke-miterlimit="10"/><path d="M668.852 11.925l-1.234.66c.172.302 17.587 30.373 47.306 60.902 27.46 28.209 71.35 62.597 124.488 66.229 59.236 4.04 117.695-30.165 173.729-101.694l-1.124-.825c-55.73 71.138-113.77 105.173-172.505 101.159-52.683-3.601-96.27-37.771-123.56-65.802-29.6-30.406-46.93-60.33-47.1-60.63" fill="#90c84b"/><path d="M668.962 11.948s159.143 261.157 343.404 25.192" fill="none" stroke="#8ec354" stroke-miterlimit="10"/><path d="M669.688 11.64s164.214 254.079 342.467 25.033" fill="none" stroke="#8bbf5e" stroke-miterlimit="10"/><path d="M670.414 11.331s169.286 247 341.527 24.874" fill="none" stroke="#89bc68" stroke-miterlimit="10"/><path d="M671.144 11.023s174.354 239.921 340.587 24.712" fill="none" stroke="#85b973" stroke-miterlimit="10"/><path d="M671.871 10.716s179.422 232.84 339.646 24.552" fill="none" stroke="#82b57d" stroke-miterlimit="10"/><path d="M672.597 10.406S857.09 236.17 1011.306 34.8" fill="none" stroke="#7eb385" stroke-miterlimit="10"/><path d="M673.323 10.1s189.564 218.68 337.77 24.23" fill="none" stroke="#7caf8d" stroke-miterlimit="10"/><path d="M674.05 9.792s194.636 211.602 336.829 24.07" fill="none" stroke="#78ac94" stroke-miterlimit="10"/><path d="M674.778 9.484s199.703 204.521 335.89 23.91" fill="none" stroke="#76aa9c" stroke-miterlimit="10"/><path d="M675.506 9.177s204.773 197.442 334.948 23.749" fill="none" stroke="#73a6a4" stroke-miterlimit="10"/><path d="M676.232 8.868s209.845 190.362 334.01 23.59" fill="none" stroke="#6fa4ab" stroke-miterlimit="10"/><path d="M676.959 8.56s214.914 183.283 333.071 23.43" fill="none" stroke="#6da0b2" stroke-miterlimit="10"/><path d="M677.687 8.252s219.985 176.203 332.132 23.269" fill="none" stroke="#699eb9" stroke-miterlimit="10"/><path d="M678.414 7.943s225.053 169.126 331.191 23.108" fill="none" stroke="#659abf" stroke-miterlimit="10"/><path d="M679.14 7.636s230.126 162.045 330.254 22.949" fill="none" stroke="#6397c5" stroke-miterlimit="10"/><path d="M679.867 7.33s235.195 154.964 329.314 22.786" fill="none" stroke="#5e94cd" stroke-miterlimit="10"/><path d="M618.896 590.17s91.731 28.334 119.957-101.205" fill="none" stroke="#29c4f4" stroke-miterlimit="10"/><path d="M618.372 589.774s82.052 17.4 120.148-100.99" fill="none" stroke="#41c4e2" stroke-miterlimit="10"/><path d="M617.852 589.378s72.367 6.465 120.338-100.774" fill="none" stroke="#4fc5d4" stroke-miterlimit="10"/><path d="M617.33 588.981s62.686-4.47 120.528-100.559" fill="none" stroke="#5bc5c4" stroke-miterlimit="10"/><path d="M616.808 588.585s53.003-15.405 120.719-100.344" fill="none" stroke="#63c5b6" stroke-miterlimit="10"/><path d="M616.287 588.19s43.32-26.34 120.908-100.13" fill="none" stroke="#6bc5a7" stroke-miterlimit="10"/><path d="M615.765 587.793s33.64-37.275 121.1-99.915" fill="none" stroke="#73c598" stroke-miterlimit="10"/><path d="M615.242 587.397s23.958-48.209 121.29-99.699" fill="none" stroke="#7ac58a" stroke-miterlimit="10"/><path d="M614.722 587.001s14.274-59.145 121.479-99.484" fill="none" stroke="#80c67a" stroke-miterlimit="10"/><path d="M614.2 586.605s4.592-70.08 121.67-99.27" fill="none" stroke="#86c669" stroke-miterlimit="10"/><path d="M613.677 586.208s-5.09-81.015 121.862-99.054" fill="none" stroke="#8cc759" stroke-miterlimit="10"/><path d="M613.155 585.813s-14.77-91.95 122.052-98.84" fill="none" stroke="#90c84b" stroke-miterlimit="10"/><path d="M673.988 657.348S767.8 638.03 729.263 495.36" fill="none" stroke="#29c4f4" stroke-miterlimit="10"/><path d="M673.34 657.225s80.035-25.135 55.547-161.873" fill="none" stroke="#41c4e2" stroke-miterlimit="10"/><path d="M672.691 657.102s66.262-30.953 55.818-161.758" fill="none" stroke="#4fc5d4" stroke-miterlimit="10"/><path d="M672.044 656.98s52.486-36.77 56.089-161.644" fill="none" stroke="#5bc5c4" stroke-miterlimit="10"/><path d="M671.395 656.857s38.713-42.586 56.36-161.53" fill="none" stroke="#63c5b6" stroke-miterlimit="10"/><path d="M670.747 656.735s24.938-48.403 56.63-161.415" fill="none" stroke="#6bc5a7" stroke-miterlimit="10"/><path d="M670.1 656.613s11.165-54.221 56.9-161.301" fill="none" stroke="#73c598" stroke-miterlimit="10"/><path d="M669.45 656.49s-2.608-60.038 57.174-161.187" fill="none" stroke="#7ac58a" stroke-miterlimit="10"/><path d="M668.803 656.368s-16.384-65.855 57.443-161.072" fill="none" stroke="#80c67a" stroke-miterlimit="10"/><path d="M668.154 656.245s-30.158-71.672 57.713-160.958" fill="none" stroke="#86c669" stroke-miterlimit="10"/><path d="M667.506 656.123s-43.933-77.489 57.985-160.844" fill="none" stroke="#8cc759" stroke-miterlimit="10"/><path d="M666.857 656s-57.707-83.307 58.256-160.729" fill="none" stroke="#90c84b" stroke-miterlimit="10"/><path d="M763.172 637.136s73.87-59.702-24.271-152.071" fill="none" stroke="#29c4f4" stroke-miterlimit="10"/><path d="M762.547 637.35s59.127-57.653-23.983-152.112" fill="none" stroke="#41c4e2" stroke-miterlimit="10"/><path d="M761.922 637.563s44.385-55.603-23.693-152.153" fill="none" stroke="#4fc5d4" stroke-miterlimit="10"/><path d="M761.295 637.778s29.644-53.555-23.4-152.194" fill="none" stroke="#5bc5c4" stroke-miterlimit="10"/><path d="M760.67 637.991s14.9-51.504-23.112-152.233" fill="none" stroke="#63c5b6" stroke-miterlimit="10"/><path d="M760.043 638.206s.161-49.456-22.822-152.273" fill="none" stroke="#6bc5a7" stroke-miterlimit="10"/><path d="M759.418 638.42s-14.58-47.408-22.533-152.315" fill="none" stroke="#73c598" stroke-miterlimit="10"/><path d="M758.794 638.633s-29.324-45.357-22.244-152.354" fill="none" stroke="#7ac58a" stroke-miterlimit="10"/><path d="M758.168 638.847s-44.067-43.308-21.953-152.394" fill="none" stroke="#80c67a" stroke-miterlimit="10"/><path d="M757.543 639.06s-58.81-41.257-21.666-152.433" fill="none" stroke="#86c669" stroke-miterlimit="10"/><path d="M756.916 639.274s-73.55-39.208-21.375-152.475" fill="none" stroke="#8cc759" stroke-miterlimit="10"/><path d="M756.291 639.489s-88.293-37.16-21.084-152.516" fill="none" stroke="#90c84b" stroke-miterlimit="10"/><path d="M648.604 614.554s96.119 5.762 90.642-126.512" fill="none" stroke="#29c4f4" stroke-miterlimit="10"/><path d="M647.995 614.294s83.961-2.551 90.885-126.35" fill="none" stroke="#41c4e2" stroke-miterlimit="10"/><path d="M647.39 614.034s71.8-10.86 91.123-126.187" fill="none" stroke="#4fc5d4" stroke-miterlimit="10"/><path d="M646.782 613.773s59.644-19.171 91.363-126.022" fill="none" stroke="#5bc5c4" stroke-miterlimit="10"/><path d="M646.176 613.512s47.482-27.48 91.603-125.858" fill="none" stroke="#63c5b6" stroke-miterlimit="10"/><path d="M645.57 613.251s35.323-35.79 91.841-125.694" fill="none" stroke="#6bc5a7" stroke-miterlimit="10"/><path d="M644.963 612.991s23.165-44.102 92.08-125.533" fill="none" stroke="#73c598" stroke-miterlimit="10"/><path d="M644.358 612.731s11.005-52.412 92.317-125.369" fill="none" stroke="#7ac58a" stroke-miterlimit="10"/><path d="M643.752 612.47s-1.155-60.722 92.556-125.205" fill="none" stroke="#80c67a" stroke-miterlimit="10"/><path d="M643.146 612.209s-13.314-69.031 92.793-125.042" fill="none" stroke="#86c669" stroke-miterlimit="10"/><path d="M642.537 611.948s-25.472-77.341 93.036-124.878" fill="none" stroke="#8cc759" stroke-miterlimit="10"/><path d="M641.933 611.688s-37.634-85.653 93.274-124.716" fill="none" stroke="#90c84b" stroke-miterlimit="10"/><path d="M720.167 640.802s87.797-38.236 19.078-152.76" fill="none" stroke="#29c4f4" stroke-miterlimit="10"/><path d="M719.503 640.846s73.032-40.106 19.372-152.725" fill="none" stroke="#41c4e2" stroke-miterlimit="10"/><path d="M718.843 640.89s58.263-41.976 19.66-152.69" fill="none" stroke="#4fc5d4" stroke-miterlimit="10"/><path d="M718.18 640.933s43.497-43.845 19.952-152.652" fill="none" stroke="#5bc5c4" stroke-miterlimit="10"/><path d="M717.517 640.975s28.729-45.713 20.244-152.615" fill="none" stroke="#63c5b6" stroke-miterlimit="10"/><path d="M716.854 641.017s13.962-47.58 20.534-152.577" fill="none" stroke="#6bc5a7" stroke-miterlimit="10"/><path d="M716.193 641.061s-.807-49.45 20.822-152.542" fill="none" stroke="#73c598" stroke-miterlimit="10"/><path d="M715.532 641.104s-15.576-51.318 21.113-152.505" fill="none" stroke="#7ac58a" stroke-miterlimit="10"/><path d="M714.87 641.146s-30.345-53.187 21.401-152.467" fill="none" stroke="#80c67a" stroke-miterlimit="10"/><path d="M714.208 641.188s-45.112-55.054 21.692-152.429" fill="none" stroke="#86c669" stroke-miterlimit="10"/><path d="M713.544 641.232s-59.878-56.924 21.983-152.394" fill="none" stroke="#8cc759" stroke-miterlimit="10"/><path d="M712.884 641.275s-74.647-58.792 22.273-152.357m309.253-472.27s-11.29 374.981 107.256 284.985" fill="none" stroke="#90c84b" stroke-miterlimit="10"/><path d="M1045.446 15.325s-11.406 374.982 108.358 284.987" fill="none" stroke="#84c55a" stroke-miterlimit="10"/><path d="M1046.482 14.003s-11.524 374.982 109.463 284.986" fill="none" stroke="#76c26a" stroke-miterlimit="10"/><path d="M1047.518 12.68s-11.64 374.983 110.57 284.987" fill="none" stroke="#66c07c" stroke-miterlimit="10"/><path d="M1048.554 11.36s-11.755 374.978 111.676 284.985" fill="none" stroke="#54bd8b" stroke-miterlimit="10"/><path d="M1049.59 10.035s-11.87 374.983 112.778 284.987" fill="none" stroke="#3dbb99" stroke-miterlimit="10"/><path d="M1050.627 8.712s-11.987 374.982 113.883 284.987" fill="none" stroke="#0db9a7" stroke-miterlimit="10"/><path d="M1051.664 7.39s-12.104 374.984 114.987 284.987" fill="none" stroke="#00b7b5" stroke-miterlimit="10"/><path d="M1052.7 6.067s-12.218 374.982 116.09 284.987" fill="none" stroke="#00b5c3" stroke-miterlimit="10"/><path d="M1053.737 4.747s-12.335 374.98 117.195 284.984" fill="none" stroke="#00b3d1" stroke-miterlimit="10"/><path d="M1054.773 3.423s-12.45 374.982 118.3 284.987" fill="none" stroke="#00b1df" stroke-miterlimit="10"/><path d="M1055.81 2.102s-12.567 374.98 119.405 284.986" fill="none" stroke="#00b0f0" stroke-miterlimit="10"/><path d="M861.618 236.959c-27.377 0-55.057 1.229-82.186 4.155-69.435 7.491-126.307 25.118-169.037 52.39-50.477 32.22-81.86 78.37-93.276 137.166-31.629 162.886-170.18 257.882-280.84 308.891C116.3 794.866 2.326 811.83 1.19 811.994l.21 1.349c1.138-.165 115.288-17.152 235.455-72.537 70.597-32.538 129.435-71.767 174.88-116.599 56.831-56.067 92.754-121.098 106.771-193.285 14.55-74.933 61.508-128.804 139.568-160.118 102.228-41.008 239.678-35.703 336.986-24.03 107.134 12.852 191.16 36.278 193.754 37.986l.293-.415.83-.346c-.805-1.801-59.636-17.748-134.975-30.09-51.707-8.471-121.447-16.95-193.343-16.95" fill="#00b0f0"/><path d="M863.86 229.667c-22.81 0-45.89.863-68.773 2.863-72.833 6.366-132.655 23.37-177.8 50.54-53.697 32.316-87.1 79.38-99.282 139.886-32.54 161.609-171.28 254.026-281.938 303.096C116.087 779.256 2.334 794.395 1.2 794.541l.188 1.352c1.136-.147 115.068-15.307 235.237-68.587 70.597-31.303 129.51-69.444 175.103-113.366 57.018-54.928 93.24-119.097 107.662-190.725 17.953-89.16 81.593-148.117 189.154-175.232 103.395-26.062 226.683-17.247 311.911-5.26 94.85 13.339 165.238 33.672 167.846 36.649l1.271-.576c-1.319-3.263-58.007-19.038-128.98-31.194-51.602-8.84-122.702-17.935-196.732-17.935" fill="#00b0e8"/><path d="M865.999 222.392c-21.065 0-42.211.739-63.112 2.396-74.211 5.882-135.315 22.61-181.616 49.717-55.193 32.315-89.64 79.665-102.38 140.736-33.455 160.345-172.399 250.185-283.067 297.316C115.846 763.652 2.343 776.96 1.211 777.089l.164 1.354c1.136-.128 114.849-13.461 235.018-64.638 70.599-30.066 129.588-67.12 175.328-110.13 57.203-53.791 93.726-117.1 108.553-188.165 22.431-107.514 110.457-170.55 261.635-187.36 99.013-11.01 202.428.669 271.745 12.405 78.747 13.332 132.583 30.029 134.227 33.509l1.318-.487c-2.779-7.077-160.578-51.185-323.2-51.185" fill="#00b1e3"/><path d="M867.083 215.155c-19.128 0-38.576.62-58.026 2.051-75.159 5.533-137.198 22.058-184.394 49.118-56.333 32.3-91.622 79.806-104.886 141.201-34.367 159.071-173.499 246.332-284.165 291.522C115.636 748.041 2.353 759.525 1.223 759.635l.141 1.357c1.133-.11 114.628-11.616 234.798-60.689 70.6-28.83 129.665-64.795 175.553-106.896 57.389-52.652 94.211-115.098 109.443-185.603C551.648 266.676 694.607 227 809.164 218.565c101.484-7.472 203.443 7.213 255.188 16.63 73.495 13.375 121.503 29.381 123.15 33.638l1.322-.477c-2.291-5.919-57.048-22.279-124.213-34.503-41.897-7.624-116.693-18.698-197.528-18.698" fill="#00b1de"/><path d="M869.213 207.867c-17.956 0-36.237.552-54.594 1.816-75.938 5.231-138.78 21.584-186.778 48.605-57.34 32.277-93.4 79.893-107.178 141.523-35.275 157.784-174.58 242.462-285.23 285.715-119.977 46.9-233.071 56.565-234.2 56.657l.12 1.36c1.13-.093 114.406-9.772 234.577-56.74 70.602-27.595 129.742-62.47 175.779-103.662 57.574-51.514 94.696-113.098 110.333-183.043 31.696-141.775 176.653-181.062 292.678-189.054 101.266-6.973 200.755 7.78 251.04 17.197 71.959 13.477 119.185 29.68 121.367 35.365l1.324-.474c-2.656-6.92-52.484-23.132-122.423-36.229-41.241-7.724-115.548-19.036-196.815-19.036" fill="#00b2d9"/><path d="M871.29 200.581c-16.874 0-34.077.491-51.404 1.61-76.626 4.953-140.2 21.146-188.962 48.132-58.282 32.256-95.082 79.956-109.374 141.773-36.188 156.508-175.68 238.608-286.328 279.922-119.976 44.796-232.85 52.64-233.976 52.712l.095 1.362c1.128-.075 114.186-7.927 234.357-52.79 70.604-26.359 129.82-60.147 176.004-100.427 57.761-50.376 95.183-111.099 111.224-180.48 32.911-142.343 179.706-181.26 297.054-188.84 177.61-11.472 361.386 40.715 366.773 54.824l1.323-.47c-3.338-8.744-57.51-25.774-120.758-37.964-40.583-7.82-114.345-19.364-196.029-19.364" fill="#00b3d4"/><path d="M873.312 193.293c-15.827 0-31.976.438-48.29 1.425-77.262 4.675-141.54 20.716-191.05 47.673-59.197 32.233-96.723 80.004-111.536 141.99-37.1 155.231-176.78 234.752-287.423 274.127C115.037 701.205 2.38 707.224 1.257 707.279l.073 1.362c1.126-.056 113.964-6.081 234.138-48.841 70.603-25.123 129.895-57.822 176.228-97.192 57.946-49.237 95.668-109.099 112.115-177.921 34.145-142.881 182.695-181.43 301.3-188.609 171.14-10.351 354.695 39.795 361.264 57.075l1.328-.47c-3.765-9.898-54.99-26.961-119.154-39.691-39.925-7.919-113.138-19.699-195.237-19.699" fill="#00b3d0"/><path d="M875.28 186.007c-14.798 0-29.899.386-45.197 1.25-120.289 6.802-271.155 45.183-306.76 189.408C485.31 530.622 345.442 607.565 234.8 645 114.826 685.595 2.391 689.79 1.27 689.827l.05 1.363c1.122-.037 113.742-4.235 233.916-44.891 70.605-23.887 129.972-55.498 176.453-93.956 58.133-48.1 96.154-107.1 113.006-175.361 35.405-143.411 185.66-181.59 305.472-188.363 100.457-5.681 193.037 9.32 239.285 18.767 71.235 14.55 113.216 31.75 116.551 40.543l1.325-.468c-4.14-10.925-53.593-28.34-117.583-41.41-39.276-8.022-111.936-20.044-194.464-20.044" fill="#00b4ca"/><path d="M877.19 178.719c-13.777 0-27.839.338-42.112 1.089-121.452 6.394-273.973 44.398-310.87 189.143-38.924 152.692-178.997 227.056-289.65 262.552C114.585 669.99 2.398 672.356 1.28 672.375l.025 1.364c1.122-.02 113.523-2.391 233.697-40.941 70.606-22.65 130.05-53.173 176.678-90.721 58.32-46.962 96.64-105.1 113.897-172.8 36.691-143.934 188.602-181.74 309.578-188.107 168.281-8.86 342.164 39.567 350.472 61.533l1.325-.467c-4.526-11.961-52.244-29.692-116.049-43.116-38.632-8.128-110.737-20.401-193.713-20.401" fill="#00b5c5"/><path d="M879.042 171.43a799.71 799.71 0 0 0-38.998.939c-78.964 3.849-145.233 19.442-196.971 46.34-61.867 32.167-101.561 80.119-117.978 142.528C485.262 512.64 345.017 584.426 234.38 617.986 114.407 654.376 2.41 654.923 1.293 654.924l.001 1.363c1.119-.001 113.301-.545 233.476-36.992 70.608-21.413 130.126-50.847 176.904-87.484 58.505-45.824 97.125-103.1 114.788-170.24 38.006-144.463 191.543-181.886 313.652-187.841 99.646-4.861 187.89 10.323 231.624 19.805 62.155 13.475 108.833 31.545 113.514 43.942l1.325-.466c-4.913-13.014-50.938-31.02-114.529-44.808-37.999-8.237-109.562-20.772-193.006-20.772" fill="#00b5c1"/><path d="M880.62 164.148a793.03 793.03 0 0 0-35.634.789c-79.475 3.566-146.385 19.01-198.87 45.898-62.746 32.146-103.165 80.151-120.135 142.683-40.744 150.13-181.176 219.338-291.81 250.959-119.975 34.29-231.75 33.01-232.867 32.996l-.022 1.363c1.12.019 113.084 1.3 233.256-33.042 70.61-20.177 130.203-48.523 177.127-84.25 58.692-44.685 97.612-101.1 115.681-167.678 39.351-145.005 194.491-182.037 317.707-187.568 99.136-4.447 185.283 10.829 227.805 20.335 61.934 13.842 106.95 32.175 112.02 45.619l1.325-.465c-9.315-24.707-151.656-67.633-305.583-67.64" fill="#00b6bc"/><path d="M880.997 156.888c-10.384 0-20.754.202-31.099.626-79.958 3.278-147.495 18.574-200.733 45.459-63.619 32.124-104.766 80.18-122.297 142.83-41.659 148.866-182.295 215.494-292.94 245.175C113.956 623.16 2.431 620.055 1.315 620.022l-.045 1.363c1.11.032 112.858 3.145 233.036-29.092 70.61-18.942 130.28-46.2 177.352-81.015 58.877-43.546 98.098-99.1 116.572-165.118 40.731-145.556 197.44-182.186 321.73-187.283 71.998-2.962 153.648 4.652 224.003 20.869 61.687 14.218 105.078 32.779 110.54 47.283l1.325-.467c-10.794-28.665-157.279-69.672-304.83-69.674" fill="#00b6b6"/><path d="M882.815 149.59c-9.459 0-18.81.168-28.023.509-80.414 2.985-148.568 18.13-202.57 45.015-64.488 32.107-106.366 80.21-124.468 142.976-42.57 147.587-183.395 211.638-294.036 239.38-119.97 30.08-231.282 25.156-232.39 25.1l-.07 1.362c1.113.054 112.64 4.99 232.814-25.142 70.611-17.704 130.356-43.874 177.577-77.78 59.063-42.406 98.584-97.1 117.463-162.556 44.37-153.825 223.127-183.184 325.733-186.992 159.076-5.887 317.741 39.666 329.282 70.34l1.326-.465c-6.016-15.996-48.19-35.073-110.064-49.786-59.709-14.198-128.452-21.961-192.574-21.961" fill="#00b7b1"/><path d="M884.51 142.288c-8.371 0-16.663.135-24.858.406-80.837 2.683-149.597 17.68-204.367 44.571-65.351 32.088-107.961 80.238-126.644 143.11-43.48 146.311-184.494 207.782-295.132 233.587-119.971 27.98-231.06 21.23-232.17 21.158l-.093 1.36c1.109.073 112.418 6.836 232.595-21.193 70.61-16.468 130.432-41.548 177.8-74.542 59.25-41.269 99.07-95.1 118.356-159.995 45.895-154.439 226.27-183.26 329.703-186.693 71.054-2.352 149.937 5.647 216.427 21.964 60.22 14.78 101.46 34.151 107.626 50.557l1.325-.467c-6.322-16.823-47.936-36.523-108.603-51.412-58.945-14.466-127.617-22.41-191.965-22.41" fill="#00b8ac"/><path d="M886.168 134.985c-7.289 0-14.521.104-21.687.313-104.615 3.061-287.242 31.47-334.954 187.361-44.39 145.036-185.592 203.93-296.228 227.795C113.33 576.334 2.457 567.757 1.353 567.67l-.119 1.358c1.108.09 112.194 8.683 232.372-17.242 70.613-15.233 130.509-39.224 178.027-71.306 59.437-40.132 99.557-93.099 119.247-157.434 47.461-155.068 229.411-183.334 333.644-186.383 70.519-2.067 148.022 6.148 212.662 22.522 59.033 14.957 99.725 34.947 106.192 52.168l1.325-.467c-6.723-17.903-46.782-37.722-107.16-53.019-58.194-14.743-126.806-22.879-191.375-22.88" fill="#0cb9a7"/><path d="M888.335 127.675c-6.352 0-12.699.079-19.075.24-80.446 2.032-152.316 17.137-207.842 43.68-67.056 32.055-111.132 80.284-131.004 143.348-45.298 143.75-186.671 200.066-297.292 221.998C113.152 560.724 2.47 550.327 1.364 550.218l-.141 1.358c1.105.108 111.972 10.525 232.151-13.294 70.612-13.995 130.585-36.898 178.251-68.07 59.623-38.992 100.043-91.1 120.14-154.873 49.065-155.707 232.534-183.407 337.531-186.061 69.923-1.763 146.075 6.649 208.924 23.087 58.746 15.37 97.916 35.466 104.783 53.76l1.325-.463c-13.742-36.621-150.409-77.982-295.993-77.987" fill="#24b9a2"/><path d="M890.124 120.37a749.515 749.515 0 0 0-16.123.17c-80.767 1.715-153.216 16.664-209.515 43.23-67.894 32.041-112.704 80.307-133.185 143.457C485.089 449.712 343.511 503.45 232.88 523.44c-119.967 21.675-230.402 9.454-231.504 9.33l-.166 1.353c1.103.126 111.75 12.371 231.93-9.342 70.614-12.76 130.662-34.573 178.475-64.834 59.809-37.854 100.531-89.098 121.033-152.312 50.714-156.369 235.656-183.487 341.384-185.733 153.304-3.236 294.176 40.557 308.596 79.001l1.325-.464c-14.061-37.499-146.333-80.065-293.829-80.069" fill="#32ba9d"/><path d="M890.964 113.068c-4.105 0-8.198.035-12.275.106-81.054 1.393-154.064 16.188-211.14 42.786-68.72 32.026-114.262 80.324-135.361 143.551-47.12 141.2-188.87 192.361-299.485 210.415-119.971 19.583-230.216 5.536-231.315 5.392l-.19 1.352c1.102.144 111.53 14.216 231.709-5.394 70.615-11.522 130.739-32.247 178.7-61.597 59.996-36.715 101.017-87.097 121.925-149.75 54.362-162.909 259.506-183.92 345.184-185.393 152.794-2.618 288.663 41.461 303.537 81.14l1.326-.462c-7.717-20.587-45.241-41.634-102.953-57.742-56.03-15.639-124.487-24.404-189.662-24.404" fill="#3dbb98"/><path d="M892.973 105.756c-3.225 0-6.438.02-9.66.063-81.303 1.064-154.857 15.706-212.707 42.342-69.532 32.015-115.805 80.342-137.531 143.635-48.03 139.924-189.968 188.508-300.581 204.625C112.522 513.9 2.497 498.03 1.4 497.869l-.215 1.347c1.099.163 111.307 16.063 231.488-1.443 70.615-10.286 130.814-29.92 178.924-58.36 60.18-35.575 101.503-85.096 122.816-147.188 56.165-163.626 262.72-183.913 348.919-185.041 152.32-2.002 283.202 42.318 298.544 83.268l1.327-.464c-8.002-21.362-45.032-42.966-101.596-59.28-56.047-16.164-122.682-24.951-188.635-24.952" fill="#47bb94"/><path d="M894.187 98.446c-2.11 0-4.203.01-6.313.028-81.516.73-155.593 15.218-214.224 41.9-70.328 32.003-117.326 80.354-139.688 143.707-48.94 138.647-191.065 184.653-301.676 198.833C112.315 498.294 2.509 480.6 1.413 480.42l-.238 1.344c1.096.181 111.086 17.91 231.264 2.506 70.618-9.049 130.892-27.594 179.149-55.123 60.37-34.436 101.99-83.095 123.71-144.627 58.013-164.358 265.9-183.905 352.587-184.68 68.21-.59 137.195 8.42 194.263 25.426 55.009 16.392 91.224 38.247 99.355 59.961l1.327-.464c-17.414-46.498-151.384-86.312-288.643-86.316" fill="#4ebc8f"/><path d="M895.759 91.133c-1.135 0-2.267.004-3.401.008-81.686.388-156.266 14.724-215.677 41.458-71.107 31.994-118.825 80.365-141.832 143.765-49.85 137.373-192.164 180.803-302.773 193.045-119.971 13.276-229.56-6.24-230.652-6.44l-.26 1.34c1.094.199 110.862 19.755 231.04 6.457 70.619-7.812 130.968-25.27 179.374-51.886 60.555-33.298 102.478-81.095 124.602-142.065 59.916-165.11 269.05-183.896 356.185-184.31 67.43-.29 135.159 8.924 190.7 26.027 53.912 16.603 89.653 39.008 98.062 61.47l1.327-.463c-8.56-22.864-44.628-45.575-98.961-62.306-54.744-16.86-121.286-26.1-187.734-26.1" fill="#55bd8a"/><path d="M897.124 83.82h-.366c-81.813.041-156.873 14.226-217.067 41.02-71.861 31.987-120.295 80.371-143.955 143.807-50.761 136.1-193.263 176.95-303.869 187.255-119.974 11.18-229.341-10.165-230.432-10.38l-.284 1.334c1.092.218 110.644 21.598 230.82 10.405 70.618-6.575 131.043-22.943 179.596-48.648 60.744-32.158 102.966-79.094 125.497-139.503C598.929 103.242 809.22 85.227 896.76 85.181h.365c66.519 0 132.845 9.454 186.821 26.634 53.619 17.063 87.997 39.423 96.805 62.962l1.329-.464c-8.96-23.94-43.654-46.597-97.691-63.795-54.112-17.22-120.604-26.699-187.265-26.699" fill="#5cbe84"/><path d="M898.512 76.502c-57.051 0-139.94 7.16-215.83 40.593-72.596 31.98-121.737 80.375-146.058 143.838-51.675 134.832-194.381 173.103-304.997 181.465-119.97 9.075-229.092-14.091-230.18-14.326l-.307 1.33c1.09.236 110.42 23.441 230.598 14.356 70.619-5.339 131.118-20.617 179.82-45.411 60.929-31.021 103.453-77.092 126.389-136.942C582.033 146.372 716.663 77.864 898.342 77.864c.914 0 1.812.003 2.728.006 135.288.509 260.586 41.637 279.308 91.682l1.327-.463c-9.227-24.667-43.482-47.847-96.451-65.267-52.803-17.366-118.213-27.068-184.178-27.315-.848-.003-1.705-.005-2.564-.005" fill="#64bf7e"/><path d="M899.84 69.183c-56.98-.001-138.621 7.217-214.188 40.182-73.308 31.977-123.15 80.376-148.141 143.852-52.585 133.557-195.48 169.25-306.092 175.676-119.962 6.972-228.875-18.018-229.96-18.27l-.331 1.326c1.088.254 110.204 25.283 230.376 18.306 70.619-4.103 131.194-18.293 180.044-42.175 61.116-29.88 103.939-75.09 127.282-134.377C584.564 137.542 721.64 69.079 905.283 70.568c134.794 1.09 255.464 42.274 274.719 93.759l1.329-.463c-19.443-51.986-140.691-93.564-276.034-94.66a751.027 751.027 0 0 0-5.456-.021" fill="#69c079"/><path d="M901.113 61.862c-56.854 0-137.282 7.271-212.526 39.788-73.989 31.976-124.52 80.373-150.189 143.85-53.494 132.281-196.577 165.398-307.188 169.887-119.978 4.871-228.656-21.94-229.74-22.212l-.354 1.32c1.085.272 109.968 27.136 230.153 22.255 70.62-2.867 131.27-15.967 180.267-38.939 61.303-28.74 104.428-73.09 128.177-131.815C609.653 73.048 840.378 62.39 909.396 63.277c64.128.8 126.987 10.911 177 28.474 50.515 17.738 83.625 41.656 93.231 67.35l1.33-.464c-19.992-53.462-136.728-95.044-271.543-96.724a660.947 660.947 0 0 0-8.3-.05" fill="#6fc173"/><path d="M902.332 54.538c-56.674 0-135.907 7.32-210.833 39.416-74.646 31.974-125.858 80.366-152.213 143.83-54.405 131.006-197.675 161.547-308.285 164.098-119.969 2.78-228.438-25.866-229.52-26.156l-.376 1.314c1.083.29 109.747 28.98 229.93 26.205 70.62-1.63 131.345-13.64 180.491-35.7 61.489-27.6 104.915-71.089 129.069-129.253C597.937 100.208 770.759 53.602 913.41 55.995c63.259 1.068 124.959 11.403 173.732 29.097 49.536 17.97 82.248 42.4 92.11 68.785l1.329-.463c-10.008-26.768-43.015-51.485-92.944-69.599-48.919-17.747-110.785-28.11-174.203-29.182a643.596 643.596 0 0 0-11.102-.095" fill="#74c26c"/><path d="M903.876 47.217c-75.963-.001-149.89 13.732-209.499 39.057-75.274 31.974-127.155 80.355-154.204 143.795-55.31 129.72-198.755 157.689-309.35 158.308-1.303.008-2.62.01-3.92.01-118.407 0-224.342-29.805-225.41-30.108l-.399 1.308c1.07.304 107.203 30.164 225.811 30.164 1.302 0 2.591-.003 3.896-.011 70.62-.391 131.421-11.314 180.714-32.462 61.676-26.46 105.402-69.086 129.963-126.69C600.637 91.838 774.414 45.687 917.314 48.723c130.968 2.803 240.971 44.828 261.563 99.93l1.329-.464c-20.784-55.612-131.333-98.015-262.861-100.828a630.878 630.878 0 0 0-13.469-.144" fill="#7ac366"/><path d="M905.148 39.892c-140.323-.006-305.046 47.565-364.087 182.46-56.224 128.456-199.855 153.846-310.476 152.519-119.97-1.433-228.003-33.715-229.08-34.042l-.422 1.302c1.079.327 109.31 32.667 229.485 34.104 70.617.84 131.496-8.99 180.937-29.224 61.863-25.321 105.89-67.085 130.856-124.128C603.383 83.466 777.997 37.787 921.103 41.46c61.5 1.594 120.955 12.373 167.41 30.35 48.359 18.714 79.475 43.478 89.988 71.617l1.33-.464c-10.657-28.514-42.052-53.557-90.793-72.42-46.608-18.034-106.235-28.846-167.9-30.445a617.89 617.89 0 0 0-15.992-.206" fill="#7ec460"/><path d="M906.248 32.563c-74.016-.002-146.609 13.452-206.229 38.401-75.353 31.536-130.014 81.216-158.071 143.673-57.133 127.179-200.971 149.976-311.572 146.73C110.404 357.832 2.59 323.726 1.515 323.382l-.444 1.296c1.078.345 109.087 34.51 229.262 38.053 70.617 2.074 131.572-6.662 181.159-25.986 62.05-24.182 106.378-65.082 131.751-121.564C606.175 75.09 781.589 29.833 924.778 34.208c127.75 3.897 231.931 46.66 253.349 103.993l1.329-.462c-10.901-29.178-41.944-54.703-89.774-73.811-45.531-18.19-104.079-29.23-164.858-31.083a612.662 612.662 0 0 0-18.576-.282" fill="#83c55b"/><path d="M907.377 25.231c-73.05 0-144.983 13.328-204.592 38.105-75.877 31.542-131.186 81.192-159.948 143.583-58.04 125.896-202.041 146.133-312.641 140.944-119.974-5.632-227.597-41.568-228.67-41.929l-.466 1.286c1.075.364 108.865 36.357 229.039 42.003 70.623 3.323 131.646-4.336 181.382-22.749 62.236-23.04 106.865-63.079 132.645-119C609.09 66.554 791.711 22.154 928.337 26.961c59.729 2.1 117.046 13.327 161.392 31.612 46.58 19.207 77.017 44.935 88.024 74.403l1.328-.464c-11.141-29.83-41.849-55.834-88.799-75.194C1045.78 38.97 988.285 27.705 928.39 25.6a599.177 599.177 0 0 0-21.013-.368" fill="#88c655"/><path d="M908.469 17.898c-72.09 0-143.368 13.21-202.962 37.83-76.364 31.55-132.308 81.162-161.782 143.475-58.95 124.623-203.152 142.29-313.737 135.155-119.976-7.733-227.38-45.492-228.451-45.874l-.486 1.28c1.07.382 108.64 38.202 228.815 45.953 70.622 4.552 131.72-2.01 181.604-19.51 62.423-21.903 107.352-61.078 133.538-116.438C611.985 58.173 795.2 14.306 931.777 19.724c124.626 4.964 223.325 48.378 245.6 108.028l1.33-.462c-11.383-30.478-41.765-56.954-87.863-76.568-43.523-18.516-99.995-30.01-159.01-32.36a587.568 587.568 0 0 0-23.365-.464" fill="#8cc74f"/><path d="M909.536 10.565c-71.14-.001-141.778 13.097-201.348 37.57-76.818 31.562-133.38 81.132-163.575 143.353-59.858 123.347-204.248 138.435-314.834 129.368C109.802 311.02 2.616 271.438 1.547 271.038l-.508 1.272c1.07.399 108.42 40.046 228.592 49.9 70.62 5.792 131.796.318 181.827-16.273 62.61-20.76 107.84-59.073 134.432-113.873C614.93 49.793 798.713 6.405 935.098 12.495c58.803 2.623 112.638 13.99 155.683 32.882 44.922 19.713 74.737 46.392 86.222 77.151l1.33-.463c-11.618-31.112-41.692-58.061-86.968-77.93-43.207-18.961-97.222-30.373-156.204-33.003a577.88 577.88 0 0 0-25.625-.567" fill="#90c84b"/></g></svg>