<svg xmlns="http://www.w3.org/2000/svg" xmlns:xlink="http://www.w3.org/1999/xlink" xml:space="preserve" width="150" height="209.606" version="1.1" viewBox="0 0 3968.75 5545.83" id="svg163" clip-rule="evenodd" fill-rule="evenodd" image-rendering="optimizeQuality" shape-rendering="geometricPrecision" text-rendering="geometricPrecision"><defs id="defs25"><style type="text/css" id="style2">.str0{stroke:#fefefe}.str0,.str1,.str2{stroke-width:255;stroke-linecap:round;stroke-linejoin:round;stroke-miterlimit:22.9256}.str2{stroke:#fefefe}.str1{stroke:#61b340}.fil1{fill:none}.fil5,.fil6{fill:none;fill-rule:nonzero}.fil6{fill:#fefefe}</style><linearGradient id="id0" gradientUnits="userSpaceOnUse" x1="6924.15" y1="14070.37" x2="8106.73" y2="14091.87"><stop offset="0" id="stop4" stop-opacity="1" stop-color="#128f3b"/><stop offset="1" id="stop6" stop-opacity="1" stop-color="#99c129"/></linearGradient><linearGradient id="id1" gradientUnits="userSpaceOnUse" xlink:href="#id0" x1="13488.22" y1="7316.7" x2="14612.12" y2="7336.29"/><linearGradient id="id2" gradientUnits="userSpaceOnUse" xlink:href="#id0" x1="15186.93" y1="9944.35" x2="17169.23" y2="9972.88"/><linearGradient id="id3" gradientUnits="userSpaceOnUse" xlink:href="#id0" x1="15594.64" y1="12877.59" x2="17803.07" y2="12927.93"/><linearGradient id="id4" gradientUnits="userSpaceOnUse" xlink:href="#id0" x1="3380.86" y1="13561.45" x2="5704.15" y2="13607.39"/><linearGradient id="id5" gradientUnits="userSpaceOnUse" xlink:href="#id0" x1="13203.47" y1="10004.68" x2="14301.55" y2="11121.26"/><linearGradient id="id6" gradientUnits="userSpaceOnUse" xlink:href="#id0" x1="14280.28" y1="12032.6" x2="15378.46" y2="13149.22"/><linearGradient id="id7" gradientUnits="userSpaceOnUse" xlink:href="#id0" x1="5357.11" y1="8919.42" x2="8396.69" y2="8949.31"/><linearGradient id="id8" gradientUnits="userSpaceOnUse" xlink:href="#id0" x1="2263.38" y1="4075.79" x2="18239.301" y2="4267.13"/><linearGradient id="id9" gradientUnits="userSpaceOnUse" xlink:href="#id0" x1="8686.15" y1="11150.04" x2="9784.39" y2="12266.55"/><linearGradient id="id10" gradientUnits="userSpaceOnUse" xlink:href="#id0" x1="4065.29" y1="10881" x2="5713.8" y2="10899.53"/><linearGradient id="id11" gradientUnits="userSpaceOnUse" xlink:href="#id0" x1="13176.51" y1="13859.79" x2="14905.23" y2="13875.71"/><linearGradient id="id12" gradientUnits="userSpaceOnUse" xlink:href="#id0" x1="10500.06" y1="9873.27" x2="11598.29" y2="10989.81"/><linearGradient id="id13" gradientUnits="userSpaceOnUse" xlink:href="#id0" x1="6059.87" y1="11854.39" x2="7157.94" y2="12971.1"/><linearGradient id="id14" gradientUnits="userSpaceOnUse" xlink:href="#id0" x1="8846.51" y1="6600.63" x2="10121.21" y2="6615.89"/><linearGradient id="id15" gradientUnits="userSpaceOnUse" xlink:href="#id0" x1="3933.27" y1="4357.74" x2="12862.52" y2="4421.39"/><linearGradient id="id16" gradientUnits="userSpaceOnUse" xlink:href="#id0" x1="2377.92" y1="22202.6" x2="18131.74" y2="22253.199"/><linearGradient xlink:href="#id0" id="linearGradient4677" gradientUnits="userSpaceOnUse" x1="6924.15" y1="14070.37" x2="8106.73" y2="14091.87"/></defs><g id="Слой_x0020_1" transform="translate(-545.29 -804.757) scale(.24092)"><g id="_1832408821840"><g id="g157"><path d="M18010.67 8200.78c-1864.58-4148.02-6738.73-5999.09-10886.75-4134.44-1991.45 895.2-3545.83 2544.6-4321.42 4585.64-778.84 2041.51-711.56 4309.36 186.96 6301.07 1864.58 4148 6738.78 5998.98 10886.75 4134.44 4147.99-1864.6 5999.07-6738.78 4134.46-10886.71zm-6420.9 10737.19c-363.83-1453.41-85.49-3288.67-85.49-3288.67s106.27-2193.87 3888.16-2500.79c0 0-1217.35-308.46-1756.83-123.94 0 0 432.04-385.85 601.71-1148.3 0 0-1672 1897.71-2868.8 1965.54 0 0 225.64-440.59 757.03-1036.3 530.89-595.7 1366.32-1347.27 2586.3-1968.2 0 0-1295.92 184.35-1739.77 587.69 0 0 180.9-836.33-157.74-1179.32 0 0 38.4 1594.04-1514.35 2359.92 0 0-241.94-1189.42 786.22-2359.92 0 0-665.65 181.68-1028.16 988.87 0 0-685.75-665.6-1573.75-605.29 0 0 2017.04 867.6 564.61 2984.78 0 0-427.53-336.77-216.85-2212.14 0 0-287.3 699.52-347.76 1083.09 0 0-910.06-525.25-1915.95-665.66 0 0 1653.68 463.63 1815.04 1754.76 0 0-1516.91-138.94-2307.07-1674.79 0 0 43.37 322.75 406.52 1129.14 0 0-1068.81-218.87-1875.14-157.81 0 0 3964.68 881.08 4109.76 2304.34 87.48 858.72 356.01 2308.62-162.55 3786.06-926.15-116.57-1833.85-407.1-2672.75-869.56-353.48-522.71-483.14-1495.57-611.52-2428.09-163.73-1225.02-321.1-2387.82-1026.65-2788.14-641.04-404.98-1464.45-377.13-2076.74 70.14-222.43-1188.08-151.81-2412.49 205.65-3567.13 185.66 631.13 787.61 1046.27 1443.5 995.67 683.93-11.61 1445.67-390.74 2103.52-706.3 291.45-163.62 599.42-295.85 918.73-394.4 518.67-73.05 1047.15-22.96 1542.86 146.15 619.63 166.72 1178.06 315.23 1845.74.12 890.26-420.15 1131.69-1232.45 1403.32-2159.56 234.8-794.89 496.47-1669.25 1288.16-2302.89 1494.77 768.81 2684.45 2022.17 3374.28 3554.97 478.72 1058.7 702.32 2214.97 652.73 3375.78-2387.23 258.18-2544.63 1471.18-2762.77 3116.31-115.5 883.3-246.74 1913.46-853.35 2952.82-252.03 150.81-512.64 286.64-780.56 406.93-630.97 283.41-1290.39 474.45-1959.29 574.12zm6278.43-6253.86c-250.73 1659.35-1052.86 3185.97-2277.18 4333.73 179.01-624.07 302.6-1262.68 369.46-1908.48 159.83-1250.23 282.03-2177.49 1907.72-2425.25zM3929.65 8040.82C4705.02 6594.9 5937.76 5446.66 7435 4775.68c1801.02-816.19 3853.04-880.92 5701.88-179.81-750.42 730.68-1012.68 1619.82-1251.17 2433.22-217.89 741.47-414.95 1406.08-985.39 1675.02-414.7 186.75-841.09 79.96-1317.76-47.54-608.8-204.89-1258.2-258.88-1892.49-157.39A4954.408 4954.408 0 0 0 6572 8959.27c-581.05 288.16-1255.54 625.62-1770.16 633.28-476.4 12.14-831.51-348.43-872.19-1551.73zm-231.01 6592.88l2.02-.9c-124.9-277.15-232.9-561.66-323.43-851.9 379.43-425.43 1008.07-520.15 1495.99-225.49 369.12 209.7 500.58 1186.57 638.81 2215.83 70.84 531.93 144.21 1074.76 260.83 1569.19a7424.67 7424.67 0 0 1-2074.22-2706.73z" id="path28" fill="url(#id8)"/><g id="g33"><path class="fil1 str0" d="M3702.26 14633.7l2.02-.9a7530.565 7530.565 0 0 1-323.42-851.9c379.42-425.43 1008.06-520.15 1495.98-225.49 369.12 209.7 500.58 1186.57 638.81 2215.83 70.84 531.93 144.21 1074.76 260.83 1569.19a7424.779 7424.779 0 0 1-2074.22-2706.73z" id="path30" fill="none" stroke="#fefefe" stroke-width="255" stroke-linecap="round" stroke-linejoin="round" stroke-miterlimit="22.926"/><path id="1" d="M3702.26 14633.7l2.02-.9a7530.565 7530.565 0 0 1-323.42-851.9c379.42-425.43 1008.06-520.15 1495.98-225.49 369.12 209.7 500.58 1186.57 638.81 2215.83 70.84 531.93 144.21 1074.76 260.83 1569.19a7424.779 7424.779 0 0 1-2074.22-2706.73z" fill="url(#id4)"/></g><g id="g39"><path class="fil1 str0" d="M3933.27 8040.82c775.37-1445.92 2008.11-2594.16 3505.35-3265.14 1801.02-816.19 3853.04-880.92 5701.88-179.81-750.42 730.68-1012.68 1619.82-1251.17 2433.22-217.89 741.47-414.95 1406.08-985.39 1675.02-414.7 186.75-841.09 79.96-1317.75-47.54-608.81-204.89-1258.21-258.88-1892.5-157.39a4954.408 4954.408 0 0 0-1118.07 460.09c-581.05 288.16-1255.54 625.62-1770.16 633.28-476.39 12.14-831.51-348.43-872.19-1551.73z" id="path35" fill="none" stroke="#fefefe" stroke-width="255" stroke-linecap="round" stroke-linejoin="round" stroke-miterlimit="22.926"/><path id="path37" d="M3933.27 8040.82c775.37-1445.92 2008.11-2594.16 3505.35-3265.14 1801.02-816.19 3853.04-880.92 5701.88-179.81-750.42 730.68-1012.68 1619.82-1251.17 2433.22-217.89 741.47-414.95 1406.08-985.39 1675.02-414.7 186.75-841.09 79.96-1317.75-47.54-608.81-204.89-1258.21-258.88-1892.5-157.39a4954.408 4954.408 0 0 0-1118.07 460.09c-581.05 288.16-1255.54 625.62-1770.16 633.28-476.39 12.14-831.51-348.43-872.19-1551.73z" fill="url(#id15)"/></g><g id="g45"><path class="fil1 str0" d="M17871.83 12684.11c-250.74 1659.35-1052.87 3185.97-2277.19 4333.73 179.01-624.07 302.6-1262.68 369.46-1908.48 159.83-1250.23 282.03-2177.49 1907.73-2425.25z" id="path41" fill="none" stroke="#fefefe" stroke-width="255" stroke-linecap="round" stroke-linejoin="round" stroke-miterlimit="22.926"/><path id="path43" d="M17871.83 12684.11c-250.74 1659.35-1052.87 3185.97-2277.19 4333.73 179.01-624.07 302.6-1262.68 369.46-1908.48 159.83-1250.23 282.03-2177.49 1907.73-2425.25z" fill="url(#id3)"/></g><g id="g51"><path class="fil5 str1" d="M16696.53 14336.77s-1197.57 931.21-1789.42-504c0 0 700.28-312.23 1093.63 76.22 0 0-205.36-486.1-937.84-272.39 0 0 762.68-1007.1 1633.63 700.17z" id="path47" fill="none" fill-rule="nonzero" stroke="#61b340" stroke-width="255" stroke-linecap="round" stroke-linejoin="round" stroke-miterlimit="22.926"/><path id="path49" class="fil6" d="M16696.53 14336.77s-1197.57 931.21-1789.42-504c0 0 700.28-312.23 1093.63 76.22 0 0-205.36-486.1-937.84-272.39 0 0 762.68-1007.1 1633.63 700.17z" fill="#fefefe" fill-rule="nonzero"/></g><g id="g57"><path class="fil5 str1" d="M4964.05 14600.2s-72.66-1571.08 1496.41-1214.14c0 0-154.11 779.84-718.18 880.75 0 0 534.56 116.59 791.4-631.52 0 0 396.92 1248.13-1569.63 964.91z" id="path53" fill="none" fill-rule="nonzero" stroke="#61b340" stroke-width="255" stroke-linecap="round" stroke-linejoin="round" stroke-miterlimit="22.926"/><path id="path55" class="fil6" d="M4964.05 14600.2s-72.66-1571.08 1496.41-1214.14c0 0-154.11 779.84-718.18 880.75 0 0 534.56 116.59 791.4-631.52 0 0 396.92 1248.13-1569.63 964.91z" fill="#fefefe" fill-rule="nonzero"/></g><g id="g63"><path class="fil1 str2" d="M7554.29 15838.92s-1297.68-785.96-168.54-1851.2c0 0 541.83 542.37 319.59 1048.51 0 0 380.34-365.36-80.7-973.4 0 0 1213.09 352.88-70.35 1776.09z" id="path59" fill="none" stroke="#fefefe" stroke-width="255" stroke-linecap="round" stroke-linejoin="round" stroke-miterlimit="22.926"/><path id="path61" d="M7554.29 15838.92s-1297.68-785.96-168.54-1851.2c0 0 541.83 542.37 319.59 1048.51 0 0 380.34-365.36-80.7-973.4 0 0 1213.09 352.88-70.35 1776.09z" fill="url(#linearGradient4677)"/></g><g id="g69"><path class="fil1 str2" d="M17032.08 9834.68s961.84 2073.12-1345.15 2456.35c0 0-221.56-1133.74 481.75-1579.84 0 0-783.09 137.19-717.03 1285.01 0 0-1220.63-1460.71 1580.43-2161.52z" id="path65" fill="none" stroke="#fefefe" stroke-width="255" stroke-linecap="round" stroke-linejoin="round" stroke-miterlimit="22.926"/><path id="path67" d="M17032.08 9834.68s961.84 2073.12-1345.15 2456.35c0 0-221.56-1133.74 481.75-1579.84 0 0-783.09 137.19-717.03 1285.01 0 0-1220.63-1460.71 1580.43-2161.52z" fill="url(#id2)"/></g><g id="g75"><path class="fil1 str2" d="M5357.11 9076.62s2599.67-1261.11 3134.21 1646.81c0 0-1428.31 304.74-2007.43-574.54 0 0 190.36 986.79 1640 878.4 0 0-1819.86 1574.64-2766.78-1950.67z" id="path71" fill="none" stroke="#fefefe" stroke-width="255" stroke-linecap="round" stroke-linejoin="round" stroke-miterlimit="22.926"/><path id="path73" d="M5357.11 9076.62s2599.67-1261.11 3134.21 1646.81c0 0-1428.31 304.74-2007.43-574.54 0 0 190.36 986.79 1640 878.4 0 0-1819.86 1574.64-2766.78-1950.67z" fill="url(#id7)"/></g><g id="g81"><path class="fil5 str1" d="M15764.13 8417.41s724.42 1560.99-1012.76 1849.43c0 0-166.72-853.64 362.73-1189.44 0 0-589.46 103.28-540.01 967.45 0 0-918.85-1099.78 1190.04-1627.44z" id="path77" fill="none" fill-rule="nonzero" stroke="#61b340" stroke-width="255" stroke-linecap="round" stroke-linejoin="round" stroke-miterlimit="22.926"/><path id="path79" class="fil6" d="M15764.13 8417.41s724.42 1560.99-1012.76 1849.43c0 0-166.72-853.64 362.73-1189.44 0 0-589.46 103.28-540.01 967.45 0 0-918.85-1099.78 1190.04-1627.44z" fill="#fefefe" fill-rule="nonzero"/></g><path class="fil6" d="M7122.25 6447.99s1595.71 644.3 524.9 2042.21c0 0-705.25-508.98-548.14-1116.13 0 0-360.04 478.28 266.99 1075.28 0 0-1422.44-174.59-243.75-2001.36z" id="path83" fill="#fefefe" fill-rule="nonzero"/><g id="g89"><path class="fil1 str2" d="M4065.29 10879.05s1642.83-512.01 1699.83 1247.9c0 0-868.15 52.85-1131.3-516.39 0 0 24.59 597.97 887.92 662.74 0 0-1211.54 765.9-1456.45-1394.25z" id="path85" fill="none" stroke="#fefefe" stroke-width="255" stroke-linecap="round" stroke-linejoin="round" stroke-miterlimit="22.926"/><path id="path87" d="M4065.29 10879.05s1642.83-512.01 1699.83 1247.9c0 0-868.15 52.85-1131.3-516.39 0 0 24.59 597.97 887.92 662.74 0 0-1211.54 765.9-1456.45-1394.25z" fill="url(#id10)"/></g><g id="g95"><path class="fil5 str1" d="M8693.79 8319.22s1637.63-529.5 1713.02 1229.66c0 0-867.58 62.15-1136.67-504.37 0 0 31.01 597.68 894.85 653.19 0 0-1203.18 778.8-1471.2-1378.48z" id="path91" fill="none" fill-rule="nonzero" stroke="#61b340" stroke-width="255" stroke-linecap="round" stroke-linejoin="round" stroke-miterlimit="22.926"/><path id="path93" class="fil6" d="M8693.79 8319.22s1637.63-529.5 1713.02 1229.66c0 0-867.58 62.15-1136.67-504.37 0 0 31.01 597.68 894.85 653.19 0 0-1203.18 778.8-1471.2-1378.48z" fill="#fefefe" fill-rule="nonzero"/></g><g id="g101"><path class="fil1 str2" d="M14275.22 7241.42s985.5 982.29-252.08 1686.26c0 0-365.06-601.22-57.07-1003.88 0 0-418.68 242.99-139.71 884.86 0 0-1004.36-577.93 448.86-1567.24z" id="path97" fill="none" stroke="#fefefe" stroke-width="255" stroke-linecap="round" stroke-linejoin="round" stroke-miterlimit="22.926"/><path id="path99" d="M14275.22 7241.42s985.5 982.29-252.08 1686.26c0 0-365.06-601.22-57.07-1003.88 0 0-418.68 242.99-139.71 884.86 0 0-1004.36-577.93 448.86-1567.24z" fill="url(#id1)"/></g><g id="g107"><path class="fil1 str2" d="M8846.51 6576.71s1350.08-336.68 1313.65 1086.63c0 0-703.07 2.09-889-469.73 0 0-7.99 483.92 685.88 576.47 0 0-1013.68 561.77-1110.53-1193.37z" id="path103" fill="none" stroke="#fefefe" stroke-width="255" stroke-linecap="round" stroke-linejoin="round" stroke-miterlimit="22.926"/><path id="path105" d="M8846.51 6576.71s1350.08-336.68 1313.65 1086.63c0 0-703.07 2.09-889-469.73 0 0-7.99 483.92 685.88 576.47 0 0-1013.68 561.77-1110.53-1193.37z" fill="url(#id14)"/></g><g id="g113"><path class="fil5 str1" d="M3723.56 9027.69s1350.21-336.75 1313.86 1086.68c0 0-703.29 2.12-889.12-469.73 0 0-8.09 484.08 685.75 576.47 0 0-1013.51 561.75-1110.49-1193.42z" id="path109" fill="none" fill-rule="nonzero" stroke="#61b340" stroke-width="255" stroke-linecap="round" stroke-linejoin="round" stroke-miterlimit="22.926"/><path id="path111" class="fil6" d="M3723.56 9027.69s1350.21-336.75 1313.86 1086.68c0 0-703.29 2.12-889.12-469.73 0 0-8.09 484.08 685.75 576.47 0 0-1013.51 561.75-1110.49-1193.42z" fill="#fefefe" fill-rule="nonzero"/></g><g id="g119"><path class="fil5 str1" d="M11785.51 5744.75s2388.91 1502.62 255.31 3448.79c0 0-990.83-1026.12-561.48-1960.68 0 0-719.52 667.92 119.73 1813.09 0 0-2245.6-694.23 186.44-3301.2z" id="path115" fill="none" fill-rule="nonzero" stroke="#61b340" stroke-width="255" stroke-linecap="round" stroke-linejoin="round" stroke-miterlimit="22.926"/><path id="path117" class="fil6" d="M11785.51 5744.75s2388.91 1502.62 255.31 3448.79c0 0-990.83-1026.12-561.48-1960.68 0 0-719.52 667.92 119.73 1813.09 0 0-2245.6-694.23 186.44-3301.2z" fill="#fefefe" fill-rule="nonzero"/></g><g id="g125"><path class="fil1 str2" d="M14067.66 10398.25c0 238.61-193.63 432.18-432.07 432.18-238.78 0-432.12-193.57-432.12-432.18 0-238.88 193.34-432.16 432.12-432.16 238.44 0 432.07 193.28 432.07 432.16z" id="path121" fill="none" stroke="#fefefe" stroke-width="255" stroke-linecap="round" stroke-linejoin="round" stroke-miterlimit="22.926"/><path id="path123" d="M14067.66 10398.25c0 238.61-193.63 432.18-432.07 432.18-238.78 0-432.12-193.57-432.12-432.18 0-238.88 193.34-432.16 432.12-432.16 238.44 0 432.07 193.28 432.07 432.16z" fill="url(#id5)"/></g><g id="g131"><path class="fil1 str2" d="M11364.37 10266.84c0 238.87-193.39 432.14-432.14 432.14-238.87 0-432.17-193.27-432.17-432.14 0-238.66 193.3-432.16 432.17-432.16 238.75 0 432.14 193.5 432.14 432.16z" id="path127" fill="none" stroke="#fefefe" stroke-width="255" stroke-linecap="round" stroke-linejoin="round" stroke-miterlimit="22.926"/><path id="path129" d="M11364.37 10266.84c0 238.87-193.39 432.14-432.14 432.14-238.87 0-432.17-193.27-432.17-432.14 0-238.66 193.3-432.16 432.17-432.16 238.75 0 432.14 193.5 432.14 432.16z" fill="url(#id12)"/></g><g id="g137"><path class="fil1 str2" d="M15144.55 12426.2c0 238.56-193.62 432.18-432.13 432.18-239 0-432.14-193.62-432.14-432.18 0-238.75 193.14-432.19 432.14-432.19 238.51 0 432.13 193.44 432.13 432.19z" id="path133" fill="none" stroke="#fefefe" stroke-width="255" stroke-linecap="round" stroke-linejoin="round" stroke-miterlimit="22.926"/><path id="path135" d="M15144.55 12426.2c0 238.56-193.62 432.18-432.13 432.18-239 0-432.14-193.62-432.14-432.18 0-238.75 193.14-432.19 432.14-432.19 238.51 0 432.13 193.44 432.13 432.19z" fill="url(#id6)"/></g><g id="g143"><path class="fil1 str2" d="M9550.47 11543.59c0 238.65-193.5 432.14-432.12 432.14-238.91 0-432.2-193.49-432.2-432.14 0-238.61 193.29-432.14 432.2-432.14 238.62 0 432.12 193.53 432.12 432.14z" id="path139" fill="none" stroke="#fefefe" stroke-width="255" stroke-linecap="round" stroke-linejoin="round" stroke-miterlimit="22.926"/><path id="path141" d="M9550.47 11543.59c0 238.65-193.5 432.14-432.12 432.14-238.91 0-432.2-193.49-432.2-432.14 0-238.61 193.29-432.14 432.2-432.14 238.62 0 432.12 193.53 432.12 432.14z" fill="url(#id9)"/></g><g id="g149"><path class="fil1 str2" d="M6924.05 12248.02c0 238.79-193.37 432.21-432.06 432.21-238.74 0-432.12-193.42-432.12-432.21 0-238.59 193.38-432.22 432.12-432.22 238.69 0 432.06 193.63 432.06 432.22z" id="path145" fill="none" stroke="#fefefe" stroke-width="255" stroke-linecap="round" stroke-linejoin="round" stroke-miterlimit="22.926"/><path id="path147" d="M6924.05 12248.02c0 238.79-193.37 432.21-432.06 432.21-238.74 0-432.12-193.42-432.12-432.21 0-238.59 193.38-432.22 432.12-432.22 238.69 0 432.06 193.63 432.06 432.22z" fill="url(#id13)"/></g><g id="g155"><path class="fil1 str2" d="M14959.04 14954.41s-1343.92 816.6-1782.53-731.7c0 0 758.09-238.3 1117 208.37 0 0-153.7-525.03-933.74-391.85 0 0 905.42-946.63 1599.27 915.18z" id="path151" fill="none" stroke="#fefefe" stroke-width="255" stroke-linecap="round" stroke-linejoin="round" stroke-miterlimit="22.926"/><path id="path153" d="M14959.04 14954.41s-1343.92 816.6-1782.53-731.7c0 0 758.09-238.3 1117 208.37 0 0-153.7-525.03-933.74-391.85 0 0 905.42-946.63 1599.27 915.18z" fill="url(#id11)"/></g></g><path d="M3631.06 23353.96v300.55H2377.92v-1618.44h1223.05v300.62h-850.8v351.41h751.38v291.31h-751.38v374.55zm929.44-351.41h-259v651.96h-372.18v-1618.44h372.18v654.32h268.24l425.41-654.32h395.32l-529.41 781.47 545.59 836.97h-425.4zm1787.14 679.68c-167.98 0-319.43-36.17-454.31-108.66-134.87-72.42-240.45-172.23-316.74-299.37-76.28-127.21-114.43-270.14-114.43-428.88 0-158.79 38.15-301.73 114.43-428.87 76.29-127.21 181.87-226.96 316.74-299.44 134.88-72.42 286.33-108.66 454.31-108.66 168.03 0 319.03 36.24 453.19 108.66 134.08 72.48 239.66 172.23 316.74 299.44 77.07 127.14 115.6 270.08 115.6 428.87 0 158.74-38.53 301.67-115.6 428.88-77.08 127.14-182.66 226.95-316.74 299.37-134.16 72.49-285.16 108.66-453.19 108.66zm0-319.03c95.55 0 181.86-21.96 258.93-65.87 77.07-43.97 137.57-105.25 181.48-183.83 43.97-78.64 65.93-168.03 65.93-268.18 0-100.2-21.96-189.59-65.93-268.24-43.91-78.58-104.41-139.86-181.48-183.77-77.07-43.9-163.38-65.93-258.93-65.93-95.56 0-181.87 22.03-258.94 65.93-77.07 43.91-137.56 105.19-181.47 183.77-43.98 78.65-65.93 168.04-65.93 268.24 0 100.15 21.95 189.54 65.93 268.18 43.91 78.58 104.4 139.86 181.47 183.83 77.07 43.91 163.38 65.87 258.94 65.87zm2571.02-1327.13v1618.44H8548.7v-1313.23h-554.9l-11.54 337.58c-7.73 229.64-26.21 415.77-55.51 558.31-29.23 142.61-78.18 252.06-146.8 328.34-68.55 76.29-164.5 114.43-287.84 114.43-50.86 0-112.53-8.45-184.95-25.43l23.14-316.74c19.99 6.16 42.34 9.24 67.04 9.24 89.4 0 151.79-52.76 187.24-158.4 35.46-105.58 57.81-270.87 67.05-495.92l23.13-656.62zm1176.78 1646.16c-167.97 0-319.43-36.17-454.3-108.66-134.88-72.42-240.46-172.23-316.74-299.37-76.29-127.21-114.43-270.14-114.43-428.88 0-158.79 38.14-301.73 114.43-428.87 76.28-127.21 181.86-226.96 316.74-299.44 134.87-72.42 286.33-108.66 454.3-108.66 168.04 0 319.04 36.24 453.19 108.66 134.09 72.48 239.67 172.23 316.74 299.44 77.07 127.14 115.61 270.08 115.61 428.87 0 158.74-38.54 301.67-115.61 428.88-77.07 127.14-182.65 226.95-316.74 299.37-134.15 72.49-285.15 108.66-453.19 108.66zm0-319.03c95.56 0 181.87-21.96 258.94-65.87 77.07-43.97 137.56-105.25 181.47-183.83 43.98-78.64 65.93-168.03 65.93-268.18 0-100.2-21.95-189.59-65.93-268.24-43.91-78.58-104.4-139.86-181.47-183.77-77.07-43.9-163.38-65.93-258.94-65.93-95.55 0-181.86 22.03-258.93 65.93-77.08 43.91-137.57 105.19-181.48 183.77-43.97 78.65-65.93 168.04-65.93 268.24 0 100.15 21.96 189.54 65.93 268.18 43.91 78.58 104.4 139.86 181.48 183.83 77.07 43.91 163.38 65.87 258.93 65.87zm2314.31-1021.92h-769.86l2.29 1313.23h-372.25v-1618.44h1142.18zm231.22-305.21h372.25v1618.44h-372.25zm2057.73 0v1618.44h-369.89v-582.62c-140.31 50.85-270.53 76.28-390.73 76.28-217.39 0-383.85-52.03-499.39-156.04-115.61-104.08-173.41-253.96-173.41-449.72v-506.34h369.89v464.73c0 111.02 29.69 194.64 89 250.87 59.37 56.23 145.29 84.41 257.82 84.41 123.28 0 238.88-23.92 346.82-71.69v-728.32zm1886.62 0v1618.44h-374.54v-663.56h-735.26v663.56h-374.55v-1618.44h374.55v638.14h735.26v-638.14zm1500.47 1271.62h-751.38l-143.39 346.82h-383.79l721.37-1618.44h369.89l723.66 1618.44h-393.03zm-117.9-284.37l-256.64-619.58-256.64 619.58zM4769.7 24713.53h1306.28v298.26h-934.03v332.92h448.54c195.75 0 344.85 40.9 447.35 122.56 102.5 81.72 153.75 199.62 153.75 353.77 0 161.81-57.02 287.44-171.05 376.84-114.1 89.39-275.12 134.09-483.27 134.09H4769.7zm746.79 1341.02c95.56 0 168.76-18.88 219.62-56.69 50.92-37.75 76.35-92.87 76.35-165.29 0-141.82-98.7-212.73-295.97-212.73h-374.54v434.71zm2212.6-23.14v300.56H6475.96v-1618.44h1223.05v300.61h-850.8v351.41h751.38v291.32h-751.38v374.54zm1223.06-543.3c93.98 32.31 167.58 82.84 220.79 151.39 53.15 68.62 79.76 148.38 79.76 239.34 0 98.64-32.38 184.16-97.13 256.58-64.68 72.48-152.17 127.93-262.41 166.46-110.16 38.54-230.82 57.81-361.83 57.81-110.95 0-221.58-13.83-331.75-41.62-110.23-27.72-214.63-70.12-313.26-127.14l115.6-268.18c70.85 43.13 149.1 75.89 234.63 98.24 85.59 22.35 169.15 33.56 250.87 33.56 110.96 0 203.1-20.06 276.31-60.17 73.2-40.04 109.77-96.34 109.77-168.75 0-60.1-25.03-105.58-75.1-136.39-50.14-30.87-118.3-46.27-204.61-46.27H8198.4v-282.07H8566c75.57 0 134.48-15.4 176.89-46.2 42.4-30.87 63.57-73.21 63.57-127.21 0-63.18-30.41-112.46-91.3-147.92-60.88-35.45-139.13-53.21-234.68-53.21-70.91 0-144.12 9.63-219.62 28.9-75.56 19.27-147.2 48.17-215.03 86.7l-113.31-291.31c171.12-87.82 356.06-131.79 554.9-131.79 126.36 0 242.75 18.48 349.12 55.51 106.37 36.96 191.11 90.96 254.35 161.81 63.18 70.91 94.77 153.35 94.77 247.4 0 77.07-20.85 145.69-62.46 205.79-41.62 60.09-98.63 106.36-171.05 138.74zm2071.56-774.58v1618.44h-372.25v-1313.24h-730.61v1313.24H9548.6v-1618.44zm1655.4 1317.88v300.56h-1253.13v-1618.44h1223.05v300.61h-850.8v351.41h751.38v291.32h-751.38v374.54zm929.45-351.41h-259v651.97h-372.19v-1618.44h372.19v654.32h268.24l425.4-654.32h395.32l-529.41 781.46 545.6 836.98h-425.4zm2085.39 305.14h-751.38l-143.4 346.83h-383.78l721.37-1618.44h369.89l723.66 1618.44h-393.03zm-117.9-284.36l-256.64-619.59-256.65 619.59z" id="path159" fill="url(#id16)" fill-rule="nonzero"/></g></g></svg>