<svg xmlns:osb="http://www.openswatchbook.org/uri/2009/osb" xmlns="http://www.w3.org/2000/svg" xmlns:xlink="http://www.w3.org/1999/xlink" xml:space="preserve" width="120.612" height="120.611" version="1.1" viewBox="0 0 3191.191 3191.157" id="svg163" clip-rule="evenodd" fill-rule="evenodd" image-rendering="optimizeQuality" shape-rendering="geometricPrecision" text-rendering="geometricPrecision"><defs id="defs25"><linearGradient id="linearGradient4749" osb:paint="solid"><stop offset="0" id="stop4747" stop-color="#000" stop-opacity="1"/></linearGradient><linearGradient id="linearGradient4737" osb:paint="solid"><stop offset="0" id="stop4735" stop-color="#000" stop-opacity="1"/></linearGradient><style type="text/css" id="style2">.str0{stroke:#fefefe}.str0,.str1,.str2{stroke-width:255;stroke-linecap:round;stroke-linejoin:round;stroke-miterlimit:22.9256}.str2{stroke:#fefefe}.str1{stroke:#61b340}.fil1{fill:none}.fil5,.fil6{fill:none;fill-rule:nonzero}.fil6{fill:#fefefe}</style><linearGradient id="id0" gradientUnits="userSpaceOnUse" x1="6924.15" y1="14070.37" x2="8106.73" y2="14091.87"><stop offset="0" id="stop4" stop-opacity="1" stop-color="#128f3b"/><stop offset="1" id="stop6" stop-opacity="1" stop-color="#99c129"/></linearGradient><linearGradient id="id1" gradientUnits="userSpaceOnUse" xlink:href="#id0" x1="13488.22" y1="7316.7" x2="14612.12" y2="7336.29"/><linearGradient id="id2" gradientUnits="userSpaceOnUse" xlink:href="#id0" x1="15186.93" y1="9944.35" x2="17169.23" y2="9972.88"/><linearGradient id="id3" gradientUnits="userSpaceOnUse" xlink:href="#id0" x1="15594.64" y1="12877.59" x2="17803.07" y2="12927.93"/><linearGradient id="id4" gradientUnits="userSpaceOnUse" xlink:href="#id0" x1="3380.86" y1="13561.45" x2="5704.15" y2="13607.39"/><linearGradient id="id5" gradientUnits="userSpaceOnUse" xlink:href="#id0" x1="13203.47" y1="10004.68" x2="14301.55" y2="11121.26"/><linearGradient id="id6" gradientUnits="userSpaceOnUse" xlink:href="#id0" x1="14280.28" y1="12032.6" x2="15378.46" y2="13149.22"/><linearGradient id="id7" gradientUnits="userSpaceOnUse" xlink:href="#id0" x1="5357.11" y1="8919.42" x2="8396.69" y2="8949.31"/><linearGradient id="id8" gradientUnits="userSpaceOnUse" xlink:href="#id0" x1="2263.38" y1="4075.79" x2="18239.301" y2="4267.13" gradientTransform="translate(-438.456 -647.09) scale(.19372)"/><linearGradient id="id9" gradientUnits="userSpaceOnUse" xlink:href="#id0" x1="8686.15" y1="11150.04" x2="9784.39" y2="12266.55"/><linearGradient id="id10" gradientUnits="userSpaceOnUse" xlink:href="#id0" x1="4065.29" y1="10881" x2="5713.8" y2="10899.53"/><linearGradient id="id11" gradientUnits="userSpaceOnUse" xlink:href="#id0" x1="13176.51" y1="13859.79" x2="14905.23" y2="13875.71"/><linearGradient id="id12" gradientUnits="userSpaceOnUse" xlink:href="#id0" x1="10500.06" y1="9873.27" x2="11598.29" y2="10989.81"/><linearGradient id="id13" gradientUnits="userSpaceOnUse" xlink:href="#id0" x1="6059.87" y1="11854.39" x2="7157.94" y2="12971.1"/><linearGradient id="id14" gradientUnits="userSpaceOnUse" xlink:href="#id0" x1="8846.51" y1="6600.63" x2="10121.21" y2="6615.89"/><linearGradient id="id15" gradientUnits="userSpaceOnUse" xlink:href="#id0" x1="3933.27" y1="4357.74" x2="12862.52" y2="4421.39"/><linearGradient id="id16" gradientUnits="userSpaceOnUse" xlink:href="#id0" x1="2377.92" y1="22202.6" x2="18131.74" y2="22253.199" gradientTransform="translate(-438.456 -647.09) scale(.19372)"/><linearGradient xlink:href="#id0" id="linearGradient4816" gradientUnits="userSpaceOnUse" x1="6924.15" y1="14070.37" x2="8106.73" y2="14091.87"/></defs><g id="g4818"><path d="M3050.558 941.56C2689.353 138.01 1745.136-220.58 941.585 140.64c-385.783 173.417-686.896 492.937-837.143 888.326-150.876 395.48-137.843 834.806 36.218 1220.639 361.205 803.548 1305.431 1162.118 2108.973 800.92 803.546-361.208 1162.136-1305.43 800.925-2108.965zm-1243.852 2080c-70.481-281.553-16.561-637.078-16.561-637.078s20.586-424.995 753.211-484.451c0 0-235.824-59.755-340.332-24.01 0 0 83.695-74.746 116.563-222.448 0 0-323.898 367.623-555.742 380.763 0 0 43.711-85.35 146.652-200.75 102.843-115.4 264.682-260.993 501.016-381.28 0 0-251.045 35.713-337.027 113.848 0 0 35.044-162.013-30.557-228.457 0 0 7.438 308.796-293.36 457.162 0 0-46.868-230.414 152.307-457.162 0 0-128.95 35.195-199.175 191.563 0 0-132.843-128.94-304.865-117.256 0 0 390.74 168.07 109.376 578.209 0 0-82.821-65.239-42.008-428.534 0 0-55.656 135.51-67.368 209.815 0 0-176.296-101.75-371.157-128.951 0 0 320.35 89.814 351.609 339.93 0 0-293.855-26.914-446.924-324.438 0 0 8.401 62.523 78.75 218.736 0 0-207.049-42.4-363.25-30.57 0 0 768.035 170.681 796.14 446.394 16.946 166.35 68.965 447.224-31.49 733.433a1446.11 1446.11 0 0 1-517.763-168.45c-68.476-101.26-93.594-289.721-118.463-470.368-31.718-237.31-62.203-462.567-198.882-540.117-124.182-78.452-283.692-73.057-402.305 13.588a1440.364 1440.364 0 0 1 39.839-691.022c35.966 122.262 152.575 202.683 279.633 192.88 132.49-2.249 280.055-75.694 407.493-136.824a914.485 914.485 0 0 1 177.976-76.402 646.422 646.422 0 0 1 298.881 28.312c120.035 32.296 228.213 61.066 357.556.023 172.46-81.392 219.23-238.75 271.85-418.349 45.485-153.985 96.176-323.366 249.541-446.114 289.566 148.933 520.03 391.733 653.663 688.666a1438.235 1438.235 0 0 1 126.447 653.954c-462.453 50.014-492.944 284.996-535.202 603.69-22.375 171.111-47.798 370.673-165.31 572.017a1455.404 1455.404 0 0 1-151.21 78.83 1446.216 1446.216 0 0 1-379.552 111.219zm1216.253-1211.492c-48.571 321.448-203.96 617.183-441.134 839.527a2140.16 2140.16 0 0 0 71.572-369.71c30.962-242.193 54.634-421.822 369.562-469.817zM322.793 910.573c150.204-280.103 389.01-502.539 679.054-632.52C1350.739 119.94 1748.255 107.4 2106.41 243.22c-145.371 141.546-196.176 313.79-242.376 471.361-42.21 143.637-80.384 272.385-190.889 324.484-80.335 36.177-162.935 15.49-255.275-9.21a768.616 768.616 0 0 0-366.612-30.489 959.764 959.764 0 0 0-216.592 89.128c-112.56 55.822-243.222 121.195-342.914 122.679-92.288 2.352-161.08-67.498-168.96-300.6zM278.042 2187.74l.391-.175a1459.195 1459.195 0 0 1-62.655-165.029c73.503-82.414 195.283-100.763 289.803-43.682 71.505 40.623 96.972 229.862 123.75 429.25 13.722 103.044 27.936 208.2 50.527 303.982a1438.303 1438.303 0 0 1-401.816-524.346z" id="path28" fill="url(#id8)" stroke-width=".194"/><g transform="matrix(.15078 0 0 .15704 -246.46 -114.142)" id="g33" stroke="none" stroke-width="0" stroke-miterlimit="4" stroke-dasharray="none"><path class="fil1 str0" d="M3702.26 14633.7l2.02-.9a7530.565 7530.565 0 0 1-323.42-851.9c379.42-425.43 1008.06-520.15 1495.98-225.49 369.12 209.7 500.58 1186.57 638.81 2215.83 70.84 531.93 144.21 1074.76 260.83 1569.19a7424.779 7424.779 0 0 1-2074.22-2706.73z" id="path30" stroke-miterlimit="4" fill="none" stroke="none" stroke-width="0" stroke-linecap="round" stroke-linejoin="round" stroke-dasharray="none"/><path id="1" d="M3702.26 14633.7l2.02-.9a7530.565 7530.565 0 0 1-323.42-851.9c379.42-425.43 1008.06-520.15 1495.98-225.49 369.12 209.7 500.58 1186.57 638.81 2215.83 70.84 531.93 144.21 1074.76 260.83 1569.19a7424.779 7424.779 0 0 1-2074.22-2706.73z" fill="url(#id4)" stroke="none" stroke-width="0" stroke-miterlimit="4" stroke-dasharray="none"/></g><g transform="matrix(.17734 0 0 .17361 -308.299 -509.735)" id="g39" stroke="none" stroke-width="0" stroke-miterlimit="4" stroke-dasharray="none"><path class="fil1 str0" d="M3933.27 8040.82c775.37-1445.92 2008.11-2594.16 3505.35-3265.14 1801.02-816.19 3853.04-880.92 5701.88-179.81-750.42 730.68-1012.68 1619.82-1251.17 2433.22-217.89 741.47-414.95 1406.08-985.39 1675.02-414.7 186.75-841.09 79.96-1317.75-47.54-608.81-204.89-1258.21-258.88-1892.5-157.39a4954.408 4954.408 0 0 0-1118.07 460.09c-581.05 288.16-1255.54 625.62-1770.16 633.28-476.39 12.14-831.51-348.43-872.19-1551.73z" id="path35" stroke-miterlimit="4" fill="none" stroke="none" stroke-width="0" stroke-linecap="round" stroke-linejoin="round" stroke-dasharray="none"/><path id="path37" d="M3933.27 8040.82c775.37-1445.92 2008.11-2594.16 3505.35-3265.14 1801.02-816.19 3853.04-880.92 5701.88-179.81-750.42 730.68-1012.68 1619.82-1251.17 2433.22-217.89 741.47-414.95 1406.08-985.39 1675.02-414.7 186.75-841.09 79.96-1317.75-47.54-608.81-204.89-1258.21-258.88-1892.5-157.39a4954.408 4954.408 0 0 0-1118.07 460.09c-581.05 288.16-1255.54 625.62-1770.16 633.28-476.39 12.14-831.51-348.43-872.19-1551.73z" fill="url(#id15)" stroke="none" stroke-width="0" stroke-miterlimit="4" stroke-dasharray="none"/></g><g transform="matrix(.14027 0 0 .1519 461.142 -57.671)" id="g45" stroke="none"><path class="fil1 str0" d="M17871.83 12684.11c-250.74 1659.35-1052.87 3185.97-2277.19 4333.73 179.01-624.07 302.6-1262.68 369.46-1908.48 159.83-1250.23 282.03-2177.49 1907.73-2425.25z" id="path41" stroke-miterlimit="22.926" fill="none" stroke="#fefefe" stroke-width="255" stroke-linecap="round" stroke-linejoin="round"/><path id="path43" d="M17871.83 12684.11c-250.74 1659.35-1052.87 3185.97-2277.19 4333.73 179.01-624.07 302.6-1262.68 369.46-1908.48 159.83-1250.23 282.03-2177.49 1907.73-2425.25z" fill="url(#id3)" stroke="none"/></g><g transform="translate(-438.456 -647.09) scale(.19372)" id="g51"><path class="fil5 str1" d="M16696.53 14336.77s-1197.57 931.21-1789.42-504c0 0 700.28-312.23 1093.63 76.22 0 0-205.36-486.1-937.84-272.39 0 0 762.68-1007.1 1633.63 700.17z" id="path47" stroke-miterlimit="22.926" fill="none" fill-rule="nonzero" stroke="#61b340" stroke-width="255" stroke-linecap="round" stroke-linejoin="round"/><path id="path49" class="fil6" d="M16696.53 14336.77s-1197.57 931.21-1789.42-504c0 0 700.28-312.23 1093.63 76.22 0 0-205.36-486.1-937.84-272.39 0 0 762.68-1007.1 1633.63 700.17z" fill="#fefefe" fill-rule="nonzero"/></g><g transform="translate(-438.456 -647.09) scale(.19372)" id="g57"><path class="fil5 str1" d="M4964.05 14600.2s-72.66-1571.08 1496.41-1214.14c0 0-154.11 779.84-718.18 880.75 0 0 534.56 116.59 791.4-631.52 0 0 396.92 1248.13-1569.63 964.91z" id="path53" stroke-miterlimit="22.926" fill="none" fill-rule="nonzero" stroke="#61b340" stroke-width="255" stroke-linecap="round" stroke-linejoin="round"/><path id="path55" class="fil6" d="M4964.05 14600.2s-72.66-1571.08 1496.41-1214.14c0 0-154.11 779.84-718.18 880.75 0 0 534.56 116.59 791.4-631.52 0 0 396.92 1248.13-1569.63 964.91z" fill="#fefefe" fill-rule="nonzero"/></g><g transform="translate(-438.456 -647.09) scale(.19372)" id="g63"><path class="fil1 str2" d="M7554.29 15838.92s-1297.68-785.96-168.54-1851.2c0 0 541.83 542.37 319.59 1048.51 0 0 380.34-365.36-80.7-973.4 0 0 1213.09 352.88-70.35 1776.09z" id="path59" stroke-miterlimit="22.926" fill="none" stroke="#fefefe" stroke-width="255" stroke-linecap="round" stroke-linejoin="round"/><path id="path61" d="M7554.29 15838.92s-1297.68-785.96-168.54-1851.2c0 0 541.83 542.37 319.59 1048.51 0 0 380.34-365.36-80.7-973.4 0 0 1213.09 352.88-70.35 1776.09z" fill="url(#linearGradient4816)"/></g><g transform="translate(-438.456 -647.09) scale(.19372)" id="g69"><path class="fil1 str2" d="M17032.08 9834.68s961.84 2073.12-1345.15 2456.35c0 0-221.56-1133.74 481.75-1579.84 0 0-783.09 137.19-717.03 1285.01 0 0-1220.63-1460.71 1580.43-2161.52z" id="path65" stroke-miterlimit="22.926" fill="none" stroke="#fefefe" stroke-width="255" stroke-linecap="round" stroke-linejoin="round"/><path id="path67" d="M17032.08 9834.68s961.84 2073.12-1345.15 2456.35c0 0-221.56-1133.74 481.75-1579.84 0 0-783.09 137.19-717.03 1285.01 0 0-1220.63-1460.71 1580.43-2161.52z" fill="url(#id2)"/></g><g transform="translate(-438.456 -647.09) scale(.19372)" id="g75"><path class="fil1 str2" d="M5357.11 9076.62s2599.67-1261.11 3134.21 1646.81c0 0-1428.31 304.74-2007.43-574.54 0 0 190.36 986.79 1640 878.4 0 0-1819.86 1574.64-2766.78-1950.67z" id="path71" stroke-miterlimit="22.926" fill="none" stroke="#fefefe" stroke-width="255" stroke-linecap="round" stroke-linejoin="round"/><path id="path73" d="M5357.11 9076.62s2599.67-1261.11 3134.21 1646.81c0 0-1428.31 304.74-2007.43-574.54 0 0 190.36 986.79 1640 878.4 0 0-1819.86 1574.64-2766.78-1950.67z" fill="url(#id7)"/></g><g transform="translate(-438.456 -647.09) scale(.19372)" id="g81"><path class="fil5 str1" d="M15764.13 8417.41s724.42 1560.99-1012.76 1849.43c0 0-166.72-853.64 362.73-1189.44 0 0-589.46 103.28-540.01 967.45 0 0-918.85-1099.78 1190.04-1627.44z" id="path77" stroke-miterlimit="22.926" fill="none" fill-rule="nonzero" stroke="#61b340" stroke-width="255" stroke-linecap="round" stroke-linejoin="round"/><path id="path79" class="fil6" d="M15764.13 8417.41s724.42 1560.99-1012.76 1849.43c0 0-166.72-853.64 362.73-1189.44 0 0-589.46 103.28-540.01 967.45 0 0-918.85-1099.78 1190.04-1627.44z" fill="#fefefe" fill-rule="nonzero"/></g><path class="fil6" d="M941.261 602.01s309.12 124.814 101.683 395.616c0 0-136.62-98.599-106.185-216.216 0 0-69.747 92.653 51.721 208.303 0 0-275.554-33.821-47.219-387.702z" id="path83" fill="#fefefe" fill-rule="nonzero" stroke-width=".194"/><g transform="translate(-438.456 -647.09) scale(.19372)" id="g89"><path class="fil1 str2" d="M4065.29 10879.05s1642.83-512.01 1699.83 1247.9c0 0-868.15 52.85-1131.3-516.39 0 0 24.59 597.97 887.92 662.74 0 0-1211.54 765.9-1456.45-1394.25z" id="path85" stroke-miterlimit="22.926" fill="none" stroke="#fefefe" stroke-width="255" stroke-linecap="round" stroke-linejoin="round"/><path id="path87" d="M4065.29 10879.05s1642.83-512.01 1699.83 1247.9c0 0-868.15 52.85-1131.3-516.39 0 0 24.59 597.97 887.92 662.74 0 0-1211.54 765.9-1456.45-1394.25z" fill="url(#id10)"/></g><g transform="translate(-438.456 -647.09) scale(.19372)" id="g95"><path class="fil5 str1" d="M8693.79 8319.22s1637.63-529.5 1713.02 1229.66c0 0-867.58 62.15-1136.67-504.37 0 0 31.01 597.68 894.85 653.19 0 0-1203.18 778.8-1471.2-1378.48z" id="path91" stroke-miterlimit="22.926" fill="none" fill-rule="nonzero" stroke="#61b340" stroke-width="255" stroke-linecap="round" stroke-linejoin="round"/><path id="path93" class="fil6" d="M8693.79 8319.22s1637.63-529.5 1713.02 1229.66c0 0-867.58 62.15-1136.67-504.37 0 0 31.01 597.68 894.85 653.19 0 0-1203.18 778.8-1471.2-1378.48z" fill="#fefefe" fill-rule="nonzero"/></g><g transform="translate(-438.456 -647.09) scale(.19372)" id="g101"><path class="fil1 str2" d="M14275.22 7241.42s985.5 982.29-252.08 1686.26c0 0-365.06-601.22-57.07-1003.88 0 0-418.68 242.99-139.71 884.86 0 0-1004.36-577.93 448.86-1567.24z" id="path97" stroke-miterlimit="22.926" fill="none" stroke="#fefefe" stroke-width="255" stroke-linecap="round" stroke-linejoin="round"/><path id="path99" d="M14275.22 7241.42s985.5 982.29-252.08 1686.26c0 0-365.06-601.22-57.07-1003.88 0 0-418.68 242.99-139.71 884.86 0 0-1004.36-577.93 448.86-1567.24z" fill="url(#id1)"/></g><g transform="translate(-438.456 -647.09) scale(.19372)" id="g107"><path class="fil1 str2" d="M8846.51 6576.71s1350.08-336.68 1313.65 1086.63c0 0-703.07 2.09-889-469.73 0 0-7.99 483.92 685.88 576.47 0 0-1013.68 561.77-1110.53-1193.37z" id="path103" stroke-miterlimit="22.926" fill="none" stroke="#fefefe" stroke-width="255" stroke-linecap="round" stroke-linejoin="round"/><path id="path105" d="M8846.51 6576.71s1350.08-336.68 1313.65 1086.63c0 0-703.07 2.09-889-469.73 0 0-7.99 483.92 685.88 576.47 0 0-1013.68 561.77-1110.53-1193.37z" fill="url(#id14)"/></g><g transform="translate(-438.456 -647.09) scale(.19372)" id="g113"><path class="fil5 str1" d="M3723.56 9027.69s1350.21-336.75 1313.86 1086.68c0 0-703.29 2.12-889.12-469.73 0 0-8.09 484.08 685.75 576.47 0 0-1013.51 561.75-1110.49-1193.42z" id="path109" stroke-miterlimit="22.926" fill="none" fill-rule="nonzero" stroke="#61b340" stroke-width="255" stroke-linecap="round" stroke-linejoin="round"/><path id="path111" class="fil6" d="M3723.56 9027.69s1350.21-336.75 1313.86 1086.68c0 0-703.29 2.12-889.12-469.73 0 0-8.09 484.08 685.75 576.47 0 0-1013.51 561.75-1110.49-1193.42z" fill="#fefefe" fill-rule="nonzero"/></g><g transform="translate(-438.456 -647.09) scale(.19372)" id="g119"><path class="fil5 str1" d="M11785.51 5744.75s2388.91 1502.62 255.31 3448.79c0 0-990.83-1026.12-561.48-1960.68 0 0-719.52 667.92 119.73 1813.09 0 0-2245.6-694.23 186.44-3301.2z" id="path115" stroke-miterlimit="22.926" fill="none" fill-rule="nonzero" stroke="#61b340" stroke-width="255" stroke-linecap="round" stroke-linejoin="round"/><path id="path117" class="fil6" d="M11785.51 5744.75s2388.91 1502.62 255.31 3448.79c0 0-990.83-1026.12-561.48-1960.68 0 0-719.52 667.92 119.73 1813.09 0 0-2245.6-694.23 186.44-3301.2z" fill="#fefefe" fill-rule="nonzero"/></g><g transform="translate(-438.456 -647.09) scale(.19372)" id="g125"><path class="fil1 str2" d="M14067.66 10398.25c0 238.61-193.63 432.18-432.07 432.18-238.78 0-432.12-193.57-432.12-432.18 0-238.88 193.34-432.16 432.12-432.16 238.44 0 432.07 193.28 432.07 432.16z" id="path121" stroke-miterlimit="22.926" fill="none" stroke="#fefefe" stroke-width="255" stroke-linecap="round" stroke-linejoin="round"/><path id="path123" d="M14067.66 10398.25c0 238.61-193.63 432.18-432.07 432.18-238.78 0-432.12-193.57-432.12-432.18 0-238.88 193.34-432.16 432.12-432.16 238.44 0 432.07 193.28 432.07 432.16z" fill="url(#id5)"/></g><g transform="translate(-438.456 -647.09) scale(.19372)" id="g131"><path class="fil1 str2" d="M11364.37 10266.84c0 238.87-193.39 432.14-432.14 432.14-238.87 0-432.17-193.27-432.17-432.14 0-238.66 193.3-432.16 432.17-432.16 238.75 0 432.14 193.5 432.14 432.16z" id="path127" stroke-miterlimit="22.926" fill="none" stroke="#fefefe" stroke-width="255" stroke-linecap="round" stroke-linejoin="round"/><path id="path129" d="M11364.37 10266.84c0 238.87-193.39 432.14-432.14 432.14-238.87 0-432.17-193.27-432.17-432.14 0-238.66 193.3-432.16 432.17-432.16 238.75 0 432.14 193.5 432.14 432.16z" fill="url(#id12)"/></g><g transform="translate(-438.456 -647.09) scale(.19372)" id="g137"><path class="fil1 str2" d="M15144.55 12426.2c0 238.56-193.62 432.18-432.13 432.18-239 0-432.14-193.62-432.14-432.18 0-238.75 193.14-432.19 432.14-432.19 238.51 0 432.13 193.44 432.13 432.19z" id="path133" stroke-miterlimit="22.926" fill="none" stroke="#fefefe" stroke-width="255" stroke-linecap="round" stroke-linejoin="round"/><path id="path135" d="M15144.55 12426.2c0 238.56-193.62 432.18-432.13 432.18-239 0-432.14-193.62-432.14-432.18 0-238.75 193.14-432.19 432.14-432.19 238.51 0 432.13 193.44 432.13 432.19z" fill="url(#id6)"/></g><g transform="translate(-438.456 -647.09) scale(.19372)" id="g143"><path class="fil1 str2" d="M9550.47 11543.59c0 238.65-193.5 432.14-432.12 432.14-238.91 0-432.2-193.49-432.2-432.14 0-238.61 193.29-432.14 432.2-432.14 238.62 0 432.12 193.53 432.12 432.14z" id="path139" stroke-miterlimit="22.926" fill="none" stroke="#fefefe" stroke-width="255" stroke-linecap="round" stroke-linejoin="round"/><path id="path141" d="M9550.47 11543.59c0 238.65-193.5 432.14-432.12 432.14-238.91 0-432.2-193.49-432.2-432.14 0-238.61 193.29-432.14 432.2-432.14 238.62 0 432.12 193.53 432.12 432.14z" fill="url(#id9)"/></g><g transform="translate(-438.456 -647.09) scale(.19372)" id="g149"><path class="fil1 str2" d="M6924.05 12248.02c0 238.79-193.37 432.21-432.06 432.21-238.74 0-432.12-193.42-432.12-432.21 0-238.59 193.38-432.22 432.12-432.22 238.69 0 432.06 193.63 432.06 432.22z" id="path145" stroke-miterlimit="22.926" fill="none" stroke="#fefefe" stroke-width="255" stroke-linecap="round" stroke-linejoin="round"/><path id="path147" d="M6924.05 12248.02c0 238.79-193.37 432.21-432.06 432.21-238.74 0-432.12-193.42-432.12-432.21 0-238.59 193.38-432.22 432.12-432.22 238.69 0 432.06 193.63 432.06 432.22z" fill="url(#id13)"/></g><g transform="translate(-438.456 -647.09) scale(.19372)" id="g155"><path class="fil1 str2" d="M14959.04 14954.41s-1343.92 816.6-1782.53-731.7c0 0 758.09-238.3 1117 208.37 0 0-153.7-525.03-933.74-391.85 0 0 905.42-946.63 1599.27 915.18z" id="path151" stroke-miterlimit="22.926" fill="none" stroke="#fefefe" stroke-width="255" stroke-linecap="round" stroke-linejoin="round"/><path id="path153" d="M14959.04 14954.41s-1343.92 816.6-1782.53-731.7c0 0 758.09-238.3 1117 208.37 0 0-153.7-525.03-933.74-391.85 0 0 905.42-946.63 1599.27 915.18z" fill="url(#id11)"/></g></g></svg>