<svg xmlns="http://www.w3.org/2000/svg" height="2560" width="2560"><defs><radialGradient id="b" spreadMethod="pad" gradientTransform="matrix(959.99731 0 0 -959.99731 1273.217 448.195)" gradientUnits="userSpaceOnUse" r="1" cy="0" cx="0" fy="0" fx="0"><stop offset="0" stop-color="#fff"/><stop offset=".352" stop-color="#fffced"/><stop offset="1" stop-color="#fff6cc"/></radialGradient><clipPath id="c" clipPathUnits="userSpaceOnUse"><path d="M0 0h1920v1920H0z"/></clipPath><clipPath id="d" clipPathUnits="userSpaceOnUse"><path d="M207.51 1920H1920v-461.02H207.51z"/></clipPath><clipPath id="e" clipPathUnits="userSpaceOnUse"><path d="M-2243.75 4104.17h4104.17V0h-4104.17z"/></clipPath><clipPath id="g" clipPathUnits="userSpaceOnUse"><path d="M1860.421 2052.086C1860.421 918.75 941.671 0-191.665 0c-1133.337 0-2052.087 918.75-2052.087 2052.086 0 1133.337 918.75 2052.087 2052.087 2052.087 1133.336 0 2052.086-918.75 2052.086-2052.087"/></clipPath><radialGradient id="a" spreadMethod="pad" gradientTransform="matrix(1871.946 0 0 -1871.946 -105.77 2017.73)" gradientUnits="userSpaceOnUse" r="1" cy="0" cx="0" fy="0" fx="0"><stop offset="0" stop-opacity=".9" stop-color="#fff"/><stop offset=".048" stop-opacity=".9" stop-color="#fff"/><stop offset=".862" stop-opacity="0" stop-color="#fff"/><stop offset="1" stop-opacity="0" stop-color="#fff"/></radialGradient><mask id="f" height="1" width="1" y="0" x="0" maskUnits="userSpaceOnUse"><path d="M-32768 32767h65535v-65535h-65535z" fill="url(#a)"/></mask><radialGradient id="h" spreadMethod="pad" gradientTransform="matrix(1871.946 0 0 -1871.946 -105.77 2017.73)" gradientUnits="userSpaceOnUse" r="1" cy="0" cx="0" fy="0" fx="0"><stop offset="0" stop-color="#fff"/><stop offset=".048" stop-color="#fff"/><stop offset=".862" stop-color="#fff"/><stop offset="1" stop-color="#fff"/></radialGradient></defs><path d="M0 0h1920v1920H0z" fill="url(#b)" transform="matrix(1.33333 0 0 -1.33333 0 2560)"/><path d="M2304.518 749.342a1273.639 1273.639 0 0 1 38.015 21.163c65.609-36.215 124.894-83.668 178.256-138.099a1796.483 1796.483 0 0 0-39.16-17.621c-51.972 53.445-110.803 100-177.111 134.557" fill="#ffffb7"/><path d="M2560 651.17v-61.16c-12.699 14.53-25.767 28.683-39.21 42.396A1904.56 1904.56 0 0 1 2560 651.17" fill="#fff"/><path d="M2481.628 614.785c13.313 5.8 26.37 11.681 39.161 17.621 13.444-13.712 26.512-27.866 39.211-42.396v-67.134c-24.185 32.112-50.276 63.017-78.372 91.909" fill="#ffffe4"/><path d="M1382.899 1868.992h17.88v95.252c0 15.97-1.555 29.07-4.661 39.304-3.11 10.233-8.763 18.312-16.964 24.235-8.203 5.922-18.63 8.884-31.286 8.884-17.826 0-31.174-5.322-40.05-15.97-8.875-10.644-13.312-29.462-13.312-56.453v-95.252h17.882v95.139c0 14.92 1.162 25.717 3.486 32.389 2.322 6.672 6.129 11.75 11.413 15.237 5.287 3.486 11.713 5.23 19.287 5.23 12.745 0 21.986-3.6 27.72-10.796 5.738-7.198 8.605-21.216 8.605-42.06zm47.346 164.863v-164.863h17.88v81.758l67.167-81.758h24.261l-56.748 66.871 59.222 97.992h-23.615l-48.024-83.368-22.263 26.239v57.13zm144.393-92.103h38.462c8.396 0 14.768-1.012 19.117-3.036 4.348-2.024 7.796-5.21 10.345-9.558 2.548-4.348 3.824-9.408 3.824-15.183 0-8.321-2.437-14.863-7.31-19.624-4.872-4.759-12.107-7.14-21.703-7.14h-42.735zm-17.88 92.103v-164.863h59.94c12.52 0 21.76 1.538 27.722 4.61 5.958 3.07 10.852 8.184 14.674 15.34 3.823 7.154 5.735 15.453 5.735 24.892 0 12.438-3.243 22.514-9.727 30.232-6.485 7.717-15.912 12.625-28.284 14.724 5.023 3.018 8.847 6.073 11.471 9.165 5.323 6.297 10.008 13.31 14.057 21.03l23.618 44.87h-22.492l-18.028-34.28c-6.988-13.41-12.259-22.444-15.816-27.1-3.555-4.657-7.003-7.792-10.334-9.407-3.333-1.614-7.994-2.422-13.986-2.422h-20.67v73.209zm160.354-67.699h46.05l-14.05-45.657c-4.346-14.02-7.53-25.416-9.554-34.188a242.621 242.621 0 0 1-7.407 31.488zm-38.789 67.699l52.139-164.863h19.125l55.364 164.863h-20.47l-15.723-49.931h-56.875l-14.695 49.93zm144.172-164.863h17.88v164.863h-17.88zm48.581 164.863v-164.863h18.33l71.074 129.695v-129.695h17.093v164.863h-18.33l-70.962-129.72v129.72zm137.198 0v-164.863H2106v19.455h-79.846v50.381h74.786v19.455h-74.786v56.116h82.994v19.456z" fill="#0082d1"/><path d="M1296.922 2146.812h20.211l-6.167-20.037c-1.908-6.152-3.304-11.154-4.192-15.003a107.154 107.154 0 0 1-3.25 13.819zm-17.021 29.71l22.881-72.35h8.394l24.296 72.35h-8.984l-6.899-21.913h-24.961l-6.448 21.912zm69.339-8.538h14.784c3.26 0 5.667-.297 7.216-.888 2.243-.856 3.945-2.261 5.117-4.22 1.17-1.957 1.755-4.416 1.755-7.377 0-2.731-.56-5.043-1.681-6.935-1.12-1.89-2.628-3.275-4.524-4.145-1.896-.872-4.87-1.308-8.922-1.308h-13.745zm0-33.412h12.857c3.362 0 5.752-.228 7.168-.69 2.046-.691 3.618-1.851 4.722-3.48 1.105-1.627 1.657-3.84 1.657-6.638 0-2.597-.503-4.761-1.508-6.49-1.005-1.726-2.341-2.92-4.005-3.578-1.664-.657-4.656-.987-8.974-.987h-11.917zm-7.847 41.95v-72.35h22.284c4.514 0 8.087.699 10.722 2.096 2.636 1.397 4.794 3.576 6.474 6.533 1.68 2.96 2.52 6.232 2.52 9.816 0 3.32-.724 6.312-2.174 8.975-1.448 2.663-3.487 4.8-6.116 6.41 3.437 1.251 6.148 3.385 8.13 6.397 1.982 3.01 2.974 6.722 2.974 11.134 0 4.379-.899 8.223-2.69 11.532-1.796 3.308-4.189 5.712-7.18 7.21-2.996 1.498-7.108 2.246-12.34 2.246zm52.907-23.295l7.404-.789c.393 3.981 1.29 7.083 2.69 9.303 1.395 2.221 3.395 4.006 5.994 5.354 2.6 1.35 5.53 2.024 8.784 2.024 4.672 0 8.3-1.14 10.883-3.422 2.584-2.282 3.876-5.246 3.876-8.89 0-2.133-.47-3.996-1.407-5.589-.937-1.592-2.355-2.899-4.245-3.916-1.892-1.017-5.979-2.456-12.263-4.317-5.593-1.66-9.576-3.33-11.945-5.008a17.386 17.386 0 0 1-5.526-6.39c-1.318-2.582-1.974-5.502-1.974-8.76 0-5.856 1.89-10.644 5.674-14.36 3.784-3.718 8.883-5.578 15.3-5.578 4.408 0 8.266.872 11.572 2.616 3.308 1.744 5.874 4.244 7.699 7.501 1.828 3.256 2.804 7.09 2.937 11.499l-7.549.692c-.396-4.707-1.803-8.194-4.221-10.464-2.418-2.27-5.816-3.406-10.191-3.406-4.443 0-7.83.996-10.167 2.987-2.336 1.99-3.505 4.564-3.505 7.723 0 2.928.857 5.197 2.568 6.81 1.71 1.611 5.56 3.244 11.544 4.895 5.855 1.62 9.964 3.025 12.333 4.215 3.618 1.85 6.35 4.28 8.196 7.286 1.846 3.008 2.768 6.598 2.768 10.772 0 4.14-.972 7.912-2.912 11.314-1.94 3.401-4.58 5.99-7.918 7.764-3.342 1.774-7.363 2.664-12.068 2.664-7.339 0-13.186-2.206-17.544-6.615-4.36-4.408-6.623-10.38-6.787-17.915m73.14 23.295v-63.812h-19.544v-8.539h47.034v8.539h-19.643v63.812zm43.232-40.419h16.878c3.685 0 6.482-.444 8.39-1.332 1.91-.89 3.423-2.287 4.542-4.196 1.117-1.907 1.677-4.128 1.677-6.663 0-3.652-1.07-6.521-3.208-8.612-2.139-2.088-5.312-3.133-9.524-3.133h-18.755zm-7.846 40.418v-72.35h26.305c5.495 0 9.55.676 12.164 2.024 2.617 1.348 4.763 3.592 6.44 6.732 1.68 3.14 2.519 6.78 2.519 10.924 0 5.458-1.426 9.88-4.27 13.268-2.845 3.386-6.984 5.54-12.41 6.46 2.202 1.326 3.88 2.665 5.033 4.022 2.333 2.764 4.39 5.842 6.167 9.23l10.365 19.69h-9.87l-7.911-15.044c-3.068-5.885-5.38-9.848-6.94-11.893-1.563-2.043-3.074-3.417-4.538-4.127-1.46-.71-3.508-1.062-6.137-1.062h-9.07v32.126zm70.372-29.709h20.208l-6.166-20.037c-1.907-6.152-3.304-11.154-4.192-15.003a106.277 106.277 0 0 1-3.25 13.819zm-17.024 29.71l22.884-72.35h8.391l24.296 72.35h-8.981l-6.902-21.913h-24.96l-6.449 21.912zm103.889-25.367l7.896 2.418c-1.745 8.127-4.797 14.188-9.156 18.186-4.36 3.998-9.664 5.997-15.915 5.997-5.494 0-10.192-1.341-14.09-4.024-3.9-2.684-7.092-6.99-9.574-12.915-2.484-5.925-3.726-12.922-3.726-20.988 0-7.968 1.242-14.708 3.729-20.224 2.487-5.514 5.855-9.68 10.101-12.493 4.248-2.815 8.992-4.223 14.227-4.223 5.732 0 10.656 1.782 14.77 5.343 4.118 3.561 6.998 8.787 8.647 15.68l-7.698 2.221c-2.638-10.034-7.924-15.052-15.864-15.052-3.956 0-7.38 1.014-10.282 3.039-2.898 2.024-5.213 5.177-6.942 9.457-1.73 4.282-2.594 9.699-2.594 16.25 0 9.913 1.742 17.348 5.23 22.304 3.489 4.954 8.126 7.433 13.918 7.433 4.276 0 7.968-1.523 11.078-4.565 3.109-3.043 5.19-7.658 6.245-13.844m32.917 25.367v-63.812h-19.542v-8.539h47.03v8.539h-19.64v63.812z" fill="#ffd100"/><path d="M652.58 1741.687c422.325-103.63 534.26-386.883 604.96-508.119 102.702-176.11 266.42-406.277 776.4-388.565 115.604 4.016 218.11-24.555 308.593-74.499a1278.317 1278.317 0 0 0-38.015-21.162c-87.685 45.698-188.444 70.417-303.713 62.328-466.917-32.768-673.697 212.454-776.4 388.565-70.7 121.236-183.745 400.064-604.959 508.119C121.348 1836.132 5.58 2283.988 0 2306.74V2560h11.64c37.909-186.993 183.102-705.969 640.94-818.313" fill="#ffed99"/><path d="M1949.784 681.754c-458.901-92.17-695.324 124.617-819.69 286.16-85.615 111.205-233.364 373.301-664.934 426.641C257.948 1420.165 106.9 1506.034 0 1600.462v706.278c5.58-22.752 121.347-470.606 619.447-598.386 421.213-108.055 534.257-386.883 604.959-508.119 102.702-176.11 309.482-421.333 776.4-388.564 115.268 8.088 216.026-16.63 303.712-62.33-41.724-22.311-85.911-42.95-132.716-61.5-65.564 11.231-139.254 10.537-222.018-6.087" fill="#ffd100"/><path d="M1375.01 601.604c-128.8 53.467-263.6 128.747-403.666 231.267C614.026 1094.421 279.177 1089.875 0 981.747v618.715c106.9-94.428 257.948-180.296 465.16-205.907 431.569-53.34 579.32-315.436 664.934-426.641 124.366-161.543 360.788-378.33 819.69-286.16 82.765 16.624 156.453 17.318 222.018 6.086-208.702-82.718-469.505-123.876-796.792-86.236" fill="#0082d1"/><path d="M2520.789 632.406c-53.361 54.43-112.647 101.884-178.256 138.099 82.06 47.553 154.09 101.52 217.467 158.34V651.17a1903.122 1903.122 0 0 0-39.211-18.764" fill="#ffffe4"/><path d="M2481.628 614.785c-25.867-11.27-52.708-22.224-80.505-32.656-62.35 51.224-137.942 90.057-229.322 105.712 46.806 18.55 90.992 39.188 132.716 61.501 66.308-34.557 125.14-81.112 177.111-134.557" fill="#ffd100"/><path d="M2481.628 614.785c-25.867-11.27-52.708-22.224-80.505-32.656-62.35 51.224-137.942 90.057-229.322 105.712 46.806 18.55 90.992 39.188 132.716 61.501 66.308-34.557 125.14-81.112 177.111-134.557" fill="#ffeb00"/><path d="M1375.01 601.604c327.287-37.64 588.09 3.518 796.792 86.236 91.38-15.654 166.97-54.486 229.32-105.712-264.308-99.196-614.556-151.312-1026.112 19.476" fill="#0082d1"/><path d="M1375.01 601.604c327.287-37.64 588.09 3.518 796.792 86.236 91.38-15.654 166.97-54.486 229.32-105.712-264.308-99.196-614.556-151.312-1026.112 19.476" fill="#0092e9"/><path d="M971.344 832.87c140.066-102.52 274.866-177.8 403.666-231.266a2524.51 2524.51 0 0 0-22.84 2.747C761.204 678.245 444.758 343.637 276.68 0H0v981.746c279.177 108.129 614.026 112.674 971.344-148.876" fill="#0082d1"/><path d="M971.344 832.87c140.066-102.52 274.866-177.8 403.666-231.266a2524.51 2524.51 0 0 0-22.84 2.747C761.204 678.245 444.758 343.637 276.68 0H0v981.746c279.177 108.129 614.026 112.674 971.344-148.876" fill="#0092e9"/><path d="M2401.123 582.129c27.797 10.432 54.639 21.386 80.505 32.656 28.096-28.892 54.187-59.798 78.372-91.908V386.454c-39.664 70.612-91.553 140.364-158.877 195.675" fill="#ffd100"/><path d="M2401.123 582.129c27.797 10.432 54.639 21.386 80.505 32.656 28.096-28.892 54.187-59.798 78.372-91.908V386.454c-39.664 70.612-91.553 140.364-158.877 195.675" fill="#ff0"/><path d="M2560 386.454V0H276.68c168.079 343.638 484.524 678.246 1075.49 604.35a2524.51 2524.51 0 0 1 22.84-2.746c411.555-170.788 761.804-118.672 1026.112-19.476 67.326-55.31 119.215-125.062 158.878-195.674" fill="#0082d1"/><g clip-path="url(#c)" transform="matrix(1.33333 0 0 -1.33333 0 2560)"><g clip-path="url(#d)"><path d="M1920 1630.16V1920H207.51c126.059-257.728 363.393-508.684 806.618-453.263 5.74.72 11.45 1.4 17.13 2.06 308.666 128.09 571.353 89.004 769.584 14.607 50.494 41.483 89.41 93.797 119.158 146.756" fill="#1d1d1b"/></g><path d="M1920 1630.16V1920H207.51c126.059-257.728 363.393-508.684 806.618-453.263 5.74.72 11.45 1.4 17.13 2.06 308.666 128.09 571.353 89.004 769.584 14.607 50.494 41.483 89.41 93.797 119.158 146.756" fill="#00a4ff"/><g clip-path="url(#e)"><g mask="url(#f)" clip-path="url(#g)"><path d="M1860.421 2052.086C1860.421 918.75 941.671 0-191.665 0c-1133.337 0-2052.087 918.75-2052.087 2052.086 0 1133.337 918.75 2052.087 2052.087 2052.087 1133.336 0 2052.086-918.75 2052.086-2052.087" fill="url(#h)"/></g></g></g></svg>